<svg width="100" height="100" viewBox="0 0 100 100" fill="none" xmlns="http://www.w3.org/2000/svg">
<rect x="1" y="1" width="98" height="98" rx="49" fill="#E0F3F2"/>
<path fill-rule="evenodd" clip-rule="evenodd" d="M56.63 22.466C56.716 22.0784 56.5151 21.6775 56.1328 21.5701C54.6284 21.1479 52.9385 21.3925 51.5792 22.4074L47.2784 25.6186C45.9872 26.5827 44.3062 26.8947 42.7426 26.4606L37.505 25.0065C34.4659 24.1628 31.374 26.165 30.9842 29.229L30.3465 34.2411C30.1419 35.8494 29.1582 37.263 27.7033 38.0395L23.1426 40.4736C20.342 41.9682 19.5912 45.567 21.5687 48.0167L24.7892 52.0061C25.8166 53.2788 26.1553 54.9567 25.6992 56.5148L24.2781 61.3702C23.4093 64.3385 25.4516 67.367 28.5852 67.7571L33.9861 68.4294C35.5983 68.6301 37.0197 69.5623 37.8213 70.9447L40.4914 75.5493C41.1649 76.7107 42.2286 77.5016 43.4201 77.8697C43.9059 78.0197 44.3811 77.6803 44.4912 77.184C44.6204 76.6015 44.1894 76.0478 43.6479 75.797C43.0954 75.5411 42.613 75.1218 42.2849 74.5561L39.6148 69.9515C38.4926 68.0161 36.5026 66.711 34.2454 66.4301L28.8446 65.7577C26.9644 65.5237 25.739 63.7066 26.2603 61.9256L27.6815 57.0702C28.3199 54.8888 27.8458 52.5398 26.4075 50.758L23.187 46.7686C22.0004 45.2988 22.451 43.1395 24.1313 42.2427L28.692 39.8087C30.7289 38.7215 32.1061 36.7426 32.3925 34.4909L33.0302 29.4788C33.2641 27.6404 35.1192 26.4391 36.9427 26.9453L42.1803 28.3995C44.3693 29.0072 46.7227 28.5703 48.5304 27.2206L52.8313 24.0094C53.4818 23.5237 54.2586 23.332 55.0044 23.4029C55.6913 23.4682 56.4805 23.1397 56.63 22.466Z" fill="#222222"/>
<path d="M52.712 23.0396C55.1002 21.1708 58.5887 21.841 60.1144 24.4616L62.7563 28.9995C63.5495 30.3619 64.9388 31.2705 66.5049 31.451L71.7511 32.0556C74.7951 32.4064 76.8103 35.3878 76.0012 38.3431L74.6776 43.1773C74.2529 44.7285 74.6003 46.3894 75.6113 47.6404L78.7801 51.5616C80.726 53.9694 80.0384 57.5489 77.3389 59.0643L72.9426 61.5322C71.5401 62.3195 70.602 63.7335 70.4217 65.3317L69.8598 70.3122C69.5163 73.357 66.5399 75.3794 63.5826 74.5774L58.4857 73.1951C56.9642 72.7825 55.3372 73.1115 54.0957 74.0831L49.9603 77.3191C47.5722 79.1878 44.0837 78.5177 42.558 75.8971L39.916 71.3591C39.1228 69.9967 37.7335 69.0882 36.1674 68.9077L30.9212 68.303C27.8772 67.9522 25.862 64.9709 26.6712 62.0155L27.9947 57.1814C28.4195 55.6301 28.072 53.9692 27.0611 52.7183L23.8922 48.7971C21.9463 46.3893 22.634 42.8098 25.3335 41.2943L29.7297 38.8264C31.1322 38.0391 32.0704 36.6252 32.2507 35.0269L32.8125 30.0465C33.156 27.0016 36.1325 24.9792 39.0898 25.7813L44.1866 27.1636C45.7081 27.5762 47.3351 27.2471 48.5767 26.2756L52.712 23.0396Z" fill="#0EAAA3"/>
<path fill-rule="evenodd" clip-rule="evenodd" d="M61.0279 30.0058L58.386 25.4679C57.4705 23.8955 55.3774 23.4934 53.9446 24.6147L49.8092 27.8507C48.071 29.2108 45.7932 29.6715 43.6631 29.0938L38.5663 27.7115C36.7919 27.2303 35.006 28.4438 34.7999 30.2707L34.2381 35.2511C33.9857 37.4887 32.6723 39.4682 30.7088 40.5704L26.3125 43.0383C24.6928 43.9476 24.2802 46.0953 25.4477 47.54L28.6166 51.4612C30.0319 53.2125 30.5184 55.5377 29.9237 57.7095L28.6002 62.5437C28.1147 64.3169 29.3238 66.1057 31.1502 66.3162L36.3964 66.9208C38.589 67.1735 40.5339 68.4455 41.6444 70.3528L44.2864 74.8908C45.2018 76.4632 47.2949 76.8653 48.7278 75.744L52.8631 72.508C54.6013 71.1479 56.8791 70.6871 59.0092 71.2648L64.1061 72.6471C65.8805 73.1283 67.6663 71.9149 67.8724 70.088L68.4343 65.1075C68.6867 62.87 70.0001 60.8905 71.9636 59.7882L76.3598 57.3203C77.9795 56.4111 78.3921 54.2634 77.2246 52.8187L74.0557 48.8975C72.6404 47.1462 72.154 44.8209 72.7486 42.6491L74.0722 37.815C74.5577 36.0418 73.3485 34.253 71.5221 34.0425L66.2759 33.4378C64.0834 33.1851 62.1384 31.9132 61.0279 30.0058ZM60.1144 24.4616C58.5887 21.841 55.1002 21.1708 52.712 23.0396L48.5767 26.2756C47.3351 27.2471 45.7081 27.5762 44.1866 27.1636L39.0898 25.7813C36.1325 24.9792 33.156 27.0016 32.8125 30.0465L32.2507 35.0269C32.0704 36.6252 31.1322 38.0391 29.7297 38.8264L25.3335 41.2943C22.634 42.8098 21.9463 46.3893 23.8922 48.7971L27.0611 52.7183C28.072 53.9692 28.4195 55.6301 27.9947 57.1814L26.6712 62.0155C25.862 64.9709 27.8772 67.9522 30.9212 68.303L36.1674 68.9077C37.7335 69.0882 39.1228 69.9967 39.916 71.3591L42.558 75.8971C44.0837 78.5177 47.5722 79.1878 49.9603 77.3191L54.0957 74.0831C55.3372 73.1115 56.9642 72.7825 58.4857 73.1951L63.5826 74.5774C66.5399 75.3794 69.5163 73.357 69.8598 70.3122L70.4217 65.3317C70.602 63.7335 71.5401 62.3195 72.9426 61.5322L77.3389 59.0643C80.0384 57.5489 80.726 53.9694 78.7801 51.5616L75.6113 47.6404C74.6003 46.3894 74.2529 44.7285 74.6776 43.1773L76.0012 38.3431C76.8103 35.3878 74.7951 32.4064 71.7511 32.0556L66.5049 31.451C64.9388 31.2705 63.5495 30.3619 62.7563 28.9995L60.1144 24.4616Z" fill="#222222"/>
<path fill-rule="evenodd" clip-rule="evenodd" d="M56.4641 51.4768C55.8963 53.1073 55.4274 54.784 54.7013 56.4823C54.4346 57.1007 54.1885 57.7551 53.6924 58.3901C53.5685 58.5301 53.4435 58.6701 53.3063 58.804C53.1324 58.9329 52.9963 59.0723 52.7791 59.1712C52.3802 59.4001 51.8452 59.4551 51.418 59.3657C50.9402 59.2707 50.6085 59.0273 50.3441 58.8173C50.0791 58.5973 49.8669 58.3684 49.6646 58.1384C48.8796 57.2146 48.2863 56.259 47.6602 55.3218C47.1119 54.4896 46.5319 53.6823 45.9213 52.934C45.5363 52.4496 45.1219 51.994 44.6985 51.5857C44.2774 51.1829 43.8285 50.8129 43.413 50.689C43.188 50.6373 43.0569 50.3323 43.4685 50.0212C43.6691 49.889 44.0341 49.7962 44.4074 49.8562C44.7846 49.9073 45.1908 50.0712 45.5108 50.3346C46.6513 51.2684 47.4524 52.3329 48.2119 53.4079C48.9685 54.4762 49.6535 55.5773 50.3708 56.5851C50.5846 56.8862 50.8196 57.1673 51.063 57.3979C51.2996 57.624 51.5774 57.8079 51.6846 57.7962C51.863 57.8196 51.928 57.799 52.1158 57.624C52.2858 57.4468 52.4702 57.1862 52.6213 56.8634C52.9724 56.1784 53.2408 55.3568 53.4985 54.5401L54.2702 52.0368C54.5863 50.999 54.9185 49.9573 55.2769 48.9201C55.8174 47.3484 56.4858 45.799 57.2802 44.3151C57.898 43.1657 58.5458 42.009 59.4808 41.0062C59.6813 40.7829 59.8952 40.574 60.1219 40.3679C61.0158 39.6551 61.4519 39.6373 61.8969 40.0101C62.0002 40.0962 62.1152 40.1757 62.1958 40.2746C62.4685 40.6218 62.263 41.1029 61.7852 41.5673C61.0713 42.2707 60.4496 43.0551 59.8813 43.9251C59.303 44.7857 58.7802 45.7334 58.3141 46.7384C57.6219 48.2318 57.0335 49.8368 56.5113 51.4884L56.4641 51.4768Z" fill="#222222"/>
<path fill-rule="evenodd" clip-rule="evenodd" d="M67.9072 28.3072C66.9416 28.3491 65.8306 28.436 65.1947 27.5534C64.1568 26.0289 64.7185 23.9717 64.1381 22.2903C64.0924 22.1432 64.2343 22.0185 64.461 22.03C65.7997 22.0415 65.5975 25.1367 65.7133 25.9486C65.9905 27.737 68.6752 27.0432 69.8529 27.1497C70.6579 27.2158 74.0792 27.4745 73.9806 28.8082C73.9554 29.127 73.7472 29.2397 73.4132 29.1775C71.579 28.7877 69.7704 28.2031 67.9072 28.3072Z" fill="#222222"/>
<path fill-rule="evenodd" clip-rule="evenodd" d="M33.5111 70.9235C34.3427 71.272 34.9598 71.619 35.4045 72.2446C36.341 73.4707 36.6634 74.9828 37.0626 76.4435C37.1968 76.9164 37.4069 77.624 37.3323 78.011C37.2578 78.398 36.4984 78.0464 36.312 77.5069C35.7125 75.6691 35.6215 72.9115 33.5251 72.0917C31.9316 71.4404 30.5329 71.8254 28.9348 72.0491C28.531 72.1052 28.3874 72.0523 28.2777 71.846C28.126 71.5696 28.2705 71.3911 28.569 71.2837C30.2693 70.6071 31.7263 70.1757 33.5111 70.9235Z" fill="#222222"/>
<rect x="1" y="1" width="98" height="98" rx="49" stroke="#222222" stroke-width="2"/>
</svg>
