<svg width="101" height="100" viewBox="0 0 101 100" fill="none" xmlns="http://www.w3.org/2000/svg">
<rect x="1.33325" y="1" width="98" height="98" rx="49" fill="#E0F3F2"/>
<path d="M24.9953 36.687C39.8128 34.1349 48.9968 23.15 49.9128 21.7163C52.0345 18.3957 54.6423 19.0666 56.9767 22.0067C62.4489 28.3532 69.6603 28.2365 73.833 28.2365C78.0056 28.2365 75.9893 34.8111 74.6644 39.5011C73.2052 44.6666 72.842 58.4927 71.7669 64.7898C70.6918 71.0868 64.2227 77.5687 59.8795 80.8254C58.6681 81.7338 58.1813 81.5737 56.6946 81.2191C52.5344 80.227 44.9922 77.9642 39.8644 73.4945C34.9548 69.2151 27.2733 50.5626 24.0463 41.7712C22.4887 37.9431 23.7955 36.8936 24.9953 36.687Z" fill="#0EAAA3"/>
<path fill-rule="evenodd" clip-rule="evenodd" d="M57.7401 21.3705C56.5206 19.8399 55.0669 18.6795 53.452 18.5191C51.7185 18.3469 50.2225 19.3481 49.0513 21.1804C48.9963 21.2664 48.766 21.5494 48.3072 22.0301C47.8713 22.4869 47.277 23.0732 46.5479 23.7466C45.0898 25.0934 43.1084 26.7738 40.8023 28.4493C36.1579 31.8239 30.3305 35.0795 24.8621 35.6916L24.8326 35.6949L24.8033 35.6999C23.882 35.8585 22.929 36.4721 22.527 37.7091C22.1491 38.8719 22.3117 40.4256 23.1234 42.4258C24.746 46.8428 27.4727 53.6491 30.4133 59.8967C31.8851 63.0238 33.4173 66.0256 34.8976 68.5234C36.3621 70.9947 37.8287 73.0654 39.1863 74.2482C44.5125 78.8888 52.2662 81.1948 56.4493 82.192C56.5121 82.207 56.575 82.2221 56.6379 82.2373C57.2456 82.3841 57.8557 82.5315 58.4431 82.4941C59.1818 82.4472 59.7947 82.1328 60.4727 81.6247C62.7004 79.955 65.466 77.4654 67.8202 74.5788C70.1617 71.7077 72.1712 68.3527 72.7511 64.9571C73.2151 62.2406 73.5474 58.1637 73.8845 54.0278C73.9449 53.2861 74.0055 52.5425 74.0671 51.8046C74.4781 46.8765 74.9287 42.2429 75.6261 39.7752C75.6743 39.6047 75.7237 39.4307 75.774 39.2536C76.4012 37.0456 77.1628 34.3645 77.308 32.179C77.3858 31.0084 77.3033 29.8041 76.7864 28.8591C76.5168 28.3662 76.1288 27.9443 75.6022 27.6532C75.0812 27.3651 74.4804 27.2359 73.8265 27.2359C73.77 27.2359 73.7131 27.2359 73.6558 27.2359C69.4497 27.237 62.8132 27.2387 57.7401 21.3705ZM53.2527 20.5166C52.5676 20.4485 51.6981 20.772 50.747 22.26C50.5729 22.5324 50.211 22.9458 49.7638 23.4144C49.2938 23.907 48.6686 24.5231 47.9141 25.2199C46.4051 26.6136 44.3631 28.3451 41.9862 30.0722C37.2739 33.4961 31.1116 37.0012 25.1211 37.6825C24.85 37.7356 24.5798 37.899 24.4402 38.3284C24.2735 38.8416 24.2528 39.867 24.9935 41.6866L25 41.7027L25.006 41.719C26.6121 46.0926 29.3198 52.8519 32.2338 59.0433C33.6911 62.1395 35.1932 65.079 36.6288 67.5015C38.0802 69.9507 39.4111 71.7794 40.5091 72.736C45.4417 77.0337 52.7768 79.2527 56.9166 80.2395C57.734 80.4344 58.0452 80.508 58.3152 80.4908C58.4947 80.4794 58.7311 80.4197 59.2649 80.0196C61.3817 78.4329 64.0239 76.0538 66.2602 73.3117C68.5092 70.5541 70.2729 67.5204 70.7684 64.6197C71.216 61.999 71.5395 58.0338 71.8777 53.888C71.9386 53.1416 72 52.3894 72.0626 51.6381C72.4671 46.7885 72.928 41.9275 73.6902 39.2303C73.7341 39.075 73.7785 38.9184 73.8232 38.7607C74.467 36.4902 75.1706 34.0085 75.301 32.0462C75.3714 30.9872 75.2583 30.2549 75.0209 29.8209C74.9133 29.6242 74.7844 29.4958 74.6276 29.4091C74.4652 29.3194 74.216 29.2432 73.8265 29.2432C73.7392 29.2432 73.6504 29.2433 73.5601 29.2434C69.3558 29.2465 61.8847 29.2521 56.203 22.6653L56.1897 22.6499L56.1771 22.634C55.0642 21.233 54.0507 20.5959 53.2527 20.5166Z" fill="#222222"/>
<path fill-rule="evenodd" clip-rule="evenodd" d="M45.9746 40.4873C48.556 38.5038 51.7603 37.5 54.3072 37.5C58.4651 37.5 61.2467 40.2483 62.1556 41.6761C62.4579 42.151 62.3223 42.7838 61.8528 43.0895C61.3833 43.3952 60.7577 43.2581 60.4554 42.7833C59.7911 41.7397 57.571 39.5453 54.3072 39.5453C52.2154 39.5453 49.4382 40.3944 47.1978 42.1159C44.9831 43.8176 43.3553 46.3167 43.3553 49.6366C43.3553 56.4259 48.7883 61.4547 55.5277 61.4547C58.7797 61.4547 60.8231 59.965 62.1009 58.09C63.4113 56.1673 63.92 53.8201 63.9571 52.2463C63.9704 51.6816 64.4337 51.2348 64.9919 51.2483C65.5501 51.2617 65.9919 51.7303 65.9786 52.2949C65.9343 54.1783 65.3444 56.9344 63.7658 59.2508C62.1546 61.615 59.5186 63.5 55.5277 63.5C47.7815 63.5 41.3333 57.6636 41.3333 49.6366C41.3333 45.5484 43.3676 42.4905 45.9746 40.4873ZM69.2154 39.9494C69.4768 40.4484 69.2887 41.0674 68.7953 41.3317C64.1867 43.8011 61.5898 47.6576 60.0059 50.8148C59.4097 52.0031 58.9704 53.0623 58.6089 53.9336C58.4861 54.2297 58.3722 54.5041 58.2643 54.7545C58.0721 55.2004 57.856 55.676 57.6123 55.9899C57.5049 56.1281 57.2418 56.4397 56.802 56.5283C56.2337 56.6429 55.8274 56.3234 55.6331 56.0901C55.0125 55.3446 53.773 54.126 52.6488 53.0603C52.0948 52.5351 51.5816 52.0591 51.2067 51.7142C51.0194 51.5419 50.8669 51.4025 50.7614 51.3064L50.6399 51.196L50.5988 51.1587C50.1824 50.7825 50.1459 50.1355 50.5179 49.7143C50.89 49.2932 51.5291 49.2568 51.9455 49.6331L51.2719 50.3957C51.9455 49.6331 51.9455 49.6331 51.9455 49.6331L51.99 49.6733L52.1146 49.7866C52.2223 49.8847 52.3773 50.0263 52.5674 50.2012C52.9474 50.5508 53.4683 51.034 54.0316 51.568C54.8161 52.3117 55.7093 53.1785 56.4163 53.9241C56.5078 53.7115 56.6097 53.4658 56.7231 53.1925C57.0873 52.3142 57.5696 51.1513 58.2027 49.8893C59.8845 46.5369 62.7268 42.2688 67.8487 39.5244C68.3421 39.26 68.954 39.4503 69.2154 39.9494Z" fill="#222222"/>
<path fill-rule="evenodd" clip-rule="evenodd" d="M51.5326 23.2316C52.0028 23.526 51.8158 23.9268 51.5326 24.4104C49.1179 28.5325 41.7778 36.7196 27.8333 40C27.2986 40.1258 26.2642 40.3745 26.1397 39.8225C26.0152 39.2705 26.3477 38.7211 26.8824 38.5953C40.2744 35.4449 48.0675 28.0864 50.2208 24.4104C50.5041 23.9268 51.0623 22.9372 51.5326 23.2316Z" fill="#222222"/>
<path fill-rule="evenodd" clip-rule="evenodd" d="M55.333 23.9843C54.9525 24.3842 55.4411 25.0856 55.8334 25.483C58.0518 27.7304 64.0552 31.6677 73.3328 31.5C73.8791 31.4901 74.1314 31.5236 74.1152 30.9599C74.099 30.3963 73.7014 30.3754 73.1551 30.3853C64.3328 31 58.1898 26.8808 56.3332 24.9999C55.9409 24.6025 55.7135 23.5845 55.333 23.9843Z" fill="#222222"/>
<rect x="1.33325" y="1" width="98" height="98" rx="49" stroke="#222222" stroke-width="2"/>
</svg>
