<svg width="101" height="100" viewBox="0 0 101 100" fill="none" xmlns="http://www.w3.org/2000/svg">
<rect x="1.66675" y="1" width="98" height="98" rx="49" fill="#E0F3F2"/>
<path d="M18.9299 37.4178C18.9299 36.5325 19.7046 36.0898 20.4792 36.0898C20.9956 36.0898 22.0285 36.3554 22.0285 37.4178C22.0285 38.7457 20.8665 39.1884 20.0919 39.1884C19.3172 39.1884 18.9299 38.3031 18.9299 37.4178Z" fill="#222222"/>
<path d="M62.3093 19.2706C62.3093 18.0902 63.6004 17.5 64.8914 17.5C65.7521 17.5 67.4735 17.8541 67.4735 19.2706C67.4735 21.0412 65.537 21.6314 64.2459 21.6314C62.9549 21.6314 62.3093 20.451 62.3093 19.2706Z" fill="#222222"/>
<path d="M71.605 27.9741C71.605 28.5643 72.1214 28.8594 72.6378 28.8594C72.9821 28.8594 73.6707 28.6823 73.6707 27.9741C73.6707 27.0888 72.896 26.7937 72.3796 26.7937C71.8632 26.7937 71.605 27.3839 71.605 27.9741Z" fill="#222222"/>
<path d="M40.0483 25.1635L51.907 23.0724L53.8091 29.9412C54.943 30.1002 56.0543 30.3483 57.1341 30.6793L61.7617 25.257L71.6256 32.1638L68.1144 38.3645C68.7989 39.2707 69.4155 40.2356 69.9552 41.2527L77.0543 40.6913L79.1453 52.55L72.2762 54.4523C72.1166 55.5871 71.8678 56.6992 71.5358 57.7797L76.9617 62.4103L70.0549 72.2743L63.8426 68.7565C62.9426 69.4354 61.9848 70.0473 60.9755 70.5836L61.5373 77.6887L49.6786 79.7797L47.7764 72.9109C46.6398 72.7516 45.5258 72.5027 44.4435 72.1705L39.8158 77.5929L29.9518 70.6861L33.4658 64.4806C32.7876 63.5819 32.1762 62.6257 31.6402 61.6181L24.529 62.1804L22.438 50.3217L29.3066 48.4196C29.4652 47.2838 29.7133 46.1707 30.0446 45.0891L24.6257 40.4644L31.5325 30.6005L37.7266 34.108C38.6314 33.4242 39.5947 32.808 40.6101 32.2686L40.0483 25.1635Z" fill="#0EAAA3"/>
<path fill-rule="evenodd" clip-rule="evenodd" d="M53.8091 29.9412L51.907 23.0724L40.0483 25.1635L40.6101 32.2686C39.5947 32.808 38.6314 33.4242 37.7266 34.108L31.5325 30.6005L24.6257 40.4644L30.0446 45.0891C29.7133 46.1707 29.4652 47.2838 29.3066 48.4196L22.438 50.3217L24.529 62.1804L31.6402 61.6181C32.1762 62.6257 32.7876 63.5819 33.4658 64.4806L29.9518 70.6861L39.8158 77.5929L44.4435 72.1705C45.5258 72.5027 46.6398 72.7516 47.7764 72.9109L49.6786 79.7797L61.5373 77.6887L60.9755 70.5836C61.9848 70.0473 62.9426 69.4354 63.8426 68.7565L70.0549 72.2743L76.9617 62.4103L71.5358 57.7797C71.8678 56.6992 72.1166 55.5871 72.2762 54.4523L79.1453 52.55L77.0543 40.6913L69.9552 41.2527C69.4155 40.2356 68.7989 39.2707 68.1144 38.3645L71.6256 32.1638L61.7617 25.257L57.1341 30.6793C56.0543 30.3483 54.943 30.1002 53.8091 29.9412ZM62.1144 28.0257L57.8251 33.0516L56.5287 32.6542C55.5521 32.3549 54.5474 32.1306 53.5223 31.9869L52.1801 31.7988L50.4172 25.4327L42.2555 26.8718L42.7762 33.4569L41.5792 34.0928C40.6613 34.5805 39.7904 35.1375 38.9721 35.7559L37.8895 36.5741L32.148 33.3229L27.3944 40.1117L32.4168 44.3979L32.0197 45.6941C31.7201 46.6723 31.4958 47.6787 31.3524 48.7054L31.1647 50.0484L24.7983 51.8115L26.2374 59.9731L32.8278 59.452L33.464 60.648C33.9485 61.5589 34.5013 62.4235 35.1147 63.2362L35.9315 64.3185L32.6742 70.0706L39.463 74.8242L43.7529 69.7976L45.0497 70.1957C46.0285 70.4962 47.0357 70.7212 48.0632 70.8652L49.4055 71.0534L51.1684 77.4194L59.3301 75.9803L58.8094 69.3952L60.0063 68.7593C60.9187 68.2746 61.7847 67.7213 62.5987 67.1074L63.6809 66.2911L69.4394 69.5519L74.1929 62.7631L69.1628 58.4701L69.5612 57.1731C69.8614 56.1959 70.0864 55.1904 70.2307 54.1645L70.4194 52.823L76.785 51.0602L75.3459 42.8986L68.7662 43.4189L68.1305 42.221C67.6426 41.3015 67.0851 40.4291 66.4661 39.6095L65.6485 38.5271L68.9032 32.7793L62.1144 28.0257Z" fill="#222222"/>
<path fill-rule="evenodd" clip-rule="evenodd" d="M51.8804 56.7025C54.7249 56.201 56.6242 53.4884 56.1226 50.6439C55.6211 47.7994 52.9085 45.9001 50.064 46.4017C47.2195 46.9032 45.3202 49.6158 45.8218 52.4603C46.3233 55.3048 49.0358 57.2041 51.8804 56.7025ZM52.2277 58.6722C56.16 57.9788 58.7856 54.2289 58.0923 50.2966C57.3989 46.3643 53.649 43.7387 49.7167 44.432C45.7844 45.1254 43.1588 48.8753 43.8521 52.8076C44.5455 56.7399 48.2954 59.3655 52.2277 58.6722Z" fill="#222222"/>
<path fill-rule="evenodd" clip-rule="evenodd" d="M55.1409 55.9121C57.2406 55.0191 57.9473 51.9548 56.7194 49.0677C55.4915 46.1807 52.794 44.5642 50.6943 45.4572C50.6166 45.4902 50.5409 45.5262 50.467 45.5651C51.5516 45.6802 52.4599 46.394 52.6763 47.4124C52.9534 48.7157 51.9924 50.0243 50.5298 50.3352C49.8117 50.4878 49.1062 50.3716 48.5413 50.0594C48.6088 50.7914 48.7972 51.5524 49.1158 52.3016C50.3437 55.1886 53.0412 56.8051 55.1409 55.9121Z" fill="#222222"/>
<rect x="1.66675" y="1" width="98" height="98" rx="49" stroke="#222222" stroke-width="2"/>
</svg>
