<svg width="70" height="70" viewBox="0 0 70 70" fill="none" xmlns="http://www.w3.org/2000/svg">
<g clip-path="url(#clip0_7439_3952)">
<rect width="70" height="70" rx="35" fill="#0EAAA3"/>
<path fill-rule="evenodd" clip-rule="evenodd" d="M58.013 78.9795C57.7504 77.5095 57.5097 76.0354 57.291 74.5583C57.1871 73.8569 57.0858 73.155 56.9948 72.4519C56.931 71.9592 56.8339 71.3959 57.1719 71.0311C57.6477 70.5175 58.0798 70.078 58.1381 69.3424C58.1928 68.6503 57.9568 67.8958 57.8092 67.224C57.4996 65.8152 57.1142 64.4237 56.6884 63.0455C56.2558 61.6452 55.7815 60.2581 55.3003 58.8736C54.8504 57.5792 54.4179 56.2731 53.832 55.0312C52.72 52.6744 50.8387 50.929 48.5137 49.7636C47.9354 49.4737 46.756 48.4391 46.1519 48.2074C45.5965 47.9944 45.5985 48.6164 45.0519 48.3821C44.6149 48.1948 44.2081 47.9451 43.9634 47.5268C43.6978 47.0727 43.0316 46.4375 42.9302 45.9088C42.7153 44.7883 42.9481 43.8345 42.1413 42.9911C41.4252 42.2422 40.4626 41.7292 39.4666 41.4538C37.2755 40.8479 34.3534 41.2715 33.0315 43.2899C32.4001 44.2538 32.1794 45.4189 31.3274 46.2056C30.5835 46.8925 30.75 47.3621 29.7864 47.7161C29.7318 47.7362 28.2526 47.4217 28.198 47.4418C27.1439 47.2181 26.1364 47.8441 25.1694 48.2074C23.7276 48.7489 22.3549 49.4537 21.0654 50.2913C18.465 51.9804 16.2378 54.1737 14.4017 56.6557C12.5504 59.1581 11.114 61.963 10.0912 64.8944C9.84282 65.6065 9.61971 66.3272 9.42292 67.055C9.31277 67.4622 9.19506 67.8847 9.32918 68.3017C9.43888 68.6428 9.6829 68.8968 9.96945 69.1015C10.3579 69.379 11.137 69.5593 11.1219 70.1174C11.1103 70.5417 10.9651 70.9883 10.8942 71.4076C10.8098 71.9069 10.7405 72.4092 10.6712 72.9107C10.3559 75.1936 10.1105 77.4893 10.002 79.7916C9.89519 82.0584 9.80653 84.3716 9.96515 86.6378C9.97564 86.7873 10.0206 86.9244 10.0931 87.0404C10.0254 87.066 10.0202 87.1911 10.1044 87.2088C10.1634 87.2212 10.2223 87.2336 10.2813 87.246C10.4039 87.338 10.5568 87.3944 10.7328 87.3999C10.852 87.4036 10.9713 87.4089 11.0904 87.415C12.3477 87.6755 13.6048 87.9217 14.8785 88.108C16.4267 88.3345 17.9796 88.5192 19.5372 88.6694C22.7379 88.9779 25.9134 88.8756 29.1183 88.7093C32.3183 88.5432 35.5164 88.5044 38.7197 88.587C41.9258 88.6697 45.1307 88.808 48.3375 88.8646C51.9202 88.9277 55.4974 88.8307 59.0698 88.5483C59.5596 88.5097 59.8626 88.1234 59.766 87.6411C59.1872 84.7516 58.5313 81.8815 58.013 78.9795Z" fill="white"/>
<path fill-rule="evenodd" clip-rule="evenodd" d="M27.1983 47.3746C27.5296 47.3603 27.8674 47.4135 28.1979 47.4457C28.2267 47.4485 28.2377 47.4925 28.2052 47.4992C27.6137 47.6217 27.0287 47.7893 26.4477 47.9595L26.199 48.0325C25.5438 48.2246 24.9079 48.4228 24.2737 48.6791C23.0097 49.1898 21.8092 49.8791 20.7044 50.671C16.4499 53.7205 13.3707 58.3376 11.4275 63.1178C10.8998 64.416 10.4527 65.7464 10.0905 67.0993C10.0025 67.4284 9.9196 67.7589 9.84104 68.0904C9.81798 68.1876 9.71747 68.4365 9.77258 68.5359C9.8213 68.6238 10.0107 68.6781 10.0987 68.7238L10.3959 68.8766C10.9754 69.1727 11.9408 69.6594 12.0376 69.7069L12.1886 69.7806C14.6581 70.9808 17.2968 71.9985 20.0758 72.069L20.0975 71.8337C20.2214 70.533 20.384 69.2254 20.7389 67.9647C20.758 67.897 20.845 67.9198 20.8529 67.98C21.0506 69.4725 20.9874 70.9766 20.9184 72.476C20.7963 75.1317 20.6341 77.7858 20.4899 80.4404C20.4178 81.7683 20.3245 83.0954 20.2403 84.4226C20.1559 85.7525 20.1286 87.1143 19.936 88.4332C19.8931 88.7272 19.5457 88.8871 19.2827 88.8561C18.9916 88.8217 18.7677 88.5676 18.7664 88.2763C18.7629 87.5079 18.8602 86.7305 18.9144 85.9641C18.9658 85.2359 19.0209 84.5081 19.0775 83.7803C19.2841 81.1241 19.5218 78.471 19.7417 75.8159C19.8196 74.8742 19.9037 73.9334 19.9904 72.9926C17.0465 72.8985 14.2962 71.8175 11.6724 70.5545C11.6344 71.4093 11.5427 72.2626 11.4539 73.1139C11.2061 75.4895 10.9875 77.8642 10.8239 80.2472C10.7414 81.4507 10.6812 82.6558 10.6289 83.861C10.6031 84.4533 10.5821 85.0457 10.5661 85.6384C10.5607 85.8359 10.5558 86.0335 10.5515 86.231L10.5426 86.6836C10.5352 86.9704 10.5058 87.236 10.2624 87.4448C10.0152 87.6568 9.68131 87.6681 9.43664 87.4448C9.10912 87.1458 9.16703 86.7384 9.17673 86.3369C9.18481 85.9981 9.19452 85.6595 9.20579 85.3209C9.22839 84.6437 9.25725 83.9666 9.29236 83.2899C9.41522 80.924 9.66071 78.5675 9.98153 76.2205L10.1068 75.3145C10.3406 73.6303 10.5974 71.9077 11.1202 70.2853C10.9166 70.1849 10.7137 70.0839 10.5115 69.9824C10.1528 69.8023 9.78196 69.6334 9.43332 69.4347C9.15674 69.277 8.91819 69.0608 8.84119 68.7417C8.75532 68.3862 8.88663 67.9974 8.97387 67.6506L8.98144 67.6201C9.06697 67.2709 9.15908 66.9232 9.25627 66.577C9.65037 65.1731 10.1377 63.7966 10.708 62.4536C11.8499 59.7651 13.3239 57.2109 15.1243 54.9015C16.7449 52.8227 18.6594 50.9375 20.9033 49.5236C22.0002 48.8323 23.1693 48.2647 24.4056 47.8635C24.9834 47.6759 25.6122 47.5128 26.2172 47.4456C26.5436 47.4095 26.8704 47.3887 27.1983 47.3746ZM33.0683 43.1128C33.4621 42.6937 34.2443 43.1274 34.0552 43.6824C33.6106 44.9882 32.9025 46.1792 31.7975 47.0372C30.7587 47.8438 29.5201 48.3676 28.1861 48.2558C28.1758 48.2549 28.1669 48.2523 28.159 48.2486L28.274 48.4032C29.1765 49.6135 30.1286 50.8071 31.2761 51.7963C33.6142 53.8119 36.7977 54.899 39.8717 54.1257C42.2902 53.5173 44.421 51.6213 45.0476 49.205C44.9578 49.2449 44.851 49.2585 44.7338 49.2333C44.2325 49.1254 43.7361 48.6026 43.4127 48.2278C43.0629 47.8223 42.7897 47.3844 42.5895 46.8895C42.223 45.9837 42.1055 44.8175 42.6059 43.94C42.6676 43.8319 42.81 43.8925 42.8222 43.9981L42.8412 44.1629C42.9377 44.9852 43.0578 45.7807 43.4489 46.5303C43.6403 46.8971 43.8697 47.2552 44.149 47.5624C44.2984 47.7267 44.4604 47.8838 44.6353 48.0216C44.8058 48.1558 45.0121 48.2529 45.1648 48.407L45.1928 48.4366L45.1936 48.4313C45.2322 48.1057 45.4625 47.9623 45.6878 47.9713C45.9059 47.98 46.162 48.0751 46.2612 48.1207L46.2706 48.1251C47.7917 48.849 49.1928 49.7926 50.5112 50.8394C53.2377 53.0044 55.2806 55.8346 56.2704 59.1674C56.7562 60.8031 57.035 62.4885 57.3293 64.1661L57.5104 65.194C57.7851 66.7427 58.0919 68.3219 58.7119 69.7626C58.8723 70.1353 58.7486 70.4848 58.3554 70.6313C57.8643 70.8143 57.3715 70.9915 56.8779 71.1665C57.1202 72.1974 57.268 73.264 57.4497 74.3C57.8357 76.5021 58.3087 78.6901 58.7142 80.8893C58.9216 82.0137 59.1087 83.1419 59.3158 84.2665C59.4155 84.8081 59.5196 85.3488 59.6209 85.8901C59.6754 86.182 59.7248 86.4748 59.7769 86.7671L59.7859 86.8156C59.8158 86.9698 59.8532 87.1293 59.8104 87.2836C59.7616 87.4596 59.6231 87.5839 59.4994 87.7101C59.3976 87.814 59.2504 87.8147 59.1257 87.758L59.0846 87.7392C58.8618 87.6358 58.6873 87.5328 58.6083 87.2836C58.5582 87.1259 58.5402 86.9481 58.5075 86.7856C58.4448 86.474 58.3853 86.162 58.3291 85.8491C58.2168 85.2232 58.1071 84.5968 58 83.9698L57.9 83.3828C57.5567 81.3596 57.2307 79.3241 57.0659 77.2795C56.9927 76.3724 56.9152 75.4661 56.837 74.5597L56.7783 73.8798C56.7041 73.0193 56.6133 72.137 56.6005 71.2649L56.3053 71.3688L54.865 71.8735C54.5079 71.9986 54.0532 72.255 53.6689 72.2084C53.4808 72.1855 53.3373 72.1268 53.2266 72.0201C53.3592 73.8757 53.5387 75.728 53.778 77.5709C53.9957 79.2478 54.237 80.9224 54.5221 82.5894C54.6633 83.4148 54.8083 84.2395 54.9659 85.062C55.0447 85.4733 55.126 85.884 55.2097 86.2943C55.2515 86.4991 55.3012 86.704 55.3338 86.9104C55.371 87.1467 55.3054 87.2922 55.1721 87.4866C55.0628 87.6463 54.844 87.7283 54.6666 87.6181C54.4317 87.4719 54.3092 87.3454 54.24 87.0792C54.1772 86.8375 54.1391 86.5851 54.0905 86.3403C54.0008 85.8884 53.9141 85.436 53.8304 84.9829C53.6553 84.0354 53.494 83.0855 53.3499 82.1329C52.8421 78.7767 52.5199 75.3925 52.3572 72.0028C52.2769 70.3304 52.2521 68.6565 52.2663 66.9824C52.2736 66.1242 52.3019 65.2637 52.3631 64.4077C52.4252 63.5412 52.5541 62.6921 52.6693 61.8339C52.6733 61.8037 52.7163 61.802 52.7182 61.8339C52.7727 62.796 52.8581 63.757 52.9 64.7216C52.94 65.6421 52.9575 66.564 52.9893 67.4847C53.0311 68.6951 53.089 69.9061 53.1657 71.1164C53.3045 70.9658 53.5137 70.879 53.7231 70.9129C54.0264 70.8498 54.3529 70.6921 54.642 70.5963L55.7321 70.2353C56.3051 70.0456 56.8782 69.8571 57.4532 69.6744C56.9391 67.9596 56.5869 66.2192 56.2862 64.4535L56.152 63.6594C55.8865 62.0963 55.6003 60.5325 55.1194 59.0188C54.6138 57.4275 53.8573 55.948 52.8536 54.6082C51.8644 53.2877 50.6607 52.125 49.4215 51.0375C48.3606 50.1065 47.2256 49.266 46.1435 48.3606C46.1548 48.4206 46.1572 48.4866 46.1473 48.5592C45.9172 50.2286 45.0388 51.7832 43.8146 52.9395C41.3552 55.2625 37.7147 55.7444 34.5669 54.6551C31.522 53.6014 28.83 51.106 27.8788 48.018C27.8626 47.9651 27.9339 47.9442 27.9626 47.983C28.0154 48.0546 28.0684 48.1263 28.1215 48.198C28.1179 48.1695 28.1328 48.1385 28.1683 48.125C29.278 47.7002 30.3677 47.0977 31.1996 46.2455C31.605 45.83 31.9589 45.3594 32.2382 44.8518C32.372 44.6086 32.4922 44.3568 32.5881 44.0966L32.6124 44.0293C32.7286 43.7034 32.8258 43.3711 33.0683 43.1128Z" fill="#222222"/>
<path fill-rule="evenodd" clip-rule="evenodd" d="M48.1262 29.3653C47.9714 27.3799 48.2113 25.2989 47.4391 23.4117C46.0928 20.2806 42.3175 19.2366 39.3906 18.0445C38.2181 17.7011 34.2726 17.6531 32.8997 17.1985C29.7924 16.1696 29.0501 14.9437 26.5811 16.9027C26.1643 17.2374 25.9035 17.6011 25.7133 18.098L25.7211 18.1001C25.6668 18.3073 25.7251 18.514 25.8475 18.6719C24.7769 19.7567 24.329 21.3831 24.8782 22.8271C26.6707 26.5849 26.5864 28.6168 26.0089 32.6566C25.2547 36.428 26.9781 37.8057 29.8323 39.8578C29.7161 40.0812 29.692 40.378 29.8435 40.5751C33.144 45.1731 39.3671 47.3684 44.6991 45.0347C46.8634 44.0797 47.8296 41.7947 48.381 39.7328C49.0234 37.4242 49.2208 34.9915 48.6978 32.6398C48.4869 31.5521 48.2121 30.4724 48.1262 29.3653Z" fill="white"/>
<path fill-rule="evenodd" clip-rule="evenodd" d="M29.0883 7.36439C29.4889 7.30475 29.7915 7.55116 29.9354 7.89848L29.9429 7.91718C29.9892 8.03536 30.0406 8.15032 30.096 8.26333C31.0985 7.77576 32.529 7.90104 33.1635 8.88846C33.6162 9.59366 33.34 10.4306 33.1694 11.1784L33.0573 11.6712C33.2739 11.8078 33.4372 12.0525 33.4295 12.3059L33.4286 12.3254L33.383 13.0125C33.5276 12.8672 33.6599 12.709 33.7778 12.5404C33.8592 12.3925 33.9471 12.2472 34.0416 12.1064C34.5972 11.2779 35.8447 11.9979 35.3861 12.8853C35.2982 13.0564 35.1991 13.2185 35.093 13.3748C34.9731 13.6053 34.8747 13.8423 34.7992 14.0858C35.0161 14.1794 35.1829 14.3874 35.2005 14.7012C35.2415 15.4342 34.8533 16.0458 34.2357 16.43C34.054 16.543 33.8664 16.565 33.6963 16.523C33.6664 16.5631 33.6364 16.6031 33.6078 16.6438C33.854 16.842 34.0761 17.0681 34.267 17.3186C34.8415 17.2334 35.4193 17.1933 35.9971 17.1921C36.7033 16.8491 37.5488 16.8562 38.3077 16.9848C38.7962 17.0674 39.2652 17.2282 39.746 17.3438C40.2528 17.4652 40.7674 17.4697 41.28 17.5524C41.9262 17.6564 42.493 17.9522 42.8493 18.4242C43.2408 18.4359 43.6525 18.5947 43.9938 18.8104C44.7885 19.3128 45.5787 19.8224 46.3715 20.328C46.6757 20.5222 46.7895 20.8321 46.7335 21.1777L46.7297 21.1998L46.703 21.3432L46.7657 21.4315C47.0084 21.7711 47.2723 22.1269 47.4293 22.5018C47.7199 22.917 47.9824 23.3523 48.2149 23.8011C48.5283 24.4043 48.7869 25.0436 48.9621 25.6997C49.0058 25.8657 49.0494 26.033 49.0781 26.2022C49.1191 26.4411 49.0559 26.6264 49.0214 26.8557C48.9784 27.1463 48.9628 27.4408 48.9172 27.732C48.8865 27.9251 48.7211 28.0201 48.5478 28.0252C48.613 28.5167 48.6599 29.0114 48.7048 29.5022C48.768 30.2035 48.811 30.9068 48.8481 31.61C49.0396 31.8858 49.4311 32.1041 49.7138 32.1796C50.1053 32.2836 50.5157 32.1706 50.8857 32.0382C51.1183 31.9549 51.3091 32.2448 51.1958 32.4386C50.8395 33.0469 50.0773 33.0443 49.5002 32.775C49.2559 32.6614 49.0416 32.4967 48.8826 32.2823C48.8924 32.4864 48.9028 32.6904 48.9133 32.8951L48.923 33.0806C49.0403 35.246 49.2937 37.486 48.8833 39.6301C48.1726 43.3441 45.0724 46.172 41.2853 46.3916C39.2979 46.5068 37.643 45.9249 36.8201 45.6003C35.9971 45.2756 36.317 44.6138 36.8883 44.803C37.8724 45.1289 39.6803 45.6145 41.2983 45.4048C45.1116 44.9106 48.3452 43.0211 48.013 34.8829C47.9659 33.7288 47.8208 32.5742 47.7896 31.4202C47.7596 30.292 47.7707 29.1631 47.7205 28.0356L47.7038 27.6508C47.6842 27.2013 47.6633 26.7497 47.6293 26.2997C47.5883 26.1253 47.5544 25.9484 47.5043 25.7772C47.3681 25.3116 47.1903 24.8589 46.9694 24.4269C46.9206 24.4637 46.8659 24.4902 46.8066 24.5005C46.3565 24.5806 45.9344 24.558 45.5129 24.372C45.3162 24.2861 45.1429 24.1718 44.9814 24.0304C44.9045 23.9638 44.853 23.8993 44.8126 23.8321C44.6087 23.8353 44.4049 23.7746 44.2772 23.6293C44.1316 23.4637 44.1073 23.2926 44.1644 23.1343L44.1703 23.1185L44.156 23.1133C43.984 23.5544 43.6414 23.9425 43.2655 24.2047C42.6715 24.6206 41.9282 24.7407 41.2156 24.7517C40.4287 24.7633 39.5988 24.6432 38.8223 24.5205C38.6171 24.4882 38.4132 24.4514 38.2132 24.4017C38.2054 24.4094 38.1976 24.4185 38.1891 24.4262C37.5227 25.0585 36.5853 25.2212 35.7398 24.8602C35.2513 24.6516 34.8415 24.3158 34.4793 23.9309C34.4741 24.1324 34.4637 24.3339 34.4461 24.5334L34.4388 24.6127C34.4028 24.9843 34.3334 25.3786 34.0501 25.6468C33.5921 26.0814 32.9277 25.907 32.3994 25.6242C32.4 25.6377 32.4 25.6519 32.4 25.6661C32.5427 26.1466 32.686 26.6277 32.8293 27.1088L32.8602 27.2113C32.9644 27.553 33.0787 27.895 33.1101 28.2525C33.17 28.9358 32.7114 29.6106 31.9454 29.3814C31.5435 29.2616 31.2216 28.9266 30.9127 28.6583L30.7181 28.4915C31.2216 30.1234 31.5708 31.8134 31.6034 33.5164C31.6053 33.6087 31.5252 33.6785 31.4366 33.6817C31.2295 33.6901 31.0067 33.6494 30.7982 33.5674C30.7865 33.5668 30.7748 33.5661 30.7624 33.5642C30.4067 33.5132 30.0765 33.3859 29.7853 33.198C29.8524 33.4092 29.8824 33.6359 29.8648 33.8729C29.8602 33.9304 29.7697 33.9504 29.7566 33.8871C29.5886 33.0676 28.6212 32.4483 27.7874 32.6052C26.8924 32.7737 26.2332 33.5371 26.0716 34.4057C25.8983 35.3388 26.2299 36.4179 26.8442 37.138C27.1269 37.4699 27.4988 37.747 27.9405 37.8167C28.1424 37.8484 28.3522 37.8374 28.5483 37.7806C28.6316 37.756 28.7098 37.7218 28.7893 37.6895C28.9052 37.643 29.0407 37.6359 29.1502 37.5868C29.3984 37.4764 29.6478 37.7031 29.5221 37.9556C29.4127 38.1758 29.3143 38.3243 29.1326 38.438C29.2798 38.6162 29.4133 38.8642 29.4628 38.9307C29.7156 39.2691 29.9722 39.5888 30.2602 39.8981C30.5533 40.212 30.8731 40.4987 31.2112 40.7641L31.3533 40.8754C31.679 41.1315 31.9625 41.3687 32.1922 41.736C32.3733 42.026 32.1388 42.4193 31.7994 42.4148C30.7376 42.3999 29.9657 41.4751 29.4159 40.6673C29.3378 40.5517 29.2642 40.4296 29.1958 40.3043C29.171 40.3437 29.1437 40.3805 29.113 40.4141L29.1736 40.5756C29.3534 41.0509 28.5789 41.3615 28.3541 40.9178C28.1906 40.5962 28.0011 40.2901 27.79 40.0008C27.6656 39.9834 27.5438 39.9085 27.476 39.8116C27.3047 39.5655 27.1126 39.3169 26.9504 39.0547C26.8605 38.9701 26.768 38.8887 26.6735 38.8093C26.6462 38.8332 26.6181 38.8571 26.5914 38.8823C26.4729 39.1503 26.3263 39.395 26.1446 39.6256L26.1056 39.6748C25.7574 40.1098 25.3039 40.555 24.7427 40.6614C24.5714 40.6937 24.4066 40.4826 24.5584 40.3476C24.9512 39.9976 25.4156 39.7593 25.7778 39.3686C25.9563 39.1761 26.1201 38.9641 26.261 38.7419L26.2931 38.6905C26.3165 38.6524 26.3406 38.6143 26.3654 38.5755C26.2019 38.4651 26.0384 38.354 25.8749 38.243C25.4248 38.6242 24.8386 38.7986 24.3408 39.1144L24.2913 39.1464C23.8412 39.4448 23.367 38.7848 23.7278 38.4225C24.1257 38.0246 24.4577 37.5501 24.8102 37.1079C24.6444 36.8053 24.566 36.4475 24.5366 36.0858C24.525 35.9835 24.516 35.881 24.5069 35.7786C24.2542 35.7825 24.0001 35.6966 23.7852 35.5487L23.7037 35.4912C23.4425 35.5739 23.1683 35.6139 22.9058 35.6068C22.2882 35.5887 22.0355 34.8894 22.4218 34.447C22.8159 33.9949 23.5057 33.8961 24.0522 34.1157C24.0698 34.1067 24.0881 34.097 24.1057 34.0873C24.0796 33.9685 24.0854 33.8607 24.115 33.766L24.1064 33.7083C23.9863 33.5254 23.9072 33.3167 23.8773 33.0962C23.8536 32.9215 23.8584 32.7484 23.8992 32.5759C23.9127 32.5185 23.9409 32.459 23.9625 32.3991C23.9181 32.2879 23.8919 32.173 23.8839 32.0574C23.8714 32.0427 23.859 32.0277 23.8473 32.0114C23.5761 31.6339 23.6309 31.1791 23.889 30.8736C23.8902 30.8542 23.892 30.8347 23.8947 30.8154C23.8796 30.7817 23.8657 30.7477 23.853 30.7133C23.6009 30.4611 23.4158 30.1576 23.4503 29.7816C23.4705 29.5603 23.5623 29.3612 23.7011 29.2123C23.6764 29.1401 23.6741 29.0565 23.7039 28.9867C23.4824 28.4025 23.5104 27.6989 23.6699 27.0456C23.6347 26.9461 23.6165 26.8383 23.6204 26.724C23.6386 26.239 24.062 25.7934 24.5636 25.7992C24.624 25.7997 24.6805 25.8075 24.7349 25.8189L24.7356 25.8074C24.7548 25.6618 24.7952 25.5273 24.8541 25.4066C24.8251 25.3962 24.7983 25.3813 24.7748 25.3615C24.4534 25.5314 24.1133 25.6614 23.7567 25.7499C23.4945 25.815 23.2259 25.5195 23.3889 25.2756C23.4645 25.1624 23.548 25.0607 23.6379 24.9678C23.5101 24.9686 23.3803 24.9771 23.2491 24.9939C23.0132 25.0242 22.7501 24.8647 22.597 24.649C22.4068 24.8324 22.2159 25.0152 22.0251 25.1979C21.5417 25.6623 20.8115 25.3206 20.7353 24.7084C20.5913 24.6703 20.4571 24.6058 20.3392 24.5134C19.5771 24.8415 18.7569 25.0216 17.9186 25.0559C17.3167 25.0804 16.9649 24.3855 17.2463 23.8947C17.4352 23.5654 17.6697 23.2696 17.9401 23.0126C17.5206 23.1398 17.0874 23.2315 16.6451 23.2903C16.406 23.3219 16.0679 23.1256 15.9722 22.908C15.6061 22.071 15.6373 21.1986 16.0588 20.3842C16.0751 20.3519 16.0933 20.3209 16.1109 20.2899C16.1546 20.1821 16.2021 20.0755 16.2536 19.9709C15.7351 19.4349 15.6901 18.638 15.9696 17.9709C15.8575 17.7907 15.8145 17.5737 15.8907 17.3774C16.1077 16.8123 16.4203 16.2905 16.8151 15.8423C16.7773 15.77 16.7441 15.6932 16.7161 15.6105C16.494 14.9421 16.7513 14.1355 17.2704 13.6699C17.5968 13.3767 17.972 13.2011 18.3726 13.0887C18.5413 12.7929 18.7582 12.5262 19.011 12.3015C19.0208 12.2802 19.0305 12.2588 19.0416 12.2375C19.4351 11.5026 20.1516 11.1087 20.9196 11.0176C20.9496 10.7303 21.145 10.4558 21.429 10.3667C21.5072 10.118 21.6238 9.88039 21.784 9.6647C22.0361 9.32501 22.455 9.16485 22.8497 9.38765C23.066 9.50971 23.2732 9.64985 23.4673 9.80484C23.5545 9.7643 23.6533 9.73807 23.7648 9.7297L23.793 9.72799L24.4353 9.6957C24.7043 9.57752 24.9727 9.45352 25.2417 9.33276C25.4033 9.20037 25.5837 9.08994 25.7804 9.00793C26.0032 8.91558 26.2312 8.86327 26.4599 8.84583C26.6455 8.78577 26.8325 8.73282 27.0227 8.69149C27.4695 8.59462 27.9372 8.54037 28.401 8.54489C28.4105 8.42588 28.4152 8.30545 28.4143 8.18359L28.4134 8.12255C28.403 7.73184 28.7176 7.41992 29.0883 7.36439ZM28.6381 38.6245C28.5742 38.6381 28.5097 38.6491 28.4452 38.6568C28.4648 38.7046 28.4843 38.7524 28.5032 38.8002C28.5553 38.8292 28.6081 38.857 28.6609 38.8828C28.6452 38.795 28.6361 38.7065 28.6381 38.6245ZM25.2914 37.6371L25.2481 37.7161C25.2411 37.7291 25.2342 37.7419 25.2274 37.7544C25.3192 37.7473 25.4117 37.7493 25.5029 37.7596L25.5027 37.75C25.4909 37.746 25.4792 37.7424 25.468 37.737C25.4051 37.707 25.3466 37.6734 25.2914 37.6371ZM27.1002 34.0316C27.6765 34.0649 28.1648 34.1525 28.6889 34.4024L28.7339 34.4243C29.1971 34.6522 29.9631 35.0733 29.8986 35.6771C29.8804 35.8489 29.7547 36.0297 29.5567 36.0161C29.014 35.9793 28.704 35.4369 28.3366 35.0985C27.9659 34.7575 27.5106 34.4068 27.0618 34.1724C26.9983 34.1394 27.0233 34.0349 27.0923 34.0316L27.1002 34.0316ZM24.4866 26.0746C24.3485 26.0792 24.3948 26.2122 24.4658 26.1011C24.4717 26.0921 24.4788 26.083 24.4866 26.0746ZM31.9411 17.1937C30.6332 17.2278 29.3169 17.9934 28.3371 18.7672C27.4848 19.4405 26.7487 20.2412 26.097 21.1043C25.9293 21.5342 25.7854 21.973 25.6637 22.415C25.5836 22.7069 25.5335 23.0021 25.4664 23.2965L25.4455 23.3868C25.3928 23.4845 25.3537 23.5895 25.3251 23.6981C25.4439 23.8161 25.5979 23.9007 25.7676 23.9408C25.8222 23.9537 25.8676 23.9817 25.9035 24.0187C26.0401 23.7928 26.1594 23.5544 26.2288 23.3016L26.2314 23.29C26.4938 22.8638 26.7789 22.4509 27.0845 22.0521C27.9274 20.951 28.8556 19.9475 29.9715 19.1125C30.8177 18.4796 31.7635 17.9836 32.7693 17.6614C32.5231 17.4645 32.2436 17.3087 31.9411 17.1937Z" fill="#222222"/>
<path fill-rule="evenodd" clip-rule="evenodd" d="M42.1388 41.1923C41.7009 41.0152 41.3102 40.7198 41.0246 40.3424C40.9253 40.2112 40.8995 40.0727 40.9204 39.946C40.9438 39.8035 41.0288 39.6744 41.1448 39.5877C41.2611 39.5009 41.4066 39.458 41.5472 39.4799C41.6694 39.4988 41.7911 39.5652 41.8874 39.7028L41.9075 39.7303C42.0773 39.9581 42.2986 40.1449 42.5508 40.2654C42.7938 40.3815 43.0656 40.4357 43.3469 40.4042C43.8826 40.3442 44.2518 40.057 44.6443 39.6669C44.6929 39.6177 44.7416 39.5669 44.7905 39.5153C44.8214 39.4685 44.8643 39.4384 44.9119 39.4227C44.9647 39.4052 45.0245 39.4061 45.0793 39.4251C45.1321 39.4434 45.1793 39.478 45.2109 39.5241C45.241 39.5679 45.2581 39.622 45.2526 39.6842C45.2166 40.0884 45.0035 40.4491 44.7007 40.7324C44.3644 41.047 43.9186 41.2646 43.4989 41.341C43.0366 41.425 42.5654 41.3648 42.1388 41.1923ZM43.717 34.9562C44.2089 35.2526 44.9584 35.9438 44.4292 36.6787C43.8063 37.3267 42.9095 36.5837 42.4675 36.2477C42.0578 35.9873 41.5973 36.6571 41.9775 36.9611C45.171 39.305 46.467 35.0337 43.9658 34.6077C43.6904 34.5608 43.5881 34.8645 43.717 34.9562ZM37.9943 32.2317C38.0486 31.5629 39.0761 31.411 39.1783 32.0728C39.2698 32.6656 39.1621 33.2102 38.8927 33.744C38.6354 34.2539 37.9885 34.016 37.9395 33.5517C37.874 32.9293 37.9605 32.6477 37.9943 32.2317ZM45.8153 31.9352C45.9586 31.7492 46.1654 31.6223 46.4132 31.694C47.1874 31.9183 46.9592 33.008 46.6873 33.5383C46.5396 33.8264 46.062 33.8994 45.8462 33.6458C45.4944 33.2322 45.326 32.4063 45.7732 31.999C45.7853 31.9779 45.7988 31.9567 45.8153 31.9352ZM38.8818 29.3056L39.0041 29.2844C39.3824 29.2195 39.8529 29.1572 40.1205 29.4587C40.2624 29.6186 40.3113 29.9158 40.1205 30.0689C39.7849 30.3381 39.4138 30.2338 39.0117 30.2566C38.6802 30.2754 38.3617 30.3298 38.0424 30.4203C37.342 30.6187 36.7713 30.981 36.1731 31.3788C36.0946 31.431 36.0145 31.3315 36.052 31.2587C36.3973 30.5882 37.0665 30.0374 37.7368 29.7017C38.0945 29.5224 38.486 29.3738 38.8818 29.3056ZM45.1097 29.0038L45.2033 29.0227C46.2219 29.2338 47.5453 29.6555 48.0277 30.6474C48.0461 30.7877 48.0266 30.8177 48.0109 30.8374L48.0056 30.8439C47.9926 30.8607 47.9822 30.8838 47.9209 30.9029C47.9039 30.8988 47.8867 30.8946 47.8693 30.8901C47.6482 30.8326 47.4733 30.7535 47.3039 30.6714L47.1203 30.5817C46.9072 30.4781 46.6923 30.3783 46.4645 30.3047C45.9784 30.1475 45.4784 30.0368 44.9707 29.9776C44.8607 29.9648 44.7547 29.928 44.6711 29.8649C44.5917 29.805 44.5311 29.7221 44.5035 29.6118C44.4677 29.4692 44.478 29.3612 44.5552 29.2325C44.6132 29.1358 44.6963 29.0688 44.7917 29.0304C44.8889 28.9911 44.9996 28.9819 45.1097 29.0038Z" fill="#222222"/>
<path fill-rule="evenodd" clip-rule="evenodd" d="M45.0966 42.1915C44.4899 41.6557 43.8099 40.5785 42.9384 41.4308C42.7229 41.6716 42.6356 42.2115 42.306 42.3174C41.8682 42.4582 41.4344 41.999 41.2852 41.6464C40.6748 39.6873 43.198 39.1499 44.6354 39.4664C45.3376 39.7523 45.8548 40.9031 45.8861 41.5037C45.9063 41.9073 45.5617 42.5008 45.0966 42.1915ZM49.6734 39.1712C49.6675 39.1451 49.6592 39.1216 49.6493 39.1003C49.381 38.9997 49.1687 39.1023 49.0375 39.2938C49.0418 39.3414 49.0561 39.3896 49.0652 39.4368C48.9639 39.6483 48.8726 39.9099 48.7354 40.0926C48.7083 40.0946 48.6802 40.0918 48.6533 40.0841C46.379 40.3195 47.4893 37.9605 45.1826 37.3746C43.3995 37.0829 40.1767 37.417 39.3356 39.2569C38.6722 42.1958 35.299 40.148 34.1915 38.6196C33.0098 37.2286 32.2456 35.5289 31.5089 33.8795C31.3532 33.5305 30.8673 33.7801 30.9202 34.115C30.2392 35.4693 30.2618 37.096 30.0932 38.5797C29.8063 41.5397 29.5268 45.6907 32.301 47.4981C35.9154 51.5483 44.9412 52.9776 49.1101 49.2561C50.5532 46.1802 50.3753 42.4277 49.6734 39.1712Z" fill="#222222"/>
<path fill-rule="evenodd" clip-rule="evenodd" d="M49.2095 35.5367C48.7709 36.1208 47.9578 36.3069 47.2079 36.2426C45.5904 36.0883 45.0813 34.2671 45.0283 32.8516C46.1129 33.1541 44.9366 31.0117 48.6443 30.7761C49.9514 30.6681 49.591 31.4507 50.1685 32.0225C50.1566 33.2225 49.9551 34.5264 49.2095 35.5367ZM41.5051 34.1596C40.5502 38.5932 35.3208 37.5386 34.7715 33.5421C35.2787 33.1871 35.1451 32.3107 35.7753 31.9932C36.774 31.3606 38.0225 31.3876 39.1567 31.4025C40.6064 31.5012 41.0195 32.0966 41.7642 32.7461C41.7284 33.18 41.6251 33.6941 41.5051 34.1596ZM51.281 30.0428C51.2274 30.034 51.1737 30.0256 51.1201 30.0178C51.0782 29.9943 51.029 29.9761 50.9718 29.9652C50.8412 29.9323 50.7115 29.9102 50.582 29.8982C48.7234 29.4836 44.4236 30.0723 44.2462 31.6447C43.6543 31.8406 43.1422 31.6652 42.4562 31.6826C41.934 29.5189 32.9066 29.8243 32.4724 31.1288C32.4708 31.1283 32.4692 31.1279 32.4675 31.1274C32.0503 30.9994 31.4353 31.0303 30.9579 31.01C29.9383 30.9888 28.9176 31.0789 27.9201 31.2921C26.0522 31.5864 23.5029 31.9309 24.802 34.2434C24.8023 34.2438 24.8025 34.2442 24.8028 34.2446L24.803 34.2444C25.0269 34.4719 25.4069 34.2887 25.421 33.9807C24.9842 32.8852 25.9707 32.7537 26.7298 32.4388C28.6184 31.7662 30.5412 31.6729 32.4945 31.881C32.6415 32.0525 32.8645 32.2021 33.1001 32.2804C34.4062 32.4953 33.7179 33.4557 34.5434 33.5954C34.3918 36.9433 38.4918 38.7708 40.8674 36.57C41.8159 35.6506 42.042 34.2887 42.2619 33.0611C42.3782 33.0352 42.4522 32.9722 42.4953 32.8888C42.775 32.612 42.9507 32.3564 43.5037 32.2804C44.0566 32.2044 44.4823 32.3569 44.5399 32.4036C44.5544 32.4326 44.57 32.4616 44.5881 32.4907C44.6134 32.534 44.6478 32.5686 44.6869 32.5958C44.1408 35.9296 46.7515 38.038 49.387 36.3089C50.5322 35.2409 50.7742 33.6059 50.822 32.1466C50.9772 32.0537 51.0755 31.8737 51.0218 31.6474C50.9477 31.3355 51.1214 31.0654 51.3979 30.9298C51.7573 30.7537 51.6938 30.1106 51.281 30.0428Z" fill="#222222"/>
</g>
<rect x="0.75" y="0.75" width="68.5" height="68.5" rx="34.25" stroke="#222222" stroke-width="1.5"/>
<defs>
<clipPath id="clip0_7439_3952">
<rect width="70" height="70" rx="35" fill="white"/>
</clipPath>
</defs>
</svg>
