<svg width="480" height="346" viewBox="0 0 480 346" fill="none" xmlns="http://www.w3.org/2000/svg">
<g clip-path="url(#clip0_7439_3869)">
<rect x="2" y="108" width="476" height="236" rx="18" fill="white" stroke="#222222" stroke-width="4"/>
<path d="M18.752 306.9L18.57 303.274L22.266 299.2H25.864L21.72 303.764L19.886 305.64L18.752 306.9ZM15.798 309V299.2H19.046V309H15.798ZM22.238 309L19.354 305.192L21.496 302.924L26.06 309H22.238ZM30.164 309.14C29.296 309.14 28.526 308.972 27.854 308.636C27.1913 308.291 26.6686 307.819 26.286 307.222C25.9033 306.625 25.712 305.939 25.712 305.164C25.712 304.389 25.9033 303.703 26.286 303.106C26.6686 302.509 27.1913 302.042 27.854 301.706C28.526 301.37 29.296 301.202 30.164 301.202C31.032 301.202 31.802 301.37 32.474 301.706C33.146 302.042 33.6686 302.509 34.042 303.106C34.4246 303.703 34.616 304.389 34.616 305.164C34.616 305.939 34.4246 306.625 34.042 307.222C33.6686 307.819 33.146 308.291 32.474 308.636C31.802 308.972 31.032 309.14 30.164 309.14ZM30.164 306.676C30.3973 306.676 30.6073 306.62 30.794 306.508C30.9806 306.396 31.13 306.228 31.242 306.004C31.354 305.771 31.41 305.491 31.41 305.164C31.41 304.828 31.354 304.553 31.242 304.338C31.13 304.114 30.9806 303.946 30.794 303.834C30.6073 303.722 30.3973 303.666 30.164 303.666C29.9306 303.666 29.7206 303.722 29.534 303.834C29.3473 303.946 29.198 304.114 29.086 304.338C28.974 304.553 28.918 304.828 28.918 305.164C28.918 305.491 28.974 305.771 29.086 306.004C29.198 306.228 29.3473 306.396 29.534 306.508C29.7206 306.62 29.9306 306.676 30.164 306.676ZM40.7163 309.14C40.0163 309.14 39.4516 309 39.0222 308.72C38.5929 308.44 38.2803 308.006 38.0843 307.418C37.8976 306.83 37.8043 306.079 37.8043 305.164C37.8043 304.259 37.9069 303.517 38.1123 302.938C38.3176 302.35 38.6349 301.916 39.0643 301.636C39.5029 301.347 40.0536 301.202 40.7163 301.202C41.3883 301.202 42.0043 301.361 42.5643 301.678C43.1243 301.995 43.5723 302.453 43.9083 303.05C44.2443 303.638 44.4123 304.343 44.4123 305.164C44.4123 305.985 44.2443 306.695 43.9083 307.292C43.5723 307.88 43.1243 308.337 42.5643 308.664C42.0043 308.981 41.3883 309.14 40.7163 309.14ZM35.6063 309V298.612H38.7703V302.364L38.6303 305.164L38.6163 307.964V309H35.6063ZM39.9603 306.676C40.1936 306.676 40.4036 306.62 40.5903 306.508C40.7769 306.396 40.9263 306.228 41.0383 306.004C41.1503 305.771 41.2063 305.491 41.2063 305.164C41.2063 304.828 41.1503 304.553 41.0383 304.338C40.9263 304.114 40.7769 303.946 40.5903 303.834C40.4036 303.722 40.1936 303.666 39.9603 303.666C39.7269 303.666 39.5169 303.722 39.3303 303.834C39.1436 303.946 38.9943 304.114 38.8823 304.338C38.7703 304.553 38.7143 304.828 38.7143 305.164C38.7143 305.491 38.7703 305.771 38.8823 306.004C38.9943 306.228 39.1436 306.396 39.3303 306.508C39.5169 306.62 39.7269 306.676 39.9603 306.676ZM45.409 309V301.342H48.573V309H45.409ZM46.991 300.726C46.4123 300.726 45.9503 300.572 45.605 300.264C45.2597 299.956 45.087 299.573 45.087 299.116C45.087 298.659 45.2597 298.276 45.605 297.968C45.9503 297.66 46.4123 297.506 46.991 297.506C47.5697 297.506 48.0317 297.651 48.377 297.94C48.7223 298.229 48.895 298.603 48.895 299.06C48.895 299.545 48.7223 299.947 48.377 300.264C48.0317 300.572 47.5697 300.726 46.991 300.726ZM59.3527 309.224C58.5593 309.224 57.8267 309.103 57.1547 308.86C56.492 308.608 55.9133 308.253 55.4187 307.796C54.9333 307.339 54.5553 306.797 54.2847 306.172C54.014 305.547 53.8787 304.856 53.8787 304.1C53.8787 303.344 54.014 302.653 54.2847 302.028C54.5553 301.403 54.938 300.861 55.4327 300.404C55.9273 299.947 56.5107 299.597 57.1827 299.354C57.864 299.102 58.6107 298.976 59.4227 298.976C60.3933 298.976 61.2567 299.139 62.0127 299.466C62.778 299.793 63.408 300.259 63.9027 300.866L61.7887 302.728C61.4807 302.373 61.1447 302.107 60.7807 301.93C60.426 301.743 60.0293 301.65 59.5907 301.65C59.2267 301.65 58.8953 301.706 58.5967 301.818C58.3073 301.93 58.06 302.093 57.8547 302.308C57.6493 302.523 57.4907 302.779 57.3787 303.078C57.2667 303.377 57.2107 303.717 57.2107 304.1C57.2107 304.464 57.2667 304.8 57.3787 305.108C57.4907 305.407 57.6493 305.663 57.8547 305.878C58.06 306.093 58.3027 306.261 58.5827 306.382C58.872 306.494 59.194 306.55 59.5487 306.55C59.922 306.55 60.286 306.489 60.6407 306.368C60.9953 306.237 61.3733 306.018 61.7747 305.71L63.6227 307.978C63.0253 308.379 62.344 308.687 61.5787 308.902C60.8133 309.117 60.0713 309.224 59.3527 309.224ZM60.7527 307.558V303.834H63.6227V307.978L60.7527 307.558ZM69.5664 309V307.642L69.3424 307.278V304.702C69.3424 304.329 69.2258 304.044 68.9924 303.848C68.7684 303.652 68.3998 303.554 67.8864 303.554C67.5411 303.554 67.1911 303.61 66.8364 303.722C66.4818 303.825 66.1784 303.969 65.9264 304.156L64.9184 302.07C65.3664 301.79 65.9031 301.575 66.5284 301.426C67.1538 301.277 67.7651 301.202 68.3624 301.202C69.6784 301.202 70.6958 301.496 71.4144 302.084C72.1424 302.672 72.5064 303.605 72.5064 304.884V309H69.5664ZM67.3964 309.14C66.7711 309.14 66.2484 309.033 65.8284 308.818C65.4084 308.603 65.0911 308.319 64.8764 307.964C64.6618 307.6 64.5544 307.199 64.5544 306.76C64.5544 306.265 64.6804 305.845 64.9324 305.5C65.1844 305.155 65.5671 304.893 66.0804 304.716C66.6031 304.539 67.2611 304.45 68.0544 304.45H69.6504V305.976H68.5584C68.2224 305.976 67.9751 306.032 67.8164 306.144C67.6671 306.247 67.5924 306.405 67.5924 306.62C67.5924 306.797 67.6578 306.947 67.7884 307.068C67.9284 307.18 68.1151 307.236 68.3484 307.236C68.5631 307.236 68.7591 307.18 68.9364 307.068C69.1231 306.947 69.2584 306.76 69.3424 306.508L69.7484 307.446C69.6271 308.015 69.3704 308.44 68.9784 308.72C68.5864 309 68.0591 309.14 67.3964 309.14ZM78.9838 309.14C78.2838 309.14 77.7192 309 77.2898 308.72C76.8605 308.44 76.5478 308.006 76.3518 307.418C76.1652 306.83 76.0718 306.079 76.0718 305.164C76.0718 304.259 76.1745 303.517 76.3798 302.938C76.5852 302.35 76.9025 301.916 77.3318 301.636C77.7705 301.347 78.3212 301.202 78.9838 301.202C79.6558 301.202 80.2718 301.361 80.8318 301.678C81.3918 301.995 81.8398 302.453 82.1758 303.05C82.5118 303.638 82.6798 304.343 82.6798 305.164C82.6798 305.985 82.5118 306.695 82.1758 307.292C81.8398 307.88 81.3918 308.337 80.8318 308.664C80.2718 308.981 79.6558 309.14 78.9838 309.14ZM73.8738 309V298.612H77.0378V302.364L76.8978 305.164L76.8838 307.964V309H73.8738ZM78.2278 306.676C78.4612 306.676 78.6712 306.62 78.8578 306.508C79.0445 306.396 79.1938 306.228 79.3058 306.004C79.4178 305.771 79.4738 305.491 79.4738 305.164C79.4738 304.828 79.4178 304.553 79.3058 304.338C79.1938 304.114 79.0445 303.946 78.8578 303.834C78.6712 303.722 78.4612 303.666 78.2278 303.666C77.9945 303.666 77.7845 303.722 77.5978 303.834C77.4112 303.946 77.2618 304.114 77.1498 304.338C77.0378 304.553 76.9818 304.828 76.9818 305.164C76.9818 305.491 77.0378 305.771 77.1498 306.004C77.2618 306.228 77.4112 306.396 77.5978 306.508C77.7845 306.62 77.9945 306.676 78.2278 306.676ZM88.1192 309V307.642L87.8952 307.278V304.702C87.8952 304.329 87.7785 304.044 87.5452 303.848C87.3212 303.652 86.9525 303.554 86.4392 303.554C86.0938 303.554 85.7438 303.61 85.3892 303.722C85.0345 303.825 84.7312 303.969 84.4792 304.156L83.4712 302.07C83.9192 301.79 84.4558 301.575 85.0812 301.426C85.7065 301.277 86.3178 301.202 86.9152 301.202C88.2312 301.202 89.2485 301.496 89.9672 302.084C90.6952 302.672 91.0592 303.605 91.0592 304.884V309H88.1192ZM85.9492 309.14C85.3238 309.14 84.8012 309.033 84.3812 308.818C83.9612 308.603 83.6438 308.319 83.4292 307.964C83.2145 307.6 83.1072 307.199 83.1072 306.76C83.1072 306.265 83.2332 305.845 83.4852 305.5C83.7372 305.155 84.1198 304.893 84.6332 304.716C85.1558 304.539 85.8138 304.45 86.6072 304.45H88.2032V305.976H87.1112C86.7752 305.976 86.5278 306.032 86.3692 306.144C86.2198 306.247 86.1452 306.405 86.1452 306.62C86.1452 306.797 86.2105 306.947 86.3412 307.068C86.4812 307.18 86.6678 307.236 86.9012 307.236C87.1158 307.236 87.3118 307.18 87.4892 307.068C87.6758 306.947 87.8112 306.76 87.8952 306.508L88.3012 307.446C88.1798 308.015 87.9232 308.44 87.5312 308.72C87.1392 309 86.6118 309.14 85.9492 309.14ZM93.9698 311.856C93.5498 311.856 93.1205 311.791 92.6818 311.66C92.2525 311.539 91.9072 311.375 91.6458 311.17L92.6958 309C92.8545 309.121 93.0318 309.219 93.2278 309.294C93.4332 309.369 93.6292 309.406 93.8158 309.406C94.0958 309.406 94.3105 309.345 94.4598 309.224C94.6092 309.112 94.7305 308.939 94.8238 308.706L95.1458 307.894L95.3698 307.586L97.8198 301.342H100.816L97.6658 309.154C97.3858 309.854 97.0592 310.4 96.6858 310.792C96.3218 311.184 95.9112 311.459 95.4538 311.618C95.0058 311.777 94.5112 311.856 93.9698 311.856ZM94.7118 309.35L91.3798 301.342H94.6278L96.9238 307.306L94.7118 309.35ZM18.416 327V318.418H15.056V317.2H23.162V318.418H19.802V327H18.416ZM28.4528 319.51C29.0595 319.51 29.5915 319.627 30.0488 319.86C30.5155 320.093 30.8795 320.448 31.1408 320.924C31.4021 321.4 31.5328 322.002 31.5328 322.73V327H30.1888V322.884C30.1888 322.165 30.0115 321.624 29.6568 321.26C29.3115 320.896 28.8215 320.714 28.1868 320.714C27.7108 320.714 27.2955 320.807 26.9408 320.994C26.5861 321.181 26.3108 321.456 26.1148 321.82C25.9281 322.184 25.8348 322.637 25.8348 323.178V327H24.4908V316.612H25.8348V321.582L25.5688 321.05C25.8115 320.565 26.1848 320.187 26.6888 319.916C27.1928 319.645 27.7808 319.51 28.4528 319.51ZM37.3241 327.084C36.5308 327.084 35.8308 326.921 35.2241 326.594C34.6268 326.267 34.1601 325.819 33.8241 325.25C33.4974 324.681 33.3341 324.027 33.3341 323.29C33.3341 322.553 33.4928 321.899 33.8101 321.33C34.1368 320.761 34.5801 320.317 35.1401 320C35.7094 319.673 36.3488 319.51 37.0581 319.51C37.7768 319.51 38.4114 319.669 38.9621 319.986C39.5128 320.303 39.9421 320.751 40.2501 321.33C40.5674 321.899 40.7261 322.567 40.7261 323.332C40.7261 323.388 40.7214 323.453 40.7121 323.528C40.7121 323.603 40.7074 323.673 40.6981 323.738H34.3841V322.772H39.9981L39.4521 323.108C39.4614 322.632 39.3634 322.207 39.1581 321.834C38.9528 321.461 38.6681 321.171 38.3041 320.966C37.9494 320.751 37.5341 320.644 37.0581 320.644C36.5914 320.644 36.1761 320.751 35.8121 320.966C35.4481 321.171 35.1634 321.465 34.9581 321.848C34.7528 322.221 34.6501 322.651 34.6501 323.136V323.36C34.6501 323.855 34.7621 324.298 34.9861 324.69C35.2194 325.073 35.5414 325.371 35.9521 325.586C36.3628 325.801 36.8341 325.908 37.3661 325.908C37.8048 325.908 38.2014 325.833 38.5561 325.684C38.9201 325.535 39.2374 325.311 39.5081 325.012L40.2501 325.88C39.9141 326.272 39.4941 326.571 38.9901 326.776C38.4954 326.981 37.9401 327.084 37.3241 327.084ZM47.8081 321.834H52.8621V323.038H47.8081V321.834ZM47.9481 327H46.5481V317.2H53.4641V318.418H47.9481V327ZM58.1844 327.084C57.4378 327.084 56.7751 326.921 56.1964 326.594C55.6178 326.267 55.1604 325.819 54.8244 325.25C54.4884 324.671 54.3204 324.018 54.3204 323.29C54.3204 322.553 54.4884 321.899 54.8244 321.33C55.1604 320.761 55.6178 320.317 56.1964 320C56.7751 319.673 57.4378 319.51 58.1844 319.51C58.9218 319.51 59.5798 319.673 60.1584 320C60.7464 320.317 61.2038 320.761 61.5304 321.33C61.8664 321.89 62.0344 322.543 62.0344 323.29C62.0344 324.027 61.8664 324.681 61.5304 325.25C61.2038 325.819 60.7464 326.267 60.1584 326.594C59.5798 326.921 58.9218 327.084 58.1844 327.084ZM58.1844 325.908C58.6604 325.908 59.0851 325.801 59.4584 325.586C59.8411 325.371 60.1398 325.068 60.3544 324.676C60.5691 324.275 60.6764 323.813 60.6764 323.29C60.6764 322.758 60.5691 322.301 60.3544 321.918C60.1398 321.526 59.8411 321.223 59.4584 321.008C59.0851 320.793 58.6604 320.686 58.1844 320.686C57.7084 320.686 57.2838 320.793 56.9104 321.008C56.5371 321.223 56.2384 321.526 56.0144 321.918C55.7904 322.301 55.6784 322.758 55.6784 323.29C55.6784 323.813 55.7904 324.275 56.0144 324.676C56.2384 325.068 56.5371 325.371 56.9104 325.586C57.2838 325.801 57.7084 325.908 58.1844 325.908ZM67.0151 327.084C66.3805 327.084 65.8205 326.967 65.3351 326.734C64.8591 326.501 64.4858 326.146 64.2151 325.67C63.9538 325.185 63.8231 324.578 63.8231 323.85V319.58H65.1671V323.696C65.1671 324.424 65.3398 324.97 65.6851 325.334C66.0398 325.698 66.5345 325.88 67.1691 325.88C67.6358 325.88 68.0418 325.787 68.3871 325.6C68.7325 325.404 68.9985 325.124 69.1851 324.76C69.3718 324.387 69.4651 323.939 69.4651 323.416V319.58H70.8091V327H69.5351V324.998L69.7451 325.53C69.5025 326.025 69.1385 326.407 68.6531 326.678C68.1678 326.949 67.6218 327.084 67.0151 327.084ZM77.3298 319.51C77.9364 319.51 78.4684 319.627 78.9258 319.86C79.3924 320.093 79.7564 320.448 80.0178 320.924C80.2791 321.4 80.4098 322.002 80.4098 322.73V327H79.0658V322.884C79.0658 322.165 78.8884 321.624 78.5338 321.26C78.1884 320.896 77.6984 320.714 77.0638 320.714C76.5878 320.714 76.1724 320.807 75.8178 320.994C75.4631 321.181 75.1878 321.456 74.9918 321.82C74.8051 322.184 74.7118 322.637 74.7118 323.178V327H73.3678V319.58H74.6558V321.582L74.4458 321.05C74.6884 320.565 75.0618 320.187 75.5658 319.916C76.0698 319.645 76.6578 319.51 77.3298 319.51ZM85.963 327.084C85.2444 327.084 84.6004 326.925 84.031 326.608C83.471 326.291 83.0277 325.847 82.701 325.278C82.3744 324.709 82.211 324.046 82.211 323.29C82.211 322.534 82.3744 321.876 82.701 321.316C83.0277 320.747 83.471 320.303 84.031 319.986C84.6004 319.669 85.2444 319.51 85.963 319.51C86.5884 319.51 87.153 319.65 87.657 319.93C88.161 320.21 88.5624 320.63 88.861 321.19C89.169 321.75 89.323 322.45 89.323 323.29C89.323 324.13 89.1737 324.83 88.875 325.39C88.5857 325.95 88.189 326.375 87.685 326.664C87.181 326.944 86.607 327.084 85.963 327.084ZM86.075 325.908C86.5417 325.908 86.9617 325.801 87.335 325.586C87.7177 325.371 88.0164 325.068 88.231 324.676C88.455 324.275 88.567 323.813 88.567 323.29C88.567 322.758 88.455 322.301 88.231 321.918C88.0164 321.526 87.7177 321.223 87.335 321.008C86.9617 320.793 86.5417 320.686 86.075 320.686C85.599 320.686 85.1744 320.793 84.801 321.008C84.4277 321.223 84.129 321.526 83.905 321.918C83.681 322.301 83.569 322.758 83.569 323.29C83.569 323.813 83.681 324.275 83.905 324.676C84.129 325.068 84.4277 325.371 84.801 325.586C85.1744 325.801 85.599 325.908 86.075 325.908ZM88.609 327V324.998L88.693 323.276L88.553 321.554V316.612H89.897V327H88.609ZM95.744 327.084C94.9507 327.084 94.2507 326.921 93.644 326.594C93.0467 326.267 92.58 325.819 92.244 325.25C91.9173 324.681 91.754 324.027 91.754 323.29C91.754 322.553 91.9127 321.899 92.23 321.33C92.5567 320.761 93 320.317 93.56 320C94.1293 319.673 94.7687 319.51 95.478 319.51C96.1967 319.51 96.8313 319.669 97.382 319.986C97.9327 320.303 98.362 320.751 98.67 321.33C98.9873 321.899 99.146 322.567 99.146 323.332C99.146 323.388 99.1413 323.453 99.132 323.528C99.132 323.603 99.1273 323.673 99.118 323.738H92.804V322.772H98.418L97.872 323.108C97.8813 322.632 97.7833 322.207 97.578 321.834C97.3727 321.461 97.088 321.171 96.724 320.966C96.3693 320.751 95.954 320.644 95.478 320.644C95.0113 320.644 94.596 320.751 94.232 320.966C93.868 321.171 93.5833 321.465 93.378 321.848C93.1727 322.221 93.07 322.651 93.07 323.136V323.36C93.07 323.855 93.182 324.298 93.406 324.69C93.6393 325.073 93.9613 325.371 94.372 325.586C94.7827 325.801 95.254 325.908 95.786 325.908C96.2247 325.908 96.6213 325.833 96.976 325.684C97.34 325.535 97.6573 325.311 97.928 325.012L98.67 325.88C98.334 326.272 97.914 326.571 97.41 326.776C96.9153 326.981 96.36 327.084 95.744 327.084ZM101.012 327V319.58H102.3V321.596L102.174 321.092C102.38 320.579 102.725 320.187 103.21 319.916C103.696 319.645 104.293 319.51 105.002 319.51V320.812C104.946 320.803 104.89 320.798 104.834 320.798C104.788 320.798 104.741 320.798 104.694 320.798C103.976 320.798 103.406 321.013 102.986 321.442C102.566 321.871 102.356 322.492 102.356 323.304V327H101.012ZM115.134 327.112C114.388 327.112 113.692 326.986 113.048 326.734C112.414 326.482 111.863 326.132 111.396 325.684C110.93 325.227 110.566 324.695 110.304 324.088C110.043 323.481 109.912 322.819 109.912 322.1C109.912 321.381 110.043 320.719 110.304 320.112C110.566 319.505 110.93 318.978 111.396 318.53C111.863 318.073 112.414 317.718 113.048 317.466C113.683 317.214 114.378 317.088 115.134 317.088C115.881 317.088 116.567 317.214 117.192 317.466C117.827 317.709 118.378 318.059 118.844 318.516C119.32 318.964 119.684 319.491 119.936 320.098C120.198 320.705 120.328 321.372 120.328 322.1C120.328 322.828 120.198 323.495 119.936 324.102C119.684 324.709 119.32 325.241 118.844 325.698C118.378 326.146 117.827 326.496 117.192 326.748C116.567 326.991 115.881 327.112 115.134 327.112ZM115.134 325.866C115.676 325.866 116.175 325.773 116.632 325.586C117.099 325.399 117.5 325.138 117.836 324.802C118.182 324.457 118.448 324.055 118.634 323.598C118.83 323.141 118.928 322.641 118.928 322.1C118.928 321.559 118.83 321.059 118.634 320.602C118.448 320.145 118.182 319.748 117.836 319.412C117.5 319.067 117.099 318.801 116.632 318.614C116.175 318.427 115.676 318.334 115.134 318.334C114.584 318.334 114.075 318.427 113.608 318.614C113.151 318.801 112.75 319.067 112.404 319.412C112.059 319.748 111.788 320.145 111.592 320.602C111.406 321.059 111.312 321.559 111.312 322.1C111.312 322.641 111.406 323.141 111.592 323.598C111.788 324.055 112.059 324.457 112.404 324.802C112.75 325.138 113.151 325.399 113.608 325.586C114.075 325.773 114.584 325.866 115.134 325.866ZM122.468 327V318.922C122.468 318.194 122.678 317.615 123.098 317.186C123.527 316.747 124.134 316.528 124.918 316.528C125.207 316.528 125.483 316.565 125.744 316.64C126.015 316.705 126.243 316.813 126.43 316.962L126.024 317.984C125.884 317.872 125.725 317.788 125.548 317.732C125.371 317.667 125.184 317.634 124.988 317.634C124.596 317.634 124.297 317.746 124.092 317.97C123.887 318.185 123.784 318.507 123.784 318.936V319.93L123.812 320.546V327H122.468ZM121.208 320.686V319.58H125.94V320.686H121.208ZM135.545 327.112C134.799 327.112 134.108 326.991 133.473 326.748C132.848 326.496 132.302 326.146 131.835 325.698C131.378 325.241 131.019 324.709 130.757 324.102C130.496 323.495 130.365 322.828 130.365 322.1C130.365 321.372 130.496 320.705 130.757 320.098C131.019 319.491 131.383 318.964 131.849 318.516C132.316 318.059 132.862 317.709 133.487 317.466C134.122 317.214 134.813 317.088 135.559 317.088C136.315 317.088 137.011 317.219 137.645 317.48C138.289 317.732 138.835 318.11 139.283 318.614L138.373 319.496C138 319.104 137.58 318.815 137.113 318.628C136.647 318.432 136.147 318.334 135.615 318.334C135.065 318.334 134.551 318.427 134.075 318.614C133.609 318.801 133.203 319.062 132.857 319.398C132.512 319.734 132.241 320.135 132.045 320.602C131.859 321.059 131.765 321.559 131.765 322.1C131.765 322.641 131.859 323.145 132.045 323.612C132.241 324.069 132.512 324.466 132.857 324.802C133.203 325.138 133.609 325.399 134.075 325.586C134.551 325.773 135.065 325.866 135.615 325.866C136.147 325.866 136.647 325.773 137.113 325.586C137.58 325.39 138 325.091 138.373 324.69L139.283 325.572C138.835 326.076 138.289 326.459 137.645 326.72C137.011 326.981 136.311 327.112 135.545 327.112ZM143.482 327V323.248L143.804 324.116L139.59 317.2H141.088L144.63 323.038H143.818L147.374 317.2H148.76L144.56 324.116L144.868 323.248V327H143.482ZM150.017 327V317.2H154.413C155.542 317.2 156.41 317.429 157.017 317.886C157.624 318.334 157.927 318.95 157.927 319.734C157.927 320.266 157.806 320.714 157.563 321.078C157.33 321.442 157.012 321.722 156.611 321.918C156.21 322.114 155.776 322.212 155.309 322.212L155.561 321.792C156.121 321.792 156.616 321.89 157.045 322.086C157.474 322.282 157.815 322.571 158.067 322.954C158.319 323.327 158.445 323.794 158.445 324.354C158.445 325.194 158.128 325.847 157.493 326.314C156.868 326.771 155.934 327 154.693 327H150.017ZM151.417 325.866H154.637C155.412 325.866 156.004 325.735 156.415 325.474C156.826 325.213 157.031 324.802 157.031 324.242C157.031 323.673 156.826 323.257 156.415 322.996C156.004 322.735 155.412 322.604 154.637 322.604H151.291V321.47H154.287C154.996 321.47 155.547 321.339 155.939 321.078C156.331 320.817 156.527 320.425 156.527 319.902C156.527 319.379 156.331 318.987 155.939 318.726C155.547 318.465 154.996 318.334 154.287 318.334H151.417V325.866ZM159.129 327L163.567 317.2H164.953L169.405 327H167.935L163.973 317.984H164.533L160.571 327H159.129ZM161.019 324.55L161.397 323.43H166.913L167.319 324.55H161.019Z" fill="#222222"/>
<g clip-path="url(#clip1_7439_3869)">
<path d="M239.182 225.738L313.39 225.738L313.39 316.556L239.182 316.556L239.182 225.738Z" fill="white"/>
<path d="M408.61 361.616L408.615 361.616C408.978 361.627 409.339 361.557 409.672 361.413C410.005 361.268 410.301 361.051 410.539 360.779C410.821 360.428 411.024 360.021 411.136 359.586C411.248 359.151 411.265 358.698 411.187 358.255C410.858 356.09 410.539 353.887 410.231 351.757L410.231 351.753L410.231 351.745C410.061 350.57 409.885 349.356 409.709 348.161C416.407 349.97 423.312 350.913 430.252 350.967C433.181 350.971 436.107 350.774 439.009 350.377C441.924 349.975 444.804 349.347 447.621 348.501C447.756 348.364 447.806 348.252 447.771 348.169C447.709 348.023 447.399 347.955 446.795 347.955C446.568 347.955 446.333 347.964 446.091 347.974L446.035 347.976C445.828 347.984 445.631 347.992 445.472 347.992C445.364 347.997 445.256 347.989 445.151 347.967C447.487 346.396 449.391 344.268 450.69 341.779C451.316 340.577 451.82 339.317 452.196 338.017C452.58 336.683 452.863 335.323 453.043 333.948C453.39 331.082 453.477 328.19 453.302 325.308C453.16 322.386 452.855 319.492 452.559 316.695L452.559 316.69C452.397 315.144 452.241 313.682 452.12 312.267C451.083 305.621 450.138 298.718 449.225 292.042L449.225 292.037C446.891 274.99 444.479 257.363 440.147 240.582C439.028 236.247 437.803 232.064 436.506 228.148C435.116 223.951 433.587 219.892 431.962 216.083C430.24 212.047 428.348 208.145 426.337 204.484C424.251 200.681 421.952 196.998 419.451 193.451C416.821 189.934 413.903 186.64 410.726 183.601C407.546 180.555 404.094 177.801 400.414 175.374C396.75 172.956 392.844 170.921 388.758 169.301C384.655 167.677 380.373 166.54 376.002 165.913L375.513 165.847C374.668 165.735 373.788 165.633 372.938 165.535C368.48 165.019 363.871 164.486 360.102 162.156C358.141 160.601 356.634 158.558 355.174 156.584C354.024 155.028 352.938 153.557 351.724 152.462C351.15 151.927 350.497 151.482 349.788 151.144C349.083 150.814 348.315 150.639 347.536 150.631L347.509 150.631C346.799 150.68 346.112 150.904 345.511 151.282C344.784 151.678 344.006 152.211 343.183 152.776C342.413 153.304 341.618 153.849 340.8 154.326C340.689 152.417 340.055 150.71 339.443 149.059C338.991 147.963 338.648 146.825 338.418 145.662L338.386 145.443C338.307 144.873 338.263 144.308 338.221 143.762C338.041 141.426 337.87 139.219 335.035 136.907C333.655 135.896 332.162 135.046 330.586 134.376C328.758 133.583 326.871 132.932 324.942 132.427C322.863 131.876 320.75 131.457 318.616 131.175C316.463 130.884 314.292 130.736 312.119 130.732C309.554 130.709 306.994 130.967 304.485 131.501C302.044 132.049 300.002 132.876 298.415 133.96C296.961 134.964 295.643 136.151 294.494 137.489C293.417 138.752 292.475 140.122 291.685 141.579C290.099 144.457 289.023 147.541 287.883 150.805C287.057 153.173 286.202 155.62 285.134 157.987C284.258 157.595 283.305 157.401 282.345 157.418C280.579 157.447 278.848 157.92 277.317 158.794C276.595 159.196 275.938 159.703 275.368 160.299C274.853 160.826 274.464 161.46 274.23 162.157C273.452 163.097 273.107 165.036 272.772 166.91L272.772 166.912C272.529 168.277 272.299 169.565 271.917 170.467C269.45 170.857 267.058 171.352 264.806 171.938C262.649 172.495 260.525 173.169 258.442 173.956C256.506 174.69 254.615 175.537 252.779 176.493C251.047 177.397 249.373 178.408 247.767 179.518C246.226 180.587 244.754 181.75 243.359 183.001C241.997 184.226 240.71 185.532 239.506 186.911C238.31 188.284 237.194 189.723 236.161 191.221C235.121 192.731 234.159 194.292 233.277 195.898C231.471 199.215 229.94 202.673 228.698 206.238C227.383 209.992 226.277 213.815 225.385 217.69C223.605 225.255 222.355 233.269 221.027 242.974C219.254 252.917 216.81 263.032 214.446 272.813L214.446 272.814C212.913 279.159 211.327 285.721 209.934 292.193C208.371 299.454 207.223 305.823 206.425 311.663C205.506 318.159 205.008 324.707 204.935 331.267C204.91 334.616 205.021 337.936 205.263 341.132C205.518 344.487 205.926 347.822 206.477 351.047C205.668 352.201 204.978 353.433 204.418 354.724C204.072 355.314 203.901 355.99 203.925 356.673C203.948 357.339 204.134 357.989 204.468 358.566C204.768 359.122 205.212 359.587 205.754 359.915C206.295 360.243 206.915 360.421 207.549 360.431L207.551 360.431C207.604 360.431 207.658 360.431 207.711 360.427C208.764 360.336 209.83 360.232 210.861 360.133L210.866 360.133C213.485 359.88 216.193 359.618 218.882 359.519C224.338 359.33 230.214 359.239 236.843 359.239C240.709 359.239 244.909 359.269 250.062 359.336L251.48 359.354C272.507 359.614 293.878 359.982 314.546 360.337C345.373 360.866 377.253 361.415 408.61 361.616ZM293.838 244.95C294.556 248.029 293.398 250.533 292.172 253.184C291.479 254.585 290.903 256.04 290.451 257.535C290.159 258.591 290.27 260.221 290.368 261.66C290.408 262.247 290.446 262.801 290.451 263.251C290.396 264.113 289.932 265.064 289.482 265.984C288.91 267.156 288.318 268.367 288.52 269.458C288.993 272.02 290.256 274.592 291.476 277.08C292.516 279.199 293.591 281.391 294.149 283.532C294.435 284.577 294.571 285.656 294.551 286.739C294.523 287.84 294.281 288.926 293.838 289.936C291.893 293.736 286.034 295.685 282.157 296.974L282.138 296.98C281.037 297.391 279.897 297.688 278.736 297.866C277.477 298.062 276.205 298.158 274.931 298.154C271.054 298.135 267.214 297.395 263.611 295.97C261.908 295.303 260.29 294.436 258.795 293.386C257.441 292.449 256.265 291.281 255.322 289.936C253.757 287.622 252.007 283.028 250.602 279.337C249.737 277.067 248.991 275.107 248.433 274.026L248.103 269.439C247.718 264.053 247.31 257.905 247.34 253.108C247.373 247.78 247.938 244.812 249.065 244.033C251.57 242.304 255.165 241.022 259.749 240.225C264.051 239.53 268.405 239.202 272.764 239.244C277.643 239.244 281.926 239.569 284.659 239.841C287.835 240.158 289.84 240.495 290.011 240.606C290.4 240.861 290.73 241.053 291.021 241.223C291.828 241.694 292.316 241.978 292.897 242.89C293.669 242.992 294.458 243.1 295.24 243.21C295.758 243.379 296.03 243.728 295.964 244.144C295.911 244.41 295.757 244.645 295.534 244.801C295.261 244.999 294.931 245.102 294.594 245.096C294.335 245.093 294.079 245.044 293.839 244.95L293.838 244.95Z" fill="white"/>
<path d="M408.616 361.614C408.979 361.625 409.34 361.555 409.673 361.41C410.005 361.265 410.302 361.049 410.54 360.777C410.822 360.425 411.025 360.019 411.137 359.584C411.249 359.149 411.266 358.695 411.188 358.253C410.858 356.082 410.54 353.88 410.231 351.751L410.224 351.699C410.056 350.54 409.882 349.338 409.709 348.158C416.407 349.967 423.311 350.91 430.252 350.965C433.181 350.969 436.106 350.771 439.008 350.374C441.924 349.973 444.805 349.346 447.623 348.5C447.758 348.364 447.808 348.252 447.772 348.168C447.711 348.022 447.401 347.955 446.797 347.955C446.57 347.955 446.336 347.964 446.093 347.974L446.037 347.976C445.829 347.984 445.633 347.992 445.474 347.992C445.366 347.997 445.258 347.988 445.153 347.967C447.489 346.395 449.393 344.267 450.691 341.777C451.317 340.575 451.821 339.315 452.197 338.014C452.581 336.681 452.864 335.321 453.043 333.945C453.39 331.079 453.477 328.187 453.302 325.306C453.16 322.383 452.855 319.49 452.559 316.692C452.397 315.144 452.241 313.683 452.119 312.264C451.082 305.618 450.137 298.716 449.224 292.039L449.224 292.034C446.891 274.987 444.478 257.36 440.147 240.579C439.028 236.245 437.803 232.061 436.506 228.145C435.115 223.948 433.586 219.889 431.961 216.08C430.239 212.045 428.347 208.142 426.336 204.481C424.25 200.679 421.952 196.996 419.452 193.449C416.822 189.932 413.904 186.637 410.727 183.598C407.547 180.552 404.095 177.799 400.415 175.371C396.75 172.954 392.844 170.918 388.759 169.298C384.655 167.675 380.374 166.538 376.003 165.911L375.513 165.844L375.021 165.78C374.333 165.693 373.624 165.611 372.937 165.532C368.48 165.016 363.871 164.483 360.102 162.153C358.142 160.597 356.635 158.555 355.174 156.581C354.072 155.09 353.033 153.683 351.88 152.603C351.336 152.078 350.721 151.629 350.053 151.271C349.402 150.925 348.687 150.713 347.952 150.648L344.735 152.61L326.05 161.789C324.248 162.29 322.877 162.85 321.975 163.451C321.074 164.052 320.617 164.712 320.617 165.413L320.617 179.751C320.617 180.705 319.759 182.287 318.068 184.451C316.376 186.615 313.802 189.423 310.42 192.796L304.139 186.573L304.28 185.759C304.875 182.264 305.176 179.894 305.176 178.714C305.176 178.396 304.788 177.85 304.024 177.089C302.927 176.04 301.773 175.051 300.568 174.126C297.51 171.716 292.859 168.372 286.743 164.187L281.366 159.157L281.94 157.425C281.094 157.468 280.257 157.618 279.449 157.871C278.642 158.119 277.867 158.462 277.142 158.893C275.643 159.789 274.609 160.947 274.23 162.153C273.453 163.094 273.107 165.032 272.772 166.907L272.772 166.909C272.529 168.273 272.3 169.562 271.917 170.464C269.451 170.854 267.058 171.349 264.806 171.934C262.65 172.492 260.525 173.166 258.443 173.953C256.506 174.687 254.615 175.534 252.779 176.49C251.047 177.394 249.373 178.404 247.767 179.515C246.226 180.583 244.754 181.746 243.36 182.998C241.997 184.223 240.71 185.529 239.506 186.909C238.311 188.282 237.195 189.72 236.162 191.218C235.122 192.728 234.16 194.289 233.278 195.895C231.472 199.213 229.94 202.67 228.698 206.234C227.383 209.988 226.277 213.811 225.385 217.686C223.605 225.251 222.356 233.265 221.028 242.97C219.254 252.914 216.81 263.028 214.446 272.809L214.446 272.81C212.913 279.155 211.328 285.717 209.934 292.189C208.372 299.45 207.224 305.819 206.426 311.659C205.506 318.156 205.008 324.704 204.935 331.263C204.911 334.613 205.021 337.932 205.264 341.129C205.518 344.483 205.926 347.818 206.477 351.043C205.669 352.197 204.979 353.429 204.418 354.72C204.072 355.311 203.901 355.986 203.925 356.669C203.948 357.335 204.135 357.985 204.468 358.562C204.768 359.118 205.212 359.584 205.754 359.911C206.296 360.239 206.916 360.417 207.55 360.427L207.552 360.427C207.604 360.427 207.658 360.427 207.711 360.424C208.761 360.332 209.824 360.231 210.853 360.13L210.862 360.13C213.483 359.877 216.192 359.615 218.882 359.516C224.34 359.327 230.216 359.236 236.844 359.236C240.709 359.236 244.909 359.266 250.063 359.332L251.48 359.351C272.499 359.611 293.871 359.978 314.538 360.334L314.545 360.334C345.375 360.864 377.254 361.412 408.611 361.615L408.616 361.614ZM355.331 276.661L357.931 295.404L351.677 308.788L337.516 304.047L314.44 298.002L301.2 284.652L293.731 282.16C294.192 283.412 294.468 284.724 294.547 286.054C294.615 287.385 294.373 288.713 293.839 289.934C291.895 293.735 286.036 295.684 282.159 296.972L282.14 296.979C281.039 297.389 279.899 297.686 278.737 297.865C277.479 298.06 276.207 298.157 274.933 298.152C271.056 298.134 267.216 297.393 263.613 295.969C261.909 295.302 260.292 294.435 258.796 293.385C257.443 292.448 256.267 291.279 255.324 289.934C253.759 287.62 252.009 283.026 250.604 279.335C249.739 277.065 248.993 275.105 248.436 274.024L248.008 268.066C247.629 262.656 247.287 257.029 247.348 252.548C247.417 247.57 247.979 244.785 249.068 244.033C251.573 242.304 255.168 241.022 259.752 240.224C264.054 239.529 268.408 239.201 272.766 239.243C277.646 239.243 281.928 239.568 284.662 239.841C287.837 240.158 289.843 240.494 290.013 240.606C290.402 240.86 290.733 241.053 291.024 241.222C291.831 241.693 292.318 241.978 292.899 242.89L293.309 242.944L291.004 239.838L291.82 239.405C294.718 237.878 297.143 236.716 299.028 235.953C300.912 235.189 302.31 234.802 303.182 234.802C304.094 234.802 305.503 235.516 307.371 236.923C309.865 238.889 312.227 241.015 314.441 243.286L314.941 243.516C317.871 244.839 320.725 246.32 323.493 247.951C325.754 249.317 327.463 250.598 328.572 251.756L328.652 251.839C330.894 254.23 335.392 260.672 342.027 270.988L351.679 276.661L355.331 276.661ZM290.627 256.947L294.116 250.308L294.116 245.034C294.022 245.011 293.93 244.982 293.839 244.948C294.557 248.027 293.399 250.531 292.173 253.182C291.578 254.403 291.061 255.661 290.626 256.947L290.627 256.947Z" fill="white"/>
<path d="M407.986 359.546C408.365 359.546 408.739 359.455 409.076 359.28L409.154 359.237L409.287 359.162C409.762 358.875 410.133 358.445 410.349 357.935C410.586 357.433 410.621 356.859 410.446 356.331C409.98 354.985 409.595 353.613 409.292 352.221C409.007 351.024 408.713 349.786 408.312 348.602L408.993 348.904L409.888 349.29C413.539 350.906 417.296 352.273 421.133 353.385C425.38 354.569 429.221 355.145 432.875 355.145C435.574 355.155 438.263 354.81 440.871 354.119C443.209 353.514 445.425 352.512 447.42 351.157C449.418 349.805 451.064 348 452.222 345.892C453.327 343.769 454.066 341.476 454.408 339.11C454.753 336.745 454.938 334.359 454.963 331.97C455.114 326.102 454.8 320.232 454.024 314.414C453.536 310.481 452.829 306.578 451.904 302.723C452.444 302.249 452.787 301.592 452.867 300.881C453.239 297.897 452.778 294.801 452.332 291.807L452.332 291.799C452.231 291.12 452.126 290.418 452.034 289.735C451.525 285.944 450.999 282.451 450.427 279.058C449.181 271.671 447.751 264.469 446.177 257.651C444.745 251.445 443.047 245.141 441.13 238.916C439.257 232.829 437.126 226.656 434.796 220.57L434.39 219.517C431.981 213.291 429.665 207.963 427.311 203.229C424.705 197.908 421.682 192.798 418.27 187.948C416.669 185.649 414.928 183.449 413.057 181.36C411.185 179.275 409.096 177.393 406.824 175.747C402.846 172.889 398.145 170.562 392.453 168.629C389.915 167.771 387.335 167.044 384.722 166.449C382.188 165.87 379.528 165.392 376.815 165.025C376.011 164.916 375.187 164.812 374.389 164.711C369.752 164.125 364.958 163.52 360.665 161.643C360.816 161.361 360.907 161.052 360.933 160.734C360.958 160.416 360.919 160.096 360.816 159.794C360.623 159.172 360.223 158.634 359.681 158.268C356.54 156.207 353.603 153.603 350.763 151.085C350.347 150.716 349.917 150.335 349.492 149.961C349.321 149.805 349.099 149.717 348.867 149.714C348.706 149.716 348.548 149.759 348.408 149.837C348.268 149.916 348.15 150.029 348.066 150.165C347.985 150.3 347.942 150.454 347.941 150.611C347.94 150.768 347.981 150.922 348.061 151.057C349.114 153.129 350.364 155.095 351.795 156.93C352.721 158.071 353.71 159.143 354.642 160.131C352.179 162.248 350.088 164.833 348.064 167.333L347.939 167.486C347.309 168.264 346.68 169.06 346.072 169.83C344.155 172.255 342.173 174.761 339.957 176.993C338.572 178.401 337.031 179.65 335.363 180.713C333.694 181.768 331.908 182.627 330.041 183.273L329.263 183.541C327.273 184.195 325.355 185.049 323.538 186.089C321.532 187.298 320.074 188.693 319.079 190.354C319.004 190.478 318.965 190.62 318.965 190.764C318.965 190.909 319.004 191.051 319.079 191.175C319.154 191.309 319.262 191.422 319.393 191.502C319.525 191.582 319.675 191.627 319.829 191.632C319.976 191.631 320.12 191.589 320.244 191.511C322.66 190.024 325.396 189.281 328.044 188.562C329.554 188.152 331.116 187.728 332.61 187.17C334.574 186.433 336.454 185.491 338.216 184.357C339.976 183.218 341.623 181.916 343.136 180.468C345.677 178.047 347.92 175.3 350.089 172.645L350.1 172.631C350.543 172.089 351.001 171.528 351.455 170.979C354.083 167.846 356.976 164.943 360.103 162.301C362.499 163.864 365.089 165.112 367.807 166.013C370.407 166.911 373.099 167.595 376.096 168.331L376.709 168.482C379.991 169.29 382.655 170.026 385.093 170.801C387.861 171.665 390.574 172.696 393.216 173.889C395.563 174.943 397.846 176.132 400.053 177.45C402.262 178.765 404.335 180.294 406.242 182.013C410.388 185.794 413.591 190.678 416.268 194.959C419.442 200.091 422.237 205.444 424.632 210.978C426.77 215.841 428.846 221.198 431.162 227.834C433.208 233.699 435.122 239.726 436.85 245.749C438.563 251.721 440.139 257.845 441.532 263.948C442.903 269.955 444.053 276.095 445.048 282.717C445.499 285.715 445.908 288.784 446.264 291.84C446.356 292.628 446.432 293.436 446.506 294.217L446.506 294.224C446.736 296.672 446.974 299.202 447.735 301.571C447.895 302.131 448.232 302.625 448.696 302.981C449.098 303.273 449.583 303.428 450.081 303.424C450.121 303.424 450.161 303.424 450.2 303.421L450.407 305.991C450.671 309.286 450.936 312.795 451.023 316.291C451.179 322.559 451.069 328.174 450.686 333.456L450.627 334.236C450.5 336.393 450.15 338.53 449.583 340.616C448.887 342.955 447.851 344.767 446.414 346.157C444.906 347.618 442.911 348.72 440.486 349.432C438.28 350.052 435.998 350.37 433.705 350.375C433.564 350.377 433.424 350.378 433.288 350.378C430.868 350.365 428.456 350.116 426.085 349.633C423.697 349.147 421.345 348.499 419.046 347.693C414.415 346.098 409.929 344.005 405.589 341.98L404.466 341.457C399.868 339.316 395.208 337 390.616 334.571C386.144 332.206 381.604 329.666 377.122 327.02C372.646 324.379 368.131 321.595 363.703 318.75C361.553 317.367 359.38 315.936 357.245 314.499C356.819 314.211 356.394 313.91 355.983 313.618C355.218 313.075 354.428 312.514 353.617 312.038C353.922 311.763 354.134 311.401 354.224 311.002C354.267 310.798 354.268 310.587 354.228 310.382C354.188 310.177 354.106 309.982 353.989 309.809C354.893 309.016 355.675 308.096 356.308 307.076C356.961 306.03 357.499 304.917 357.912 303.757C358.719 301.477 359.176 299.088 359.265 296.672C359.387 293.556 359.002 290.405 358.629 287.357L358.627 287.341C358.568 286.853 358.506 286.348 358.447 285.852C358.227 283.988 357.956 282.149 357.696 280.437C357.651 280.138 357.611 279.84 357.569 279.525C357.512 279.096 357.453 278.651 357.379 278.214C362.189 280.84 367.166 283.376 372.171 285.752C377.11 288.095 382.222 290.351 387.366 292.458C392.456 294.542 397.687 296.461 403.356 298.323L404.451 298.681C407.55 299.689 409.943 300.418 412.211 301.044C415.073 301.833 417.654 302.431 420.101 302.871C420.117 302.874 420.133 302.875 420.149 302.875C420.22 302.872 420.288 302.846 420.342 302.801C420.396 302.756 420.434 302.694 420.449 302.625C420.461 302.574 420.454 302.52 420.429 302.473C420.404 302.427 420.362 302.392 420.312 302.374C416.889 300.874 413.332 299.508 409.892 298.186C408.15 297.516 406.348 296.824 404.587 296.124L403.727 295.776C403.831 295.771 403.934 295.756 404.035 295.732C406.206 295.211 408.395 294.481 410.511 293.775L410.516 293.773C411.384 293.484 412.282 293.184 413.16 292.906C414.038 292.627 414.968 292.376 415.867 292.133C417.856 291.596 419.913 291.041 421.705 290.123C421.743 290.106 421.774 290.075 421.793 290.038C421.811 290 421.816 289.957 421.806 289.917C421.796 289.867 421.77 289.823 421.733 289.789C421.695 289.755 421.648 289.734 421.597 289.729C421.303 289.709 420.995 289.699 420.681 289.699C418.676 289.699 416.59 290.108 414.573 290.504C413.889 290.638 413.245 290.765 412.597 290.877L411.516 291.065C409.859 291.355 407.933 291.704 406.051 292.169C406.016 291.864 405.92 291.569 405.769 291.302C405.617 291.035 405.413 290.8 405.169 290.613C400.777 287.381 400.409 281.419 400.084 276.16L400.084 276.157C400.017 275.079 399.955 274.062 399.86 273.087L399.441 268.79C398.73 261.535 397.936 253.822 396.741 246.282C396.731 246.21 396.695 246.145 396.639 246.098C396.583 246.052 396.511 246.028 396.439 246.032C396.342 246.028 396.248 246.062 396.177 246.126C396.105 246.189 396.061 246.279 396.054 246.374C396.012 252.715 396.335 259.142 396.646 265.358C396.79 268.214 396.938 271.168 397.049 274.079L397.103 275.595L397.111 275.834C397.303 281.46 397.5 287.277 401.065 291.603C400.844 291.474 400.593 291.405 400.337 291.402C400.172 291.399 400.008 291.433 399.858 291.5C399.707 291.568 399.574 291.668 399.467 291.793C398.982 292.318 398.704 292.999 398.683 293.711C395.54 292.401 392.259 290.995 388.933 289.531C383.825 287.282 378.634 284.839 373.503 282.269C368.511 279.769 363.443 277.082 358.439 274.283C358.225 274.154 357.987 274.069 357.739 274.033C357.491 273.996 357.239 274.009 356.996 274.07C356.753 274.132 356.525 274.24 356.325 274.39C356.125 274.539 355.957 274.727 355.83 274.942L355.754 274.931C355.741 274.929 355.728 274.928 355.715 274.928L355.64 274.924L355.631 274.924C355.183 274.684 354.68 274.563 354.171 274.57C353.04 274.6 351.96 275.044 351.138 275.816C351.109 275.844 351.082 275.874 351.059 275.901L351.041 275.921C349.499 275.232 348.077 274.305 346.825 273.175C345.505 271.972 344.282 270.667 343.169 269.272C342.142 268.002 341.115 266.586 340.029 264.944C339.139 263.598 338.268 262.192 337.426 260.831C336.148 258.767 334.827 256.633 333.396 254.635C331.989 252.623 330.377 250.759 328.587 249.073C326.636 247.294 324.448 245.792 322.085 244.606C319.722 243.425 317.247 242.482 314.696 241.791C314.706 241.717 314.698 241.641 314.674 241.57C314.65 241.499 314.61 241.434 314.558 241.381C314.5 241.304 314.426 241.239 314.342 241.192C314.258 241.144 314.165 241.114 314.069 241.103C313.965 241.107 313.862 241.134 313.77 241.183C313.747 241.194 313.728 241.212 313.716 241.234L313.218 240.389C312.856 239.777 312.651 239.446 312.57 239.346C311.995 238.626 311.396 237.903 310.788 237.197C309.78 235.954 308.582 234.875 307.238 234.001C306.15 233.334 304.894 232.989 303.616 233.006C301.802 233.006 299.944 233.609 298.148 234.192L298.107 234.205C296.906 234.595 295.689 234.999 294.51 235.391L294.478 235.401C293.859 235.607 293.219 235.82 292.589 236.027L292.4 236.089C292.286 236.125 292.173 236.161 292.045 236.2C291.392 236.379 290.76 236.624 290.157 236.931C289.588 237.217 289.13 237.682 288.856 238.255C288.582 238.827 288.507 239.474 288.644 240.093C283.65 238.864 278.522 238.258 273.378 238.287C269.129 238.3 264.888 238.649 260.694 239.333C256.553 240.004 252.463 240.954 248.452 242.177C248.194 242.247 247.959 242.383 247.771 242.571C247.582 242.758 247.445 242.992 247.375 243.248C246.638 246.96 246.131 250.714 245.859 254.489C245.588 258.264 245.611 262.054 245.929 265.825C246.203 269.072 246.727 272.294 247.495 275.462C248.266 278.63 249.335 281.719 250.687 284.688L250.843 285.024C252.469 288.52 254.127 291.287 255.91 293.484C256.939 294.777 258.126 295.94 259.442 296.945C260.721 297.92 262.171 298.65 263.719 299.097C265.36 299.525 267.053 299.724 268.749 299.69C270.222 299.69 271.719 299.584 273.166 299.482C273.926 299.428 274.712 299.373 275.471 299.335C276.308 299.293 277.165 299.259 277.994 299.225L277.995 299.225C280.867 299.109 283.836 298.99 286.697 298.539C288.297 298.302 289.844 297.788 291.266 297.021C292.682 296.244 293.918 295.181 294.895 293.9C296.659 291.593 297.587 288.779 298.327 286.083C298.725 286.209 299.052 286.323 299.355 286.441C300.755 287.018 302.024 287.869 303.087 288.943C304.133 289.949 305.087 291.071 306.011 292.156C307.115 293.518 308.317 294.799 309.606 295.989C311.801 297.886 314.284 299.426 316.962 300.552C319.234 301.506 321.575 302.285 323.966 302.883C326.346 303.499 328.801 304.003 331.175 304.49L331.195 304.494C332.217 304.704 333.274 304.921 334.31 305.144L334.719 305.232C336.567 305.635 338.984 306.194 341.32 306.95C343.484 307.625 345.567 308.534 347.532 309.659C347.596 310.322 347.91 310.936 348.41 311.378C348.065 311.693 347.83 312.109 347.739 312.566C347.652 313.06 347.758 313.568 348.036 313.987C349.446 316.212 351.73 317.647 353.936 319.035L353.939 319.037C354.366 319.305 354.808 319.584 355.235 319.861L355.405 319.973C357.958 321.655 360.57 323.327 363.167 324.942C368.254 328.107 373.554 331.181 379.374 334.341C383.893 336.794 388.396 339.139 392.759 341.31C397.357 343.596 401.949 345.767 406.409 347.76C406.144 349.246 405.993 350.75 405.955 352.259C405.914 353.493 405.81 354.723 405.645 355.947L405.58 356.333C405.476 356.781 405.491 357.247 405.624 357.687C405.758 358.127 406.005 358.525 406.34 358.84L406.414 358.908L406.414 358.899L406.479 358.958L406.501 358.977L406.494 358.971C406.572 359.043 406.654 359.11 406.741 359.17L406.849 359.239C407.193 359.443 407.586 359.549 407.986 359.546ZM355.316 278.834C355.313 279.057 355.312 279.286 355.311 279.489C355.311 279.819 355.308 280.13 355.3 280.439C355.263 281.846 355.244 283.345 355.244 284.896C355.244 286.019 355.266 287.161 355.287 288.265C355.325 290.221 355.364 292.243 355.281 294.23C355.236 295.623 355.082 297.011 354.818 298.38C354.559 299.751 354.096 301.076 353.445 302.311C352.99 303.157 352.422 303.937 351.756 304.63C351.103 305.297 350.393 305.906 349.633 306.449C347.714 305.303 345.689 304.344 343.584 303.588C341.465 302.823 339.303 302.181 337.11 301.664C335.38 301.246 333.608 300.867 331.893 300.5L331.89 300.5C328.35 299.743 324.689 298.96 321.2 297.789C318.697 296.983 316.319 295.832 314.138 294.369C312.021 292.92 310.335 290.965 308.705 289.075L308.686 289.054C308.545 288.89 308.403 288.726 308.261 288.562L307.978 288.237C306.18 286.187 304.15 284.13 301.499 282.972C300.589 282.605 299.653 282.306 298.699 282.076C297.141 281.66 295.531 281.229 294.317 280.289C293.308 279.508 293.207 278.398 293.1 277.222L293.094 277.153C293.379 277.192 293.667 277.211 293.955 277.21C294.673 277.192 295.39 277.126 296.099 277.01L296.103 277.01C296.381 276.971 296.667 276.931 296.944 276.899L297.594 276.823C298.779 276.704 299.953 276.505 301.111 276.229C301.158 276.214 301.199 276.185 301.228 276.146C301.257 276.107 301.273 276.059 301.273 276.01C301.273 275.961 301.257 275.914 301.228 275.874C301.199 275.835 301.158 275.806 301.111 275.792C299.795 275.484 298.46 275.266 297.114 275.141L296.943 275.121L296.611 275.08C296.449 275.059 296.281 275.036 296.12 275.014L296.116 275.014C295.406 274.9 294.689 274.833 293.971 274.816C293.552 274.812 293.135 274.854 292.726 274.942C292.497 274.075 292.158 273.241 291.717 272.46C291.523 272.113 291.28 271.757 291.023 271.38C290.428 270.511 289.813 269.609 289.699 268.677C289.655 268.255 289.737 267.83 289.933 267.453L289.998 267.333C290.07 267.185 290.177 267.057 290.31 266.959C290.344 266.988 290.384 267.009 290.428 267.018C290.85 267.155 291.307 267.141 291.72 266.978C292.132 266.815 292.475 266.513 292.687 266.125C293.972 266.258 295.264 266.322 296.557 266.316C297.219 266.324 297.843 266.333 298.446 266.359L300.248 266.446C300.842 266.473 301.623 266.504 302.404 266.504C303.61 266.525 304.815 266.419 305.998 266.186C306.063 266.167 306.119 266.13 306.161 266.078C306.202 266.026 306.226 265.962 306.229 265.896C306.238 265.837 306.228 265.777 306.2 265.725C306.173 265.673 306.128 265.631 306.075 265.606C304.142 264.785 301.894 264.455 299.723 264.137C299.408 264.091 299.081 264.043 298.767 263.995C297.882 263.86 296.977 263.744 296.103 263.632L296.081 263.629C295.648 263.574 295.201 263.517 294.762 263.458C294.477 263.42 294.181 263.373 293.894 263.327L293.892 263.327C293.269 263.217 292.641 263.14 292.01 263.096C291.445 262.398 291.068 261.569 290.914 260.688C290.763 259.835 290.803 258.96 291.031 258.125C291.246 257.324 291.633 256.578 292.165 255.939C292.695 255.299 293.382 254.805 294.159 254.505C294.624 254.705 295.126 254.804 295.632 254.795C296.053 254.786 296.473 254.752 296.891 254.693L296.895 254.693C297.142 254.663 297.396 254.633 297.66 254.61C299.081 254.489 300.257 254.433 301.363 254.433L301.497 254.433C302.561 254.457 303.623 254.534 304.679 254.665C305.769 254.8 306.865 254.878 307.964 254.899C308.419 254.901 308.875 254.877 309.328 254.827C309.452 254.808 309.568 254.756 309.664 254.675C309.76 254.594 309.832 254.489 309.871 254.37C309.897 254.285 309.897 254.194 309.868 254.11C309.84 254.025 309.786 253.951 309.714 253.899C308.703 253.118 307.544 252.547 306.308 252.218C305.062 251.875 303.792 251.624 302.508 251.469L301.996 251.401C301.772 251.372 301.533 251.339 301.301 251.307C300.635 251.215 299.883 251.111 299.116 251.042C298.992 250.798 298.809 250.588 298.582 250.432C298.356 250.277 298.094 250.18 297.82 250.152C297.649 250.129 297.475 250.114 297.307 250.1L297.25 250.095L297.253 250.076C297.058 250.07 296.869 250.014 296.702 249.914C296.535 249.814 296.396 249.673 296.299 249.505C295.77 248.667 295.881 247.13 296.194 246.395C296.572 245.507 297.351 244.862 298.51 244.476C299.583 244.158 300.699 244.01 301.818 244.038C302.304 244.038 302.81 244.057 303.406 244.097C306.295 244.289 309.161 244.744 311.967 245.456C314.775 246.152 317.493 247.169 320.065 248.487C322.559 249.809 324.81 251.541 326.722 253.61C328.626 255.681 330.338 257.918 331.837 260.296L331.983 260.521C332.484 261.294 332.993 262.11 333.485 262.898L333.488 262.903C334.76 264.939 336.074 267.044 337.563 268.971C338.997 270.907 340.733 272.604 342.704 273.997C345.582 275.95 348.339 277.227 350.896 277.793C350.997 277.973 351.134 278.131 351.298 278.257C351.463 278.383 351.653 278.473 351.854 278.522L352.054 278.567C352.886 278.754 353.735 278.855 354.587 278.869C354.831 278.871 355.074 278.859 355.316 278.834ZM402.506 295.16C402.533 295.201 402.563 295.242 402.595 295.28L402.645 295.337L402.389 295.234L402.506 295.16ZM280.183 240.287C283.057 240.287 285.983 240.364 288.734 240.443C289.028 241.327 289.583 242.102 290.326 242.667C291.042 243.254 291.926 243.599 292.852 243.654C292.167 244.713 291.767 245.927 291.69 247.183C291.597 248.421 291.805 249.664 292.295 250.807C291.261 251.211 290.305 251.788 289.468 252.513C288.608 253.261 287.899 254.164 287.378 255.174C287.014 255.876 286.742 256.621 286.568 257.391C286.402 258.132 286.329 258.891 286.353 259.649C286.408 261.16 286.821 262.637 287.557 263.96C286.914 264.553 286.413 265.281 286.091 266.092C285.753 266.91 285.594 267.791 285.626 268.675C285.699 270.386 286.611 271.872 287.493 273.308C287.607 273.493 287.724 273.684 287.836 273.87C288.684 275.28 288.865 276.55 289.076 278.021C289.125 278.36 289.173 278.71 289.235 279.075C289.437 280.376 290.023 281.589 290.92 282.559C291.823 283.492 292.911 284.227 294.115 284.719L293.984 285.234C293.681 286.495 293.284 287.731 292.797 288.933C292.32 290.124 291.614 291.211 290.718 292.133C288.539 294.291 285.227 294.432 282.305 294.557C282.054 294.568 281.828 294.578 281.605 294.589L281.455 294.596C279.135 294.712 276.778 294.845 274.498 294.974L274.493 294.974L274.476 294.974L272.916 295.063L270.781 295.181C270.112 295.218 269.323 295.255 268.545 295.255C267.339 295.279 266.135 295.148 264.963 294.864C263.763 294.561 262.644 294.004 261.682 293.229C259.676 291.614 257.806 289.385 256.127 286.602C254.648 284.106 253.409 281.477 252.426 278.75C251.442 276.057 250.68 273.289 250.148 270.473C249.619 267.661 249.285 264.815 249.15 261.957C249.016 259.092 249.046 256.221 249.241 253.359C249.424 250.606 249.756 247.736 250.227 244.83C256.362 242.853 262.685 241.504 269.097 240.805C272.78 240.433 276.481 240.261 280.183 240.287ZM301.95 239.724C300.641 239.708 299.335 239.854 298.062 240.157C296.84 240.448 295.69 240.979 294.68 241.721C294.676 241.714 294.672 241.707 294.669 241.7C294.665 241.693 294.658 241.679 294.651 241.668C294.334 241.217 293.975 240.799 293.577 240.418L293.564 240.404C293.527 240.37 293.491 240.334 293.452 240.294L293.235 240.064L293.73 239.894C294.485 239.629 295.333 239.311 295.839 239.121C296.043 239.044 296.19 238.989 296.248 238.969L296.261 238.964L296.952 238.732L296.954 238.732C298.056 238.362 299.198 237.978 300.315 237.585C300.514 237.515 300.711 237.442 300.919 237.364C301.819 237.028 302.751 236.681 303.691 236.681C303.875 236.68 304.06 236.694 304.242 236.723C305.183 236.91 306.072 237.299 306.845 237.865C307.675 238.454 308.469 239.092 309.222 239.776L309.224 239.778C309.639 240.14 310.032 240.482 310.42 240.794L309.504 240.618C307.068 240.154 304.468 239.724 301.95 239.724ZM240.173 359.242C240.395 359.243 240.61 359.169 240.784 359.033C240.878 358.958 240.957 358.865 241.014 358.758C241.071 358.652 241.105 358.536 241.116 358.416L241.261 357.021C241.399 355.254 241.736 353.507 242.266 351.815C242.917 349.814 243.346 347.749 243.544 345.656C243.919 342.359 244.086 338.977 244.225 335.797L244.322 333.52C244.632 326.408 244.764 319.457 244.714 312.861C244.661 305.779 244.397 298.832 243.93 292.212L243.859 291.23C243.565 287.254 243.278 284.21 242.928 281.356C242.481 277.704 241.937 274.467 241.265 271.461C239.631 264.148 237.212 258.138 233.869 253.086C233.847 253.051 233.817 253.022 233.781 253.003C233.745 252.983 233.704 252.972 233.663 252.973C233.625 252.972 233.588 252.981 233.553 252.997C233.519 253.013 233.489 253.037 233.465 253.067C233.443 253.095 233.427 253.129 233.42 253.165C233.413 253.2 233.415 253.237 233.424 253.272C235.106 260.117 236.813 267.473 237.907 274.882C238.337 277.792 238.667 280.772 238.914 283.99C239.135 286.857 239.285 289.849 239.372 293.136C239.534 299.242 239.454 305.456 239.375 311.465L239.375 311.524C239.362 312.538 239.348 313.587 239.335 314.618L239.327 315.303C239.255 321.644 239.147 329.147 238.895 336.717C238.866 337.586 238.83 338.474 238.794 339.333C238.683 342.038 238.567 344.835 238.666 347.572C238.731 348.678 238.871 349.777 239.085 350.864C239.224 351.662 239.368 352.487 239.448 353.316C239.547 354.726 239.541 356.141 239.429 357.551C239.415 357.819 239.397 358.123 239.384 358.417C239.374 358.524 239.387 358.632 239.421 358.734C239.455 358.837 239.51 358.931 239.582 359.011C239.66 359.087 239.752 359.147 239.854 359.187C239.956 359.227 240.064 359.246 240.174 359.242L240.173 359.242ZM204.391 358.645C204.779 358.65 205.163 358.578 205.522 358.433C205.881 358.287 206.207 358.072 206.481 357.798C206.681 357.589 206.834 357.339 206.931 357.067C207.027 356.794 207.065 356.504 207.042 356.216C206.543 348.68 206.132 340.584 206.504 332.449C206.863 324.6 207.614 316.611 208.736 308.706C209.434 303.793 210.4 298.844 211.335 294.058C211.661 292.387 211.999 290.661 212.322 288.948L212.516 287.909C213.487 282.686 214.502 277.378 215.484 272.247L215.486 272.238L215.697 271.134L217.295 262.765C219.478 251.344 222.045 238.083 224.891 225.238L225.053 224.505C226.667 217.343 228.372 211.64 230.419 206.557C231.577 203.651 232.937 200.828 234.487 198.109C236.032 195.403 237.822 192.843 239.834 190.46C240.851 189.267 241.933 188.131 243.074 187.055C244.171 186.021 245.358 185.008 246.603 184.045C249.052 182.168 251.641 180.48 254.347 178.993C256.778 177.641 259.51 176.291 262.703 174.869C265.632 173.565 268.65 172.33 271.313 171.239C271.407 171.205 271.485 171.138 271.533 171.052C271.581 170.965 271.597 170.864 271.577 170.767C271.564 170.683 271.52 170.606 271.454 170.551C271.388 170.496 271.305 170.467 271.219 170.468C271.18 170.468 271.142 170.473 271.105 170.482L270.181 170.701C263.741 172.234 256.913 173.986 250.442 177.058C247.311 178.548 244.375 180.413 241.7 182.613C239.029 184.814 236.617 187.309 234.51 190.048C230.724 194.949 227.685 200.676 225.216 207.55C222.87 214.085 221.308 220.934 220.09 226.772C218.653 233.662 217.253 240.679 215.9 247.466C214.415 254.91 212.88 262.607 211.289 270.163L210.725 272.853C209.035 280.931 207.79 287.161 206.689 293.054C205.314 300.415 204.204 307.063 203.296 313.376L203.155 314.363C201.997 322.572 201.345 329.322 201.103 335.605C200.961 339.311 200.966 342.902 201.119 346.28C201.273 349.827 201.617 353.364 202.148 356.875C202.182 357.141 202.27 357.398 202.407 357.629C202.544 357.86 202.727 358.06 202.945 358.219C203.37 358.508 203.876 358.658 204.392 358.645L204.391 358.645ZM302.025 346.826C302.35 346.829 302.668 346.729 302.933 346.541C303.197 346.353 303.395 346.086 303.498 345.779C303.989 344.088 304.223 342.333 304.194 340.573C304.202 338.777 304.046 336.968 303.894 335.22L303.894 335.215C303.85 334.702 303.807 334.217 303.769 333.73L303.535 330.73C303.327 328.039 303.089 324.865 302.906 321.725C302.663 317.571 302.46 313.342 302.277 309.391C302.218 308.12 302.152 306.809 302.077 305.384L301.968 303.381C301.956 303.161 301.945 302.935 301.935 302.716C301.865 301.216 301.792 299.665 301.184 298.319C301.137 298.221 301.062 298.14 300.968 298.084C300.874 298.029 300.766 298.003 300.658 298.008C300.543 298.005 300.429 298.032 300.328 298.086C300.226 298.141 300.142 298.221 300.082 298.319C299.331 299.697 299.178 301.455 299.045 303.006L299.045 303.014C299.03 303.181 299.015 303.353 299 303.52L298.984 303.698C298.742 306.233 298.592 308.184 298.498 310.023C298.292 314.035 298.194 318.079 298.206 322.042C298.221 326.649 298.325 330.679 298.525 334.362L298.586 335.462C298.666 337.305 298.853 339.141 299.148 340.962C299.425 342.763 299.995 344.507 300.836 346.126C300.95 346.34 301.121 346.519 301.331 346.643C301.541 346.766 301.781 346.83 302.025 346.826L302.025 346.826ZM441.853 318.256C441.87 318.256 441.888 318.253 441.904 318.248C442.117 318.197 442.316 318.101 442.488 317.966C442.659 317.831 442.8 317.662 442.899 317.468C443.122 316.982 443.047 316.304 442.675 315.455C441.77 313.391 440.281 311.503 438.839 309.677L438.814 309.644C438.673 309.465 438.533 309.287 438.393 309.111C436.873 307.175 435.219 305.347 433.444 303.638L432.923 303.139C432.722 302.943 432.517 302.737 432.3 302.519C431.569 301.744 430.776 301.029 429.928 300.383C428.941 299.674 428.032 299.331 427.152 299.331C427.082 299.331 427.011 299.334 426.941 299.338C426.727 299.342 426.517 299.395 426.327 299.491C426.136 299.587 425.969 299.725 425.84 299.894C425.71 300.064 425.621 300.26 425.578 300.468C425.536 300.676 425.541 300.891 425.594 301.097C425.92 302.636 427.218 303.591 428.473 304.516C428.832 304.78 429.17 305.028 429.488 305.292C431.089 306.614 432.576 308.007 434.085 309.438C435.38 310.664 436.642 311.937 437.944 313.33L438.411 313.833C438.49 313.919 438.658 314.082 438.871 314.289L438.873 314.292C439.884 315.273 441.984 317.316 441.701 317.928L441.683 317.96C441.665 317.987 441.654 318.019 441.653 318.051C441.652 318.084 441.661 318.116 441.677 318.144C441.694 318.177 441.719 318.204 441.75 318.224C441.781 318.243 441.817 318.254 441.854 318.256L441.853 318.256ZM318.732 278.425C319.504 278.418 320.242 278.106 320.784 277.56C321.357 276.985 321.768 276.27 321.976 275.487C322.151 274.693 322.212 273.879 322.157 273.068C322.139 272.117 322.121 271.133 322.473 270.291C322.672 269.856 322.909 269.439 323.183 269.047C323.449 268.662 323.682 268.257 323.881 267.834C324.244 266.977 324.454 266.063 324.502 265.134C324.492 264.353 324.349 263.58 324.079 262.847C323.743 261.731 323.398 260.577 323.918 259.627C323.967 259.527 323.99 259.416 323.986 259.304C323.981 259.193 323.948 259.085 323.89 258.989C323.848 258.913 323.787 258.849 323.712 258.804C323.638 258.759 323.552 258.735 323.465 258.735L323.453 258.735L323.405 258.738C322.763 258.813 322.168 259.109 321.724 259.575C321.275 260.048 320.958 260.628 320.805 261.26C320.663 261.855 320.557 262.459 320.488 263.067C320.329 264.254 320.179 265.375 319.411 266.501C318.19 268.288 317.497 269.657 317.327 271.763C317.306 272.035 317.295 272.311 317.282 272.576L317.282 272.58C317.273 273.186 317.209 273.791 317.092 274.386L316.949 274.99C316.767 275.626 316.7 276.288 316.748 276.947C316.759 277.245 316.862 277.532 317.044 277.77C317.225 278.007 317.477 278.182 317.763 278.271C318.076 278.372 318.403 278.424 318.732 278.425ZM380.313 246.739C381.561 246.75 382.808 246.664 384.042 246.482C384.116 246.473 384.184 246.437 384.233 246.382C384.283 246.328 384.311 246.257 384.312 246.183C384.32 246.092 384.298 246.001 384.25 245.923C384.201 245.846 384.128 245.786 384.042 245.754C381.644 245.032 379.043 244.738 376.53 244.453C375.955 244.388 375.361 244.32 374.78 244.249C372.09 243.917 368.555 243.467 365.044 242.922C361.542 242.379 358.377 241.844 355.368 241.287C353.923 241.02 352.458 240.737 351.014 240.445C350.706 240.383 350.398 240.305 350.068 240.223C349.337 240.006 348.583 239.879 347.821 239.844C347.414 239.837 347.009 239.908 346.629 240.052C346.444 240.121 346.279 240.234 346.149 240.381C346.018 240.528 345.926 240.705 345.88 240.895C345.847 241.057 345.856 241.224 345.906 241.381C345.956 241.538 346.045 241.68 346.166 241.793C347.041 242.665 348.264 242.849 349.446 243.027C349.673 243.062 349.909 243.097 350.136 243.137L350.261 243.159C351.901 243.461 353.584 243.754 355.261 244.03C358.457 244.556 361.635 245.014 364.708 245.392C368.344 245.84 371.535 246.174 374.464 246.414L375.726 246.517C377.19 246.632 378.759 246.739 380.313 246.739ZM301.779 231.82C301.979 231.821 302.177 231.769 302.351 231.669C302.525 231.57 302.669 231.427 302.77 231.254C304.043 229.152 304.691 226.727 305.318 224.381C305.634 223.2 305.96 221.979 306.362 220.815C306.886 219.297 307.455 217.765 308.005 216.285L308.005 216.282C308.682 214.46 309.381 212.579 310.004 210.703C310.756 208.499 311.323 206.237 311.698 203.94C312.077 201.652 312.146 199.324 311.905 197.018L311.919 196.994C311.931 196.975 311.942 196.957 311.952 196.937L312.322 196.132C313.317 193.984 314.292 192.064 316.144 190.313C316.61 189.872 317.094 189.436 317.562 189.015C319.009 187.71 320.506 186.361 321.647 184.701C322.237 183.848 322.691 182.908 322.991 181.917C323.269 180.982 323.428 180.016 323.465 179.041C323.556 177.1 323.254 175.078 322.963 173.122C322.781 171.907 322.594 170.651 322.5 169.419L322.455 168.78C322.373 167.546 322.381 166.189 323.056 165.478C323.625 164.878 324.737 164.597 325.719 164.349C326.115 164.249 326.488 164.156 326.794 164.047C329.549 163.096 332.23 161.947 334.816 160.608C337.276 159.345 339.629 157.884 341.851 156.24L342.972 155.403C344.746 154.072 346.578 152.623 347.758 150.825C347.785 150.781 347.799 150.73 347.799 150.678C347.799 150.626 347.785 150.575 347.758 150.53C347.735 150.483 347.699 150.442 347.655 150.413C347.611 150.383 347.559 150.366 347.506 150.364C347.475 150.363 347.444 150.368 347.415 150.379C345.932 151.031 344.507 151.808 343.158 152.703L343.154 152.706C342.704 152.985 342.239 153.275 341.779 153.55C341.749 153.48 341.716 153.412 341.679 153.346C340.55 151.321 339.731 149.141 339.249 146.877C338.773 144.611 338.626 142.289 338.812 139.982C338.84 139.751 338.819 139.516 338.749 139.293C338.68 139.07 338.564 138.864 338.409 138.689C338.229 138.509 338.015 138.368 337.778 138.273C337.542 138.179 337.288 138.134 337.034 138.141C336.539 138.137 336.058 138.3 335.668 138.603C335.458 138.77 335.286 138.979 335.163 139.217C335.041 139.455 334.969 139.715 334.955 139.982C334.552 145.303 335.732 150.623 338.347 155.283C338.359 155.305 338.373 155.326 338.386 155.347L338.407 155.379C336.517 156.357 334.942 157.111 333.454 157.749C331.143 158.74 328.992 159.55 326.879 160.225C326.308 160.408 325.713 160.556 325.083 160.713C323.514 161.103 321.894 161.506 320.678 162.468C319.877 163.109 319.263 163.95 318.898 164.905C318.533 165.882 318.336 166.913 318.315 167.954C318.23 170.102 318.659 172.424 319.004 174.289C319.047 174.519 319.091 174.756 319.132 174.985L319.239 175.586C319.576 177.51 319.834 179.547 318.998 181.438C318.184 183.281 316.624 184.672 315.115 186.017L315.097 186.032C314.968 186.147 314.84 186.261 314.713 186.375L314.389 186.665C312.873 188.038 311.329 189.545 310.308 191.253C309.467 189.525 308.347 188.065 307.161 186.521L307.157 186.515C307.006 186.318 306.849 186.113 306.693 185.909C305.903 184.872 306.212 184.39 306.724 183.59C306.844 183.403 306.979 183.191 307.112 182.952C307.447 182.368 307.693 181.739 307.842 181.084C307.987 180.428 308.009 179.751 307.907 179.087C307.81 178.469 307.616 177.87 307.331 177.311C307.047 176.76 306.698 176.245 306.291 175.776C305.455 174.841 304.497 174.021 303.443 173.336C302.033 172.416 300.577 171.566 299.081 170.791C298.021 170.219 296.926 169.628 295.882 168.991C290.734 165.882 285.87 162.331 281.345 158.379C281.317 158.354 281.281 158.341 281.243 158.341C281.214 158.341 281.184 158.349 281.159 158.363C281.133 158.378 281.111 158.4 281.096 158.425C281.085 158.447 281.08 158.471 281.081 158.495C281.083 158.519 281.092 158.543 281.106 158.562C284.551 163.866 288.868 168.558 293.878 172.439C295.64 173.795 297.518 174.979 299.335 176.124C299.677 176.34 299.986 176.535 300.295 176.731L300.923 177.132C301.932 177.781 302.917 178.507 303.289 179.411C303.593 180.148 303.165 180.756 302.751 181.344C302.621 181.528 302.488 181.717 302.379 181.908C302.04 182.489 301.802 183.123 301.675 183.782C301.567 184.379 301.566 184.991 301.673 185.588C301.94 186.839 302.517 188.005 303.35 188.979L303.43 189.078C305.168 191.205 306.45 193.164 307.063 195.807C307.667 198.415 307.666 201.266 307.058 204.518C306.511 207.443 305.55 210.307 304.595 212.966L304.518 213.178C304.263 213.887 304 214.603 303.744 215.298L303.741 215.306C302.946 217.469 302.125 219.705 301.433 221.944L301.182 222.762C300.35 225.499 299.679 228.184 300.604 230.971C300.685 231.218 300.842 231.433 301.053 231.585C301.264 231.737 301.518 231.819 301.779 231.82ZM291.416 192.8C291.67 192.8 291.929 192.791 292.187 192.772C293.713 192.682 295.2 192.258 296.542 191.53C297.094 191.178 297.609 190.77 298.078 190.313C299.059 189.429 300.072 188.516 301.194 188.516C301.407 188.516 301.619 188.55 301.822 188.616C301.84 188.622 301.859 188.625 301.878 188.625C301.924 188.622 301.968 188.605 302.005 188.577C302.041 188.549 302.069 188.511 302.083 188.467C302.098 188.432 302.1 188.393 302.091 188.356C302.081 188.319 302.059 188.286 302.029 188.263C301.557 187.866 300.959 187.649 300.341 187.651C299.219 187.651 298.069 188.312 296.957 188.951C296.301 189.364 295.603 189.707 294.875 189.974C293.282 190.479 291.57 190.482 289.974 189.982C288.379 189.482 286.978 188.505 285.964 187.183C283.719 184.316 281.651 181.316 279.772 178.201C278.81 176.652 277.946 175.046 277.187 173.39C276.791 172.446 276.484 171.466 276.272 170.464C276.099 169.698 275.884 168.942 275.627 168.199C275.458 167.736 275.137 167.344 274.716 167.084C274.318 166.841 273.859 166.712 273.391 166.711C273.111 166.704 272.832 166.754 272.571 166.857C272.31 166.96 272.072 167.114 271.873 167.31C271.696 167.507 271.562 167.738 271.479 167.989C271.396 168.24 271.367 168.505 271.392 168.768C271.493 170.56 272.212 172.217 272.907 173.82C272.973 173.973 273.039 174.125 273.105 174.278L273.187 174.469C273.967 176.31 274.902 178.081 275.983 179.765C278.098 183 280.489 186.048 283.129 188.876C284.187 190.053 285.458 191.023 286.875 191.736C288.286 192.435 289.84 192.799 291.416 192.8L291.416 192.8ZM272.572 165.419C273.086 165.404 273.574 165.19 273.931 164.823C275.427 163.427 276.807 161.914 278.06 160.298C279.329 158.699 280.325 156.902 281.009 154.982C281.025 154.932 281.028 154.878 281.019 154.827C281.01 154.775 280.989 154.726 280.957 154.685C280.921 154.635 280.875 154.595 280.821 154.566C280.767 154.538 280.707 154.522 280.646 154.521C280.584 154.521 280.524 154.539 280.473 154.572C279.454 155.267 278.485 156.031 277.572 156.859C277.136 157.236 276.686 157.626 276.235 157.993C274.669 159.265 273.083 160.517 271.52 161.714C271.133 161.992 270.846 162.388 270.702 162.841C270.59 163.226 270.602 163.637 270.735 164.015C270.859 164.408 271.102 164.754 271.431 165.005C271.76 165.256 272.158 165.4 272.572 165.419ZM283.497 159.162C283.956 159.159 284.401 158.998 284.756 158.708C286.817 157.055 288.339 154.832 289.128 152.319C289.526 151.078 289.748 149.788 289.789 148.486C289.831 147.172 289.685 145.859 289.354 144.586C289.269 144.192 289.048 143.84 288.729 143.591C288.41 143.342 288.013 143.212 287.608 143.224C287.291 143.223 286.977 143.292 286.69 143.425C286.403 143.558 286.148 143.752 285.944 143.994C285.773 144.207 285.654 144.458 285.597 144.725C285.54 144.993 285.546 145.27 285.616 145.535L285.633 145.605C286.123 147.473 286.047 149.442 285.414 151.266C284.776 153.084 283.643 154.691 282.141 155.907L282.029 155.998C281.74 156.213 281.527 156.513 281.42 156.855C281.338 157.151 281.351 157.464 281.457 157.753C281.619 158.162 281.899 158.513 282.262 158.764C282.625 159.015 283.055 159.153 283.497 159.162Z" fill="#222222"/>
<path d="M259.574 60.2767C262.568 47.5555 269.412 36.0514 279.185 27.3135C310.076 -3.03821 366.805 13.4361 366.548 59.175C367.681 64.5247 368.081 70.0018 367.739 75.458C367.588 77.7826 366.575 81.0265 367.934 83.1186C371.005 87.0321 372.787 89.9164 371.742 95.1226C370.87 99.6683 367.756 102.889 363.556 104.601C361.036 105.319 358.646 106.884 357.712 109.27C352.104 119.474 347.95 127.961 339.109 134.915C336.827 136.706 313.429 147.443 305.719 147.443C283.149 147.443 254.702 139.318 254.23 114.263C254.148 108.759 255.12 103.192 255.729 97.7324C257.213 85.2731 256.689 72.3625 259.574 60.2767Z" fill="white"/>
<path fill-rule="evenodd" clip-rule="evenodd" d="M355.188 99.9256C354.852 100.149 354.455 100.266 354.051 100.262C353.576 100.256 353.111 100.126 352.703 99.8837C352.296 99.6415 351.96 99.2961 351.731 98.8829C351.58 98.5805 351.523 98.2409 351.565 97.9061C351.607 97.5714 351.747 97.2563 351.968 97.0002C352.739 95.975 353.605 95.0237 354.554 94.1584C355.51 93.2952 356.599 92.59 357.78 92.0699C358.977 91.5511 360.271 91.2898 361.577 91.3031C362.594 91.3165 363.607 91.4244 364.603 91.6252C364.643 91.6346 364.677 91.6576 364.701 91.69C364.725 91.7223 364.736 91.762 364.733 91.802C364.736 91.8414 364.724 91.8804 364.7 91.912C364.676 91.9436 364.642 91.9658 364.603 91.9746C363.659 92.154 362.744 92.4599 361.883 92.8841C360.947 93.3383 360.064 93.8949 359.251 94.5436L359.297 94.6106C359.633 95.1368 359.757 95.7689 359.645 96.3818C359.608 96.5464 359.512 96.6922 359.376 96.7927C359.24 96.8932 359.071 96.9416 358.902 96.9293C358.765 96.9301 358.63 96.9 358.507 96.8411C358.16 96.659 357.869 96.3882 357.663 96.0566C356.96 96.831 356.415 97.7328 356.056 98.7125L356.021 98.8091C355.868 99.2585 355.576 99.6489 355.188 99.9256Z" fill="#222222"/>
<path d="M297.791 150.113C300.435 150.144 303.069 149.78 305.604 149.031C308.14 148.253 310.51 146.96 312.485 145.194C313.425 144.38 313.649 143.044 313.195 141.917C312.506 140.151 310.292 138.794 308.564 140.144C296.852 148.874 276.267 141.412 265.743 132.487C262.844 130.023 260.531 126.952 258.971 123.493C257.431 120.021 256.572 116.289 256.439 112.497C256.158 106.101 257.065 99.6668 257.73 93.3085C258.047 90.2645 258.375 87.1172 258.681 84.0171C259.823 72.4801 261.164 61.4036 264.722 49.9351C268.28 38.4667 286.003 22.1932 293.198 19.07C308.356 12.4732 327.098 14.4881 341.126 23.0876C350.59 28.9747 357.76 37.8826 361.462 48.351C365.249 59.0248 363.082 68.6605 364.372 79.2264C363.159 78.8405 361.894 78.6392 360.62 78.6293C360.105 78.629 359.59 78.6659 359.08 78.7397C356.383 79.133 354.802 80.2472 353.62 82.5856C353.608 82.6068 353.602 82.6306 353.603 82.6547C353.603 82.6787 353.61 82.7022 353.623 82.7228C353.635 82.7425 353.652 82.7587 353.673 82.7699C353.693 82.7812 353.716 82.7872 353.739 82.7872C353.763 82.787 353.786 82.7814 353.806 82.7708C354.524 82.4547 355.306 82.3058 356.091 82.3357C358.997 82.4009 361.822 83.3087 364.216 84.9475C365.574 85.8666 366.75 87.025 367.688 88.3654C368.632 89.7034 369.262 91.2356 369.53 92.8483C369.652 93.6238 369.67 94.412 369.583 95.1922C369.496 95.9665 369.316 96.7278 369.048 97.4601C368.504 98.9331 367.656 100.277 366.56 101.406C365.997 101.99 365.382 102.523 364.723 102.997C364.064 103.472 363.352 103.872 362.602 104.188C361.952 104.444 361.283 104.652 360.602 104.812L360.602 104.812C359.463 105.106 358.388 105.384 357.374 106.172C357.152 106.34 356.975 106.56 356.859 106.811C356.743 107.063 356.691 107.34 356.708 107.616C356.743 108.167 356.948 108.693 357.294 109.124C355.58 110.992 353.937 112.981 352.348 114.905L352.346 114.907C350.787 116.795 349.174 118.747 347.493 120.586C346.067 122.147 344.415 123.967 342.851 125.808L342.288 126.477C341.869 126.979 341.389 127.482 340.881 128.013L340.879 128.015C339.559 129.396 338.195 130.823 337.699 132.461C337.617 132.784 337.611 133.12 337.681 133.445C337.752 133.771 337.897 134.075 338.106 134.335C338.284 134.592 338.519 134.805 338.793 134.957C339.067 135.109 339.373 135.195 339.686 135.21C339.908 135.21 340.127 135.165 340.33 135.079C341.332 134.625 342.232 133.977 342.977 133.172C343.759 132.345 344.493 131.474 345.174 130.563L345.178 130.557C345.452 130.206 345.71 129.874 345.971 129.551L346.075 129.422C347.736 127.381 349.245 125.222 350.59 122.963L351.036 122.218C353.432 118.215 355.904 113.923 357.492 109.35C357.593 109.454 357.703 109.549 357.82 109.633C358.594 110.158 359.515 110.427 360.451 110.4C361.367 110.38 362.274 110.224 363.143 109.937C363.985 109.668 364.807 109.344 365.606 108.967C367.754 107.976 369.663 106.537 371.201 104.748C372.019 103.797 372.733 102.763 373.333 101.663C373.921 100.583 374.385 99.4405 374.717 98.2574C375.047 97.0768 375.234 95.8613 375.274 94.6367C375.313 93.3843 375.196 92.1318 374.926 90.908C374.426 88.7287 373.48 86.675 372.148 84.8744C370.829 83.0479 369.13 81.5254 367.165 80.4108C369.004 78.3072 369.725 75.4407 370.185 72.9139C371.972 62.585 370.034 51.8354 365.846 42.2975C360.88 30.9435 352.037 21.379 340.979 15.6487C329.723 9.84234 316.894 7.76222 304.364 9.71171C289.36 12.0664 273.71 26.4781 268.704 33.4824C263.697 40.4867 260.418 47.4144 258.971 54.1904C257.524 60.9664 254.31 88.2009 253.016 93.0896C251.721 97.9784 249.094 119.99 256.796 130.742C265.703 143.116 282.842 150.051 297.791 150.113Z" fill="#222222"/>
<path fill-rule="evenodd" clip-rule="evenodd" d="M275.594 64.8672L276.06 64.7725C276.608 64.6635 277.158 64.7096 277.642 64.9052C278.116 65.0971 278.53 65.4311 278.819 65.9131C279.203 66.5549 279.254 67.0935 279.076 67.805C278.938 68.3547 278.637 68.7683 278.242 69.067C277.826 69.3817 277.299 69.5653 276.751 69.6291C274.226 69.924 271.738 70.4761 269.32 71.26C268.187 71.6274 267.118 72.125 266.058 72.6415L265.145 73.0887C264.302 73.4982 263.432 73.8929 262.332 74.1793C262.245 74.2018 262.16 74.2231 262.075 74.2431C261.77 74.1479 261.719 74.0326 261.654 73.949L261.628 73.9164C261.549 73.8185 261.452 73.6686 261.544 72.9691C263.944 68.0226 270.527 65.9199 275.594 64.8672ZM307.041 66.2704L306.433 66.1646C304.551 65.8411 302.211 65.5303 300.879 67.034C300.173 67.8314 299.93 69.3134 300.879 70.0767C302.122 71.0765 303.463 71.0435 304.892 71.0083C305.383 70.9962 305.884 70.9838 306.395 71.0129C308.044 71.1069 309.629 71.3781 311.217 71.8293C314.701 72.8189 317.54 74.6256 320.516 76.6094C320.906 76.8696 321.305 76.3734 321.119 76.0104C319.401 72.6666 316.072 69.9198 312.737 68.2455C310.958 67.3518 309.01 66.6105 307.041 66.2704ZM311.456 80.8643C311.186 77.5291 306.075 76.7717 305.566 80.072C305.111 83.0284 305.647 85.7443 306.987 88.406C308.267 90.9489 311.485 89.7625 311.729 87.447C311.969 85.1598 311.798 83.7956 311.625 82.4059C311.563 81.9096 311.5 81.4102 311.456 80.8643ZM269.575 78.1849C270.808 77.8271 271.837 78.4602 272.549 79.3877C272.632 79.4946 272.699 79.6006 272.759 79.7056C274.984 81.7371 274.146 85.8557 272.396 87.9181C271.322 89.1828 268.946 88.8186 268.212 87.3822C266.859 84.7373 265.724 79.3033 269.575 78.1849ZM279.445 103.051C276.812 99.3865 280.541 95.9396 282.988 94.4614C283.629 94.0041 283.12 92.4892 281.75 92.7234C269.307 94.8479 275.754 116.148 291.641 104.46C293.532 102.943 291.242 99.6036 289.203 100.902C289.1 100.981 288.991 101.064 288.878 101.151C286.588 102.911 282.398 106.131 279.445 103.051ZM290.839 125.558C293.017 124.675 294.961 123.202 296.382 121.32C296.876 120.666 297.004 119.975 296.9 119.343C296.784 118.632 296.361 117.989 295.784 117.556C295.206 117.123 294.482 116.91 293.782 117.019C293.174 117.113 292.569 117.444 292.09 118.13L291.99 118.268C291.145 119.403 290.044 120.335 288.79 120.936C287.581 121.515 286.228 121.785 284.829 121.628C282.164 121.329 280.327 119.896 278.375 117.951C278.133 117.706 277.891 117.452 277.648 117.195C277.494 116.962 277.281 116.812 277.044 116.733C276.781 116.646 276.484 116.651 276.211 116.746C275.949 116.837 275.714 117.009 275.556 117.239C275.407 117.457 275.322 117.727 275.349 118.038C275.528 120.053 276.589 121.852 278.095 123.265C279.768 124.834 281.985 125.919 284.073 126.3C286.373 126.719 288.717 126.419 290.839 125.558Z" fill="#222222"/>
<path fill-rule="evenodd" clip-rule="evenodd" d="M263.034 118.521C262.213 119.921 261.52 121.407 260.97 122.941C260.711 123.661 258.772 131.461 259.999 135.93C261.18 140.232 263.316 144.312 266.018 147.894C268.5 151.183 271.63 153.916 275.507 155.428C280.565 157.402 286.597 156.847 291.876 156.337C298.468 155.699 304.947 154.242 311.215 152.133C314.351 151.083 317.429 149.87 320.461 148.558C323.442 147.272 326.61 146.005 329.403 144.338C331.804 142.903 333.853 140.647 335.814 138.69C338.904 135.608 341.927 132.393 344.597 128.938C347.089 125.714 348.953 122.728 349.584 118.65C350.56 112.327 349.652 105.683 348.786 99.34C348.716 98.827 348.646 98.316 348.577 97.8072C348.551 97.5945 348.215 97.4816 348.144 97.7008C348.15 97.5816 348.157 97.4626 348.163 97.3433C348.186 96.8336 347.438 96.7662 347.299 97.2269C345.597 102.824 342.817 107.917 338.82 112.221C333.317 118.145 326.283 122.256 319.454 126.53C319.225 126.315 318.946 126.163 318.651 126.105C317.664 121.69 314.399 117.587 311.17 114.794C301.717 106.625 286.571 103.114 274.866 108.095C269.918 110.203 265.75 113.892 263.034 118.521ZM296.915 115.336C303.507 116.977 309.233 121.466 311.857 127.575C312.055 128.908 312.039 130.257 311.755 131.594C306.159 135.502 299.288 137.556 292.411 136.76C290.268 134.118 287.896 129.613 284.294 129.093C281.627 128.709 279.74 130.455 277.844 132.209C276.87 133.11 275.893 134.014 274.808 134.631C274.629 134.732 274.435 134.831 274.234 134.927C272.181 134.758 270.122 134.281 268.397 133.116C266.629 131.924 265.959 130.309 265.644 128.412C265.734 128.05 265.831 127.689 265.934 127.332C266.659 124.817 267.691 122.364 269.209 120.22C270.484 118.411 272.18 116.87 274.261 116.055C276.698 115.101 279.471 114.897 282.057 114.649C286.992 114.172 292.073 114.133 296.915 115.336Z" fill="#222222"/>
</g>
<rect y="342" width="480" height="4" fill="#222222"/>
</g>
<defs>
<clipPath id="clip0_7439_3869">
<rect width="480" height="346" rx="20" fill="white"/>
</clipPath>
<clipPath id="clip1_7439_3869">
<rect width="254" height="348" fill="white" transform="matrix(-1 -8.74228e-08 -8.74228e-08 1 455 9)"/>
</clipPath>
</defs>
</svg>
