<svg width="165" height="51" viewBox="0 0 165 51" fill="none" xmlns="http://www.w3.org/2000/svg">
<g filter="url(#filter0_d_2_536)">
<g clip-path="url(#clip0_2_536)">
<rect width="50" height="50" rx="25" fill="white"/>
<path d="M39.7062 49.6875L25.0984 49.6875L25.0984 67.7161H39.7062V49.6875Z" fill="white"/>
<path d="M6.35418 76.6623H6.35322C6.28173 76.6644 6.21067 76.6506 6.14515 76.6218C6.07964 76.5931 6.02131 76.5501 5.97437 76.496C5.91896 76.4263 5.87893 76.3456 5.85694 76.2593C5.83495 76.1729 5.83149 76.0829 5.84679 75.9951C5.91154 75.5651 5.97437 75.1279 6.03504 74.705V74.7043V74.7027C6.06853 74.4695 6.10316 74.2283 6.13774 73.9912C4.81926 74.3502 3.4601 74.5375 2.09385 74.5483C1.51727 74.5491 0.941324 74.5099 0.370129 74.4311C-0.203753 74.3512 -0.770558 74.2267 -1.32515 74.0586C-1.35168 74.0315 -1.36163 74.0093 -1.35462 73.9927C-1.3425 73.9637 -1.28151 73.9503 -1.16261 73.9503C-1.11796 73.9503 -1.07171 73.952 -1.02406 73.954L-1.01302 73.9545C-0.972134 73.9561 -0.933541 73.9577 -0.90222 73.9577C-0.880979 73.9587 -0.859702 73.957 -0.838877 73.9527C-1.29884 73.6407 -1.67368 73.2185 -1.9293 72.7243C-2.05246 72.4857 -2.15178 72.2356 -2.22579 71.9774C-2.30144 71.7127 -2.35713 71.4427 -2.39241 71.1697C-2.46077 70.6007 -2.47785 70.0267 -2.44344 69.4546C-2.41563 68.8745 -2.35541 68.3001 -2.29724 67.7446V67.7437C-2.26534 67.4368 -2.23472 67.1467 -2.21074 66.8657C-2.00661 65.5464 -1.82066 64.1761 -1.64084 62.8508V62.8497C-1.18156 59.4656 -0.706641 55.9664 0.146036 52.6352C0.366301 51.7747 0.607426 50.9443 0.862777 50.1669C1.13643 49.3338 1.43746 48.5279 1.75736 47.7717C2.09628 46.9707 2.46881 46.196 2.86462 45.4692C3.27529 44.7144 3.7278 43.9832 4.22003 43.2791C4.73783 42.581 5.3123 41.9269 5.93756 41.3237C6.56362 40.719 7.24303 40.1723 7.96748 39.6905C8.68885 39.2105 9.45774 38.8065 10.2619 38.4849C11.0697 38.1626 11.9125 37.9369 12.773 37.8124L12.8693 37.7992C13.0357 37.777 13.2088 37.7568 13.3763 37.7373C14.2538 37.635 15.161 37.5291 15.903 37.0665C16.289 36.7578 16.5856 36.3523 16.8731 35.9605C17.0994 35.6516 17.3132 35.3595 17.5522 35.1422C17.6652 35.0359 17.7937 34.9477 17.9333 34.8804C18.072 34.815 18.2232 34.7803 18.3766 34.7786H18.382C18.5217 34.7885 18.6569 34.8329 18.7753 34.9079C18.9184 34.9865 19.0715 35.0924 19.2335 35.2044C19.385 35.3092 19.5416 35.4175 19.7025 35.5121C19.7244 35.1332 19.8493 34.7944 19.9696 34.4667C20.0586 34.249 20.1262 34.0231 20.1715 33.7923L20.1778 33.7488C20.1933 33.6356 20.202 33.5235 20.2103 33.4151C20.2458 32.9512 20.2793 32.5132 20.8375 32.0544C21.1091 31.8535 21.403 31.6849 21.7133 31.5517C22.0731 31.3944 22.4445 31.2651 22.8242 31.1649C23.2335 31.0555 23.6495 30.9724 24.0695 30.9164C24.4934 30.8587 24.9206 30.8293 25.3484 30.8284C25.8534 30.8238 26.3574 30.875 26.8511 30.9811C27.3317 31.0898 27.7337 31.2541 28.0461 31.4692C28.3323 31.6686 28.5917 31.9041 28.818 32.1698C29.03 32.4204 29.2153 32.6926 29.3709 32.9817C29.6831 33.553 29.895 34.1652 30.1193 34.8133C30.282 35.2832 30.4502 35.769 30.6604 36.239C30.8329 36.1611 31.0204 36.1226 31.2095 36.1261C31.5572 36.1317 31.8978 36.2257 32.1993 36.3992C32.3414 36.479 32.4707 36.5796 32.5829 36.6979C32.6842 36.8024 32.7608 36.9285 32.8069 37.0667C32.96 37.2534 33.028 37.6382 33.094 38.0104V38.0107C33.1418 38.2816 33.187 38.5373 33.2623 38.7165C33.7478 38.7939 34.2187 38.8922 34.6621 39.0084C35.0866 39.1191 35.5047 39.2528 35.9147 39.4091C36.2959 39.5548 36.6682 39.7229 37.0296 39.9127C37.3706 40.0922 37.7001 40.2927 38.0163 40.5132C38.3196 40.7253 38.6093 40.9562 38.8838 41.2046C39.1521 41.4477 39.4054 41.707 39.6424 41.9808C39.8777 42.2534 40.0975 42.539 40.3008 42.8363C40.5055 43.1361 40.6949 43.446 40.8685 43.7648C41.224 44.4234 41.5255 45.1098 41.77 45.8174C42.0288 46.5626 42.2465 47.3216 42.4221 48.0908C42.7725 49.5926 43.0184 51.1834 43.2799 53.11C43.629 55.084 44.1101 57.0918 44.5754 59.0335V59.0338C44.8773 60.2932 45.1893 61.5959 45.4636 62.8807C45.7712 64.3221 45.9972 65.5864 46.1543 66.7459C46.3353 68.0354 46.4333 69.3353 46.4477 70.6375C46.4525 71.3024 46.4307 71.9614 46.383 72.5959C46.333 73.2618 46.2526 73.924 46.1441 74.564C46.3033 74.7931 46.4391 75.0377 46.5495 75.294C46.6176 75.4112 46.6512 75.5454 46.6465 75.681C46.642 75.8131 46.6053 75.9421 46.5396 76.0568C46.4805 76.167 46.3932 76.2595 46.2865 76.3246C46.1799 76.3897 46.0578 76.425 45.933 76.427H45.9326C45.9223 76.427 45.9117 76.427 45.9012 76.4262C45.6939 76.408 45.484 76.3876 45.2811 76.3678H45.2802C44.7646 76.3176 44.2315 76.2655 43.7022 76.2459C42.6281 76.2085 41.4715 76.1903 40.1665 76.1903C39.4055 76.1903 38.5787 76.1963 37.5643 76.2095L37.2853 76.2132C33.1462 76.2648 28.9392 76.3377 24.8707 76.4083C18.8024 76.5132 12.5268 76.6222 6.35418 76.6623ZM28.947 53.5024C28.8057 54.1135 29.0337 54.6106 29.2751 55.1369C29.4115 55.415 29.5248 55.7038 29.6139 56.0006C29.6713 56.2102 29.6494 56.5339 29.6301 56.8195C29.6222 56.936 29.6147 57.046 29.6139 57.1353C29.6246 57.3065 29.7159 57.4953 29.8045 57.6779C29.9172 57.9105 30.0336 58.151 29.9939 58.3675C29.9007 58.8761 29.6523 59.3867 29.412 59.8806C29.2073 60.3013 28.9956 60.7364 28.8859 61.1615C28.8295 61.3688 28.8028 61.5831 28.8068 61.798C28.8122 62.0166 28.8599 62.2322 28.9471 62.4327C29.3299 63.1871 30.4832 63.574 31.2464 63.8298L31.2502 63.8311C31.4669 63.9126 31.6913 63.9715 31.92 64.0069C32.1677 64.0457 32.4181 64.0648 32.6688 64.064C33.4321 64.0604 34.188 63.9134 34.8972 63.6306C35.2326 63.4982 35.5509 63.326 35.8454 63.1176C36.1119 62.9316 36.3433 62.6997 36.529 62.4326C36.8371 61.9733 37.1815 61.0614 37.4582 60.3286C37.6283 59.8779 37.7752 59.4889 37.885 59.2743L37.95 58.3637C38.0258 57.2945 38.1061 56.0741 38.1002 55.1218C38.0938 54.0641 37.9825 53.4748 37.7606 53.3204C37.2675 52.9771 36.5599 52.7226 35.6574 52.5643C34.8106 52.4264 33.9535 52.3612 33.0956 52.3696C32.135 52.3696 31.292 52.4341 30.7539 52.4882C30.1288 52.5511 29.7341 52.6179 29.7004 52.64C29.6239 52.6906 29.5588 52.7288 29.5015 52.7625C29.3426 52.8559 29.2468 52.9124 29.1324 53.0934C28.9803 53.1137 28.8251 53.1351 28.6711 53.157C28.5691 53.1905 28.5155 53.2598 28.5286 53.3424C28.5391 53.3951 28.5694 53.4418 28.6133 53.4728C28.6669 53.512 28.7319 53.5325 28.7983 53.5312C28.8492 53.5308 28.8995 53.521 28.947 53.5024H28.947Z" fill="white"/>
<path d="M6.35303 76.6609C6.28154 76.663 6.21048 76.6492 6.14496 76.6205C6.07945 76.5917 6.02112 76.5488 5.97418 76.4947C5.91877 76.425 5.87874 76.3443 5.85675 76.2579C5.83476 76.1716 5.8313 76.0815 5.8466 75.9937C5.91154 75.5628 5.97418 75.1257 6.03497 74.703L6.03644 74.6927C6.06955 74.4625 6.10374 74.224 6.13787 73.9898C4.81939 74.3489 3.46023 74.5361 2.09398 74.547C1.5174 74.5477 0.941453 74.5085 0.370257 74.4297C-0.203786 74.35 -0.770762 74.2256 -1.32553 74.0577C-1.35207 74.0306 -1.36195 74.0084 -1.355 73.9918C-1.34288 73.9628 -1.2819 73.9494 -1.16299 73.9494C-1.11834 73.9494 -1.07216 73.9511 -1.02444 73.9531L-1.01341 73.9535C-0.972453 73.9552 -0.933796 73.9568 -0.902603 73.9568C-0.881361 73.9578 -0.860085 73.9561 -0.83926 73.9518C-1.29921 73.6397 -1.67398 73.2172 -1.92949 72.7229C-2.05265 72.4844 -2.15197 72.2342 -2.22598 71.976C-2.30157 71.7113 -2.3572 71.4413 -2.39241 71.1683C-2.46077 70.5993 -2.47785 70.0253 -2.44344 69.4532C-2.41563 68.8731 -2.35541 68.2987 -2.29724 67.7432C-2.26534 67.436 -2.23466 67.1458 -2.21061 66.8642C-2.00648 65.5449 -1.82054 64.1748 -1.64071 62.8494V62.8483C-1.18143 59.4642 -0.706513 55.965 0.146163 52.6338C0.366429 51.7733 0.607554 50.9428 0.862905 50.1655C1.13656 49.3323 1.43752 48.5265 1.75749 47.7703C2.09641 46.9693 2.46894 46.1946 2.86475 45.4678C3.27532 44.713 3.72772 43.9818 4.21984 43.2777C4.73764 42.5796 5.31211 41.9256 5.93737 41.3223C6.56343 40.7176 7.24284 40.171 7.96729 39.6891C8.6887 39.2091 9.45764 38.8051 10.2619 38.4835C11.0696 38.1612 11.9125 37.9355 12.773 37.811L12.8693 37.7978L12.9662 37.7851C13.1015 37.7678 13.2412 37.7515 13.3764 37.7358C14.2538 37.6335 15.1611 37.5277 15.903 37.065C16.2888 36.7563 16.5855 36.3508 16.873 35.959C17.0899 35.6631 17.2946 35.3836 17.5214 35.1692C17.6286 35.0649 17.7496 34.976 17.881 34.9048C18.0092 34.8362 18.1499 34.7942 18.2947 34.7812L18.928 35.1707L22.6061 36.9928C22.9609 37.0924 23.2308 37.2033 23.4082 37.3227C23.5856 37.4421 23.6756 37.5731 23.6756 37.7122V40.5584C23.6756 40.748 23.8445 41.0619 24.1775 41.4915C24.5104 41.9211 25.0171 42.4785 25.6829 43.1481L26.9193 41.9129L26.8916 41.7511C26.7745 41.0574 26.7151 40.5869 26.7151 40.3527C26.7151 40.2896 26.7916 40.1811 26.9419 40.03C27.1579 39.8218 27.385 39.6254 27.6222 39.4418C28.2242 38.9634 29.1399 38.2996 30.3438 37.4689L31.4021 36.4703L31.2892 36.1264C31.4558 36.1351 31.6205 36.1649 31.7795 36.2151C31.9385 36.2642 32.091 36.3323 32.2337 36.4179C32.5287 36.5957 32.7322 36.8256 32.8069 37.0651C32.96 37.2519 33.028 37.6367 33.0939 38.0088V38.0092C33.1418 38.28 33.1869 38.5358 33.2623 38.7149C33.7477 38.7923 34.2187 38.8906 34.662 39.0068C35.0865 39.1175 35.5047 39.2513 35.9146 39.4076C36.2959 39.5532 36.6682 39.7214 37.0296 39.9111C37.3705 40.0906 37.7 40.2912 38.0162 40.5116C38.3195 40.7237 38.6093 40.9546 38.8837 41.2031C39.152 41.4463 39.4053 41.7055 39.6423 41.9794C39.8775 42.252 40.0973 42.5376 40.3006 42.8349C40.5053 43.1347 40.6947 43.4446 40.8684 43.7634C41.2239 44.4219 41.5254 45.1083 41.7699 45.8158C42.0287 46.561 42.2464 47.32 42.422 48.0892C42.7725 49.591 43.0184 51.1818 43.2798 53.1084C43.629 55.0824 44.1101 57.0902 44.5754 59.0318V59.0322C44.8772 60.2916 45.1893 61.5943 45.4635 62.8791C45.7712 64.3205 45.9971 65.5848 46.1542 66.7442C46.3352 68.0338 46.4332 69.3337 46.4477 70.6359C46.4524 71.3008 46.4307 71.9598 46.383 72.5943C46.3329 73.2602 46.2525 73.9223 46.1441 74.5624C46.3033 74.7915 46.4391 75.0361 46.5494 75.2924C46.6175 75.4096 46.6512 75.5438 46.6464 75.6794C46.6419 75.8115 46.6052 75.9405 46.5395 76.0552C46.4805 76.1654 46.3931 76.2579 46.2865 76.3229C46.1798 76.388 46.0578 76.4234 45.9329 76.4254H45.9326C45.9223 76.4254 45.9117 76.4254 45.9011 76.4247C45.6946 76.4065 45.4852 76.3863 45.2827 76.3664H45.281C44.765 76.3161 44.2317 76.2641 43.7021 76.2444C42.6277 76.207 41.4712 76.1888 40.1663 76.1888C39.4055 76.1888 38.5787 76.1948 37.5642 76.208L37.2853 76.2117C33.1476 76.2633 28.9406 76.3363 24.8722 76.4068H24.8708C18.802 76.512 12.5266 76.6208 6.35386 76.661L6.35303 76.6609ZM16.8421 59.7965L16.3302 63.5172L17.5614 66.1742L20.349 65.233L24.8915 64.033L27.4978 61.383L28.9682 60.8883C28.8773 61.1367 28.8231 61.3971 28.8075 61.6613C28.7941 61.9253 28.8417 62.189 28.9468 62.4315C29.3296 63.1859 30.4829 63.5728 31.2461 63.8287L31.2499 63.8299C31.4665 63.9114 31.691 63.9704 31.9197 64.0057C32.1674 64.0446 32.4178 64.0637 32.6685 64.0629C33.4318 64.0593 34.1876 63.9122 34.8969 63.6294C35.2323 63.4971 35.5506 63.3248 35.845 63.1165C36.1115 62.9305 36.343 62.6985 36.5285 62.4314C36.8367 61.9722 37.1811 61.0602 37.4577 60.3275C37.6279 59.8768 37.7748 59.4877 37.8845 59.2731L37.9687 58.0904C38.0433 57.0163 38.1107 55.8993 38.0986 55.0098C38.0851 54.0216 37.9744 53.4686 37.7601 53.3194C37.267 52.9761 36.5594 52.7217 35.6569 52.5633C34.8101 52.4254 33.953 52.3603 33.0951 52.3686C32.1345 52.3686 31.2915 52.4331 30.7534 52.4872C30.1283 52.5501 29.7335 52.6169 29.6999 52.6391C29.6234 52.6896 29.5583 52.7278 29.501 52.7615C29.3421 52.8549 29.2463 52.9114 29.1319 53.0925L29.0513 53.1033L29.5049 52.4866L29.3443 52.4007C28.7738 52.0975 28.2965 51.867 27.9255 51.7154C27.5545 51.5638 27.2793 51.487 27.1077 51.487C26.9281 51.487 26.6507 51.6286 26.283 51.908C25.7922 52.2983 25.3273 52.7202 24.8913 53.1712L24.7928 53.2168C24.2162 53.4795 23.6543 53.7734 23.1095 54.0971C22.6644 54.3685 22.328 54.6226 22.1097 54.8525L22.094 54.8691C21.6527 55.3436 20.7671 56.6225 19.461 58.6704L17.561 59.7966L16.8421 59.7965ZM29.5792 55.883L28.8924 54.5652V53.5182C28.9108 53.5136 28.929 53.5079 28.9468 53.501C28.8055 54.1122 29.0335 54.6093 29.2748 55.1357C29.392 55.3781 29.4937 55.6277 29.5793 55.883L29.5792 55.883Z" fill="white"/>
<path d="M6.47692 76.2489C6.40222 76.2489 6.32863 76.2309 6.2624 76.1963L6.2469 76.1877L6.22087 76.1728C6.12733 76.1157 6.05417 76.0305 6.01183 75.9293C5.96511 75.8295 5.95826 75.7155 5.99269 75.6108C6.08437 75.3436 6.16018 75.0712 6.21972 74.7949C6.27586 74.5572 6.33384 74.3115 6.41268 74.0764L6.27873 74.1363L6.10248 74.213C5.3838 74.5338 4.64427 74.8053 3.88897 75.0259C3.05288 75.2611 2.29678 75.3754 1.57749 75.3754C1.04614 75.3773 0.516865 75.3088 0.00341511 75.1718C-0.456854 75.0515 -0.89295 74.8526 -1.28565 74.5836C-1.67904 74.3153 -2.00308 73.9571 -2.23101 73.5384C-2.4486 73.117 -2.59402 72.6619 -2.66121 72.1922C-2.72913 71.7227 -2.76568 71.2491 -2.77061 70.7747C-2.8003 69.6099 -2.73844 68.4446 -2.58562 67.2896C-2.48969 66.5088 -2.35042 65.7341 -2.16843 64.9689C-2.27465 64.8747 -2.34219 64.7444 -2.35795 64.6031C-2.43118 64.0107 -2.34035 63.3962 -2.25257 62.8019V62.8003C-2.23267 62.6655 -2.21206 62.5261 -2.19401 62.3906C-2.09373 61.6379 -1.99027 60.9445 -1.87755 60.2709C-1.63234 58.8046 -1.3509 57.3748 -1.04108 56.0215C-0.759063 54.7894 -0.424805 53.5381 -0.0475528 52.3021C0.321279 51.0938 0.74076 49.8685 1.19941 48.6602L1.27921 48.4512C1.75349 47.2153 2.20933 46.1577 2.6727 45.2178C3.18584 44.1615 3.78091 43.1472 4.45243 42.1843C4.76772 41.7279 5.11041 41.2912 5.47861 40.8766C5.84709 40.4626 6.25838 40.0891 6.70554 39.7622C7.48869 39.1949 8.41409 38.7329 9.53462 38.3493C10.0341 38.179 10.5421 38.0345 11.0564 37.9166C11.5552 37.8015 12.0788 37.7067 12.6129 37.6338C12.7712 37.6122 12.9335 37.5915 13.0904 37.5715C14.0032 37.4551 14.947 37.335 15.792 36.9625C15.7624 36.9065 15.7445 36.8451 15.7394 36.782C15.7343 36.7188 15.7421 36.6553 15.7624 36.5954C15.8004 36.4719 15.8791 36.3651 15.9857 36.2925C16.604 35.8834 17.1822 35.3663 17.7413 34.8665C17.8231 34.7933 17.9077 34.7177 17.9915 34.6434C18.025 34.6123 18.0689 34.5949 18.1146 34.5944C18.1463 34.5948 18.1773 34.6032 18.2049 34.6189C18.2325 34.6345 18.2556 34.6569 18.2722 34.6839C18.2882 34.7107 18.2967 34.7412 18.2968 34.7724C18.297 34.8035 18.2888 34.8341 18.2732 34.861C18.0658 35.2722 17.8197 35.6626 17.5382 36.0268C17.3558 36.2533 17.1611 36.4661 16.9777 36.6624C17.4625 37.0825 17.8742 37.5958 18.2727 38.092L18.2971 38.1224C18.4211 38.2769 18.5449 38.4349 18.6647 38.5876C19.0421 39.069 19.4323 39.5666 19.8684 40.0095C20.141 40.2892 20.4444 40.537 20.7728 40.7482C21.1013 40.9575 21.4528 41.128 21.8204 41.2563L21.9735 41.3096C22.3653 41.4393 22.7429 41.6088 23.1005 41.8153C23.4953 42.0554 23.7824 42.3323 23.9782 42.662C23.9929 42.6866 24.0007 42.7147 24.0007 42.7434C24.0007 42.7721 23.9929 42.8003 23.9782 42.8249C23.9636 42.8515 23.9423 42.8739 23.9164 42.8898C23.8905 42.9057 23.8609 42.9146 23.8306 42.9157C23.8017 42.9155 23.7733 42.9072 23.7489 42.8916C23.2733 42.5964 22.7347 42.4489 22.2135 42.3062C21.9162 42.2248 21.6089 42.1406 21.3147 42.0298C20.928 41.8837 20.5581 41.6965 20.2112 41.4714C19.8647 41.2454 19.5404 40.9869 19.2427 40.6994C18.7424 40.2188 18.3009 39.6736 17.8739 39.1465L17.8717 39.1438C17.7845 39.0361 17.6944 38.9248 17.6051 38.8158C17.0878 38.1938 16.5182 37.6175 15.9026 37.0931C15.431 37.4034 14.9213 37.6511 14.3861 37.8299C13.8744 38.0083 13.3445 38.144 12.7545 38.2902L12.6337 38.3202C11.9877 38.4804 11.4633 38.6266 10.9834 38.7805C10.4384 38.9518 9.90445 39.1565 9.38446 39.3934C8.92244 39.6026 8.47302 39.8387 8.03849 40.1004C7.60367 40.3615 7.19557 40.6648 6.82011 41.0061C6.00398 41.7567 5.37349 42.7262 4.84652 43.5761C4.22186 44.5949 3.67164 45.6576 3.20017 46.7561C2.77916 47.7214 2.37052 48.785 1.91468 50.1022C1.51185 51.2665 1.13511 52.4631 0.794981 53.6586C0.457725 54.8442 0.14758 56.0598 -0.126716 57.2715C-0.39661 58.4639 -0.623 59.6827 -0.818834 60.9974C-0.907502 61.5925 -0.988004 62.2018 -1.05817 62.8084C-1.07629 62.9649 -1.09122 63.1252 -1.1057 63.2803V63.2817C-1.15105 63.7675 -1.19794 64.2699 -1.34765 64.7402C-1.37926 64.8514 -1.44562 64.9494 -1.53698 65.02C-1.61602 65.0779 -1.71158 65.1088 -1.80949 65.108C-1.81733 65.108 -1.82524 65.108 -1.83303 65.1074L-1.87372 65.6175C-1.92565 66.2716 -1.97777 66.9683 -1.99492 67.6622C-2.02573 68.9065 -2.00411 70.0213 -1.92865 71.0697L-1.9171 71.2246C-1.89205 71.6527 -1.82316 72.0771 -1.71151 72.4911C-1.57455 72.9554 -1.37055 73.3152 -1.08777 73.5911C-0.790766 73.8811 -0.398077 74.0998 0.0791972 74.2412C0.513594 74.3644 0.962754 74.4274 1.41419 74.4285C1.44187 74.4288 1.46943 74.429 1.49616 74.429C1.97247 74.4264 2.44737 74.3769 2.91401 74.2812C3.38414 74.1847 3.8471 74.056 4.29965 73.896C5.21127 73.5793 6.0945 73.1638 6.94871 72.7619L7.1698 72.658C8.07485 72.2331 8.99215 71.7732 9.89618 71.2911C10.7765 70.8217 11.6703 70.3173 12.5526 69.7921C13.4336 69.2679 14.3223 68.7153 15.194 68.1503C15.6173 67.8759 16.045 67.5918 16.4653 67.3064C16.5492 67.2494 16.6328 67.1896 16.7137 67.1317C16.8642 67.0239 17.0199 66.9126 17.1794 66.8179C17.1194 66.7634 17.0777 66.6916 17.0599 66.6124C17.0515 66.5718 17.0512 66.53 17.0592 66.4893C17.0671 66.4486 17.0831 66.4099 17.1062 66.3755C16.9283 66.2182 16.7744 66.0354 16.6497 65.833C16.5212 65.6254 16.4153 65.4045 16.334 65.1741C16.175 64.7214 16.0852 64.2473 16.0676 63.7677C16.0436 63.1491 16.1194 62.5234 16.1928 61.9184L16.1932 61.9152C16.2049 61.8183 16.217 61.7182 16.2286 61.6198C16.2719 61.2497 16.3253 60.8846 16.3764 60.5447C16.3854 60.4854 16.3932 60.4263 16.4014 60.3638C16.4127 60.2785 16.4243 60.1903 16.4388 60.1034C15.4921 60.6248 14.5124 61.1282 13.527 61.5998C12.5549 62.065 11.5485 62.5129 10.5359 62.931C9.53392 63.3448 8.50428 63.7257 7.38822 64.0954L7.17268 64.1665C6.56272 64.3666 6.09157 64.5113 5.6451 64.6355C5.08178 64.7922 4.57376 64.9108 4.09202 64.9982C4.0889 64.9988 4.08574 64.9991 4.08257 64.999C4.06865 64.9985 4.05531 64.9933 4.04464 64.9843C4.03396 64.9753 4.02656 64.963 4.02357 64.9494C4.02108 64.9392 4.02247 64.9285 4.02746 64.9193C4.03245 64.9101 4.04069 64.9031 4.05055 64.8996C4.72424 64.6017 5.42452 64.3306 6.10171 64.0681C6.44464 63.9352 6.79931 63.7978 7.14601 63.6589L7.31531 63.5898C7.29486 63.5887 7.27456 63.5858 7.25465 63.581C6.82725 63.4775 6.39635 63.3327 5.97987 63.1925L5.97885 63.1922C5.80796 63.1347 5.63126 63.0753 5.45839 63.02C5.28552 62.9647 5.10257 62.9149 4.92549 62.8666C4.53395 62.76 4.12901 62.6498 3.77632 62.4676C3.76879 62.4641 3.76269 62.4581 3.75905 62.4506C3.75541 62.4432 3.75446 62.4347 3.75635 62.4266C3.75835 62.4168 3.76342 62.4079 3.77082 62.4012C3.77823 62.3945 3.78758 62.3904 3.7975 62.3894C3.85542 62.3854 3.91608 62.3833 3.97783 62.3833C4.37256 62.3833 4.78311 62.4646 5.18014 62.5431C5.3148 62.5698 5.44168 62.595 5.56926 62.6172L5.78206 62.6546C6.10822 62.7121 6.48726 62.7814 6.85775 62.8737C6.86464 62.8132 6.88356 62.7547 6.91339 62.7016C6.94323 62.6486 6.98337 62.602 7.03144 62.5648C7.89592 61.9232 7.96839 60.7398 8.03237 59.6956V59.6951C8.04551 59.4812 8.05789 59.2791 8.07658 59.0857L8.15905 58.2326C8.29895 56.7925 8.45517 55.2612 8.69055 53.7645C8.69237 53.7502 8.69951 53.7372 8.71055 53.728C8.72158 53.7188 8.73568 53.7141 8.75 53.715C8.76895 53.7141 8.78746 53.7208 8.80159 53.7334C8.81573 53.7461 8.82436 53.7638 8.82566 53.7828C8.83395 55.0415 8.77048 56.3174 8.70911 57.5513C8.68092 58.1184 8.6517 58.7048 8.62989 59.2826L8.61917 59.5835L8.61758 59.6309C8.57988 60.7478 8.54103 61.9026 7.83934 62.7613C7.88282 62.7357 7.93224 62.722 7.98268 62.7214C8.01516 62.7209 8.04737 62.7275 8.07697 62.7409C8.10657 62.7544 8.13282 62.7742 8.15382 62.799C8.24934 62.9032 8.30415 63.0384 8.3082 63.1798C8.92696 62.9198 9.57283 62.6406 10.2275 62.35C11.233 61.9036 12.2549 61.4185 13.2648 60.9085C14.2475 60.4121 15.2453 59.8788 16.2302 59.323C16.2724 59.2975 16.3193 59.2806 16.368 59.2734C16.4168 59.2661 16.4665 59.2687 16.5143 59.2809C16.562 59.293 16.6069 59.3146 16.6463 59.3443C16.6857 59.374 16.7188 59.4112 16.7437 59.4539L16.7587 59.4517C16.7613 59.4513 16.7638 59.4511 16.7664 59.451L16.7813 59.4503H16.7829C16.8712 59.4028 16.9702 59.3786 17.0704 59.38C17.2931 59.3859 17.5057 59.4741 17.6675 59.6275C17.6732 59.633 17.6784 59.639 17.683 59.6443L17.6866 59.6483C17.99 59.5114 18.2701 59.3275 18.5164 59.1031C18.7764 58.8644 19.017 58.6053 19.2361 58.3284C19.4383 58.0763 19.6405 57.7952 19.8543 57.4691C20.0294 57.202 20.2008 56.9228 20.3666 56.6527C20.6181 56.2429 20.8782 55.8193 21.16 55.4227C21.437 55.0232 21.7542 54.6532 22.1065 54.3185C22.4906 53.9655 22.9214 53.6671 23.3866 53.4318C23.8516 53.1974 24.3388 53.0102 24.841 52.873C24.8392 52.8583 24.8407 52.8433 24.8454 52.8292C24.8501 52.815 24.8579 52.8022 24.8683 52.7915C24.8797 52.7762 24.8942 52.7635 24.9107 52.754C24.9273 52.7445 24.9456 52.7385 24.9645 52.7364C24.9851 52.7372 25.0052 52.7426 25.0233 52.7523C25.0278 52.7544 25.0316 52.758 25.034 52.7624L25.132 52.5946C25.2032 52.4731 25.2437 52.4075 25.2595 52.3876C25.3728 52.2447 25.4907 52.1012 25.6104 51.9611C25.8088 51.7142 26.0446 51.5001 26.3093 51.3266C26.5233 51.1941 26.7706 51.1256 27.0221 51.129C27.3793 51.129 27.745 51.2487 28.0985 51.3644L28.1066 51.367C28.3429 51.4444 28.5827 51.5247 28.8147 51.6024L28.821 51.6045C28.9429 51.6453 29.0689 51.6876 29.1928 51.7288L29.2301 51.7411C29.2525 51.7482 29.2748 51.7553 29.2999 51.7631C29.4284 51.7986 29.5529 51.8472 29.6715 51.9083C29.7836 51.9649 29.8737 52.0573 29.9276 52.171C29.9816 52.2846 29.9963 52.413 29.9695 52.5359C30.9524 52.292 31.9619 52.1716 32.9745 52.1774C33.811 52.1799 34.6459 52.2493 35.4713 52.385C36.2865 52.5182 37.0916 52.7069 37.8812 52.9496C37.932 52.9635 37.9782 52.9905 38.0154 53.0277C38.0526 53.065 38.0794 53.1113 38.0933 53.1621C38.2384 53.8991 38.3381 54.6444 38.3917 55.3937C38.4451 56.143 38.4404 56.8954 38.3779 57.644C38.3239 58.2887 38.2208 58.9283 38.0697 59.5572C37.9178 60.186 37.7074 60.7992 37.4413 61.3885L37.4106 61.4553C37.0904 62.1493 36.7641 62.6985 36.4132 63.1347C36.2105 63.3915 35.9769 63.6223 35.7179 63.8218C35.4661 64.0154 35.1806 64.1603 34.8758 64.2491C34.5528 64.334 34.2197 64.3736 33.8858 64.3668C33.5958 64.3668 33.3012 64.3457 33.0162 64.3255C32.8666 64.3148 32.7119 64.3038 32.5626 64.2963C32.3977 64.2879 32.2291 64.2811 32.066 64.2745H32.0656C31.5003 64.2515 30.9159 64.2278 30.3527 64.1382C30.0376 64.0911 29.7332 63.9891 29.4533 63.8369C29.1746 63.6826 28.9312 63.4715 28.7388 63.2173C28.3916 62.7593 28.209 62.2008 28.0634 61.6656C27.985 61.6906 27.9207 61.7132 27.8609 61.7366C27.5853 61.8511 27.3355 62.02 27.1263 62.2333C26.9205 62.433 26.7325 62.6558 26.5506 62.8712C26.3334 63.1416 26.0969 63.3959 25.843 63.632C25.4109 64.0085 24.9222 64.3143 24.3949 64.5378C23.9479 64.7272 23.4869 64.8819 23.0162 65.0006C22.5478 65.1229 22.0644 65.2229 21.5971 65.3196L21.5932 65.3204C21.392 65.362 21.184 65.4051 20.98 65.4494L20.8995 65.467C20.5359 65.5469 20.06 65.6579 19.6002 65.808C19.1742 65.942 18.7641 66.1223 18.3773 66.3458C18.3647 66.4773 18.303 66.5992 18.2045 66.687C18.2723 66.7496 18.3186 66.8322 18.3366 66.9228C18.3536 67.0209 18.3327 67.1218 18.2781 67.205C18.0005 67.6466 17.5509 67.9314 17.1166 68.207L17.116 68.2074C17.0319 68.2607 16.9449 68.316 16.8609 68.371L16.8274 68.3931C16.3249 68.7271 15.8108 69.059 15.2996 69.3796C14.2981 70.0079 13.2548 70.6182 12.1092 71.2454C11.2196 71.7324 10.3331 72.1979 9.47433 72.6288C8.56929 73.0827 7.66526 73.5138 6.78739 73.9092C6.83943 74.2043 6.86928 74.5029 6.87669 74.8024C6.88479 75.0473 6.90515 75.2917 6.93767 75.5345L6.95043 75.6112C6.971 75.7 6.96801 75.7927 6.94177 75.88C6.91553 75.9674 6.86694 76.0463 6.80085 76.1089L6.7863 76.1223V76.1205L6.77354 76.1323L6.76921 76.136L6.77067 76.1348C6.75532 76.1491 6.73902 76.1624 6.72187 76.1744L6.70063 76.1881C6.63302 76.2285 6.55564 76.2496 6.47692 76.2489ZM16.845 60.2265C16.8457 60.2708 16.8458 60.3163 16.846 60.3566C16.846 60.422 16.8465 60.4837 16.8482 60.5452C16.8555 60.8244 16.8593 61.1221 16.8593 61.4299C16.8593 61.6529 16.8549 61.8795 16.8507 62.0987C16.8433 62.487 16.8355 62.8884 16.8519 63.2828C16.8607 63.5594 16.8912 63.8349 16.943 64.1067C16.994 64.3788 17.0851 64.6418 17.2132 64.8871C17.3028 65.0549 17.4147 65.2098 17.5458 65.3474C17.6743 65.4799 17.8141 65.6007 17.9638 65.7085C18.3414 65.4809 18.7402 65.2907 19.1545 65.1405C19.5716 64.9886 19.9971 64.8611 20.4289 64.7587C20.7693 64.6756 21.1182 64.6004 21.4559 64.5276H21.4563C22.1532 64.3772 22.8739 64.2218 23.5608 63.9893C24.0536 63.8293 24.5215 63.6008 24.9509 63.3104C25.3676 63.0227 25.6996 62.6346 26.0205 62.2595L26.0241 62.2552C26.052 62.2227 26.0799 62.1901 26.1078 62.1576L26.1635 62.0932C26.5175 61.6862 26.9171 61.2779 27.4389 61.0479C27.618 60.9751 27.8022 60.9157 27.9901 60.8702C28.2968 60.7875 28.6137 60.702 28.8528 60.5154C29.0513 60.3603 29.0712 60.1399 29.0922 59.9065L29.0934 59.8928C29.0373 59.9006 28.9807 59.9044 28.924 59.9041C28.7826 59.9006 28.6415 59.8874 28.5019 59.8644H28.501C28.4465 59.8567 28.3901 59.8488 28.3356 59.8424L28.2075 59.8274C27.9744 59.8037 27.7431 59.7643 27.5153 59.7093C27.5061 59.7065 27.498 59.7007 27.4922 59.6929C27.4864 59.6851 27.4833 59.6757 27.4833 59.666C27.4833 59.6563 27.4864 59.6468 27.4922 59.639C27.498 59.6312 27.5061 59.6255 27.5153 59.6226C27.7743 59.5614 28.0372 59.5183 28.3021 59.4935L28.3357 59.4895L28.4012 59.4813C28.4331 59.4771 28.466 59.4726 28.4978 59.4682H28.4985C28.6383 59.4455 28.7794 59.4324 28.9209 59.4289C29.0032 59.4281 29.0854 59.4365 29.166 59.4539C29.211 59.2819 29.2777 59.1163 29.3644 58.9611C29.4027 58.8923 29.4505 58.8216 29.5012 58.7468C29.6183 58.5742 29.7393 58.3952 29.7618 58.2102C29.7703 58.1265 29.7543 58.042 29.7157 57.9673L29.7029 57.9434C29.6887 57.914 29.6677 57.8885 29.6415 57.8691C29.6349 57.875 29.6269 57.879 29.6182 57.881C29.5351 57.9081 29.4452 57.9053 29.3639 57.8729C29.2827 57.8405 29.2154 57.7806 29.1736 57.7037C28.9205 57.7301 28.6662 57.7427 28.4117 57.7415C28.2815 57.7432 28.1585 57.7448 28.0399 57.7502L27.6851 57.7674C27.5683 57.7727 27.4145 57.7789 27.2607 57.7789C27.0233 57.7831 26.7861 57.7619 26.5532 57.7156C26.5406 57.712 26.5294 57.7045 26.5213 57.6942C26.5131 57.6839 26.5084 57.6712 26.5078 57.6581C26.506 57.6465 26.508 57.6346 26.5134 57.6242C26.5189 57.6139 26.5276 57.6056 26.5382 57.6006C26.9186 57.4375 27.3611 57.3721 27.7885 57.309C27.8506 57.2998 27.9149 57.2903 27.9767 57.2808C28.1509 57.2539 28.329 57.231 28.5012 57.2088L28.5055 57.2082C28.5906 57.1972 28.6787 57.1859 28.7651 57.1742C28.8211 57.1667 28.8794 57.1573 28.9359 57.1482H28.9364C29.059 57.1264 29.1826 57.111 29.3069 57.1022C29.4179 56.9637 29.4922 56.7993 29.5226 56.6242C29.5522 56.455 29.5443 56.2813 29.4995 56.1155C29.4572 55.9564 29.381 55.8084 29.2762 55.6815C29.1719 55.5545 29.0367 55.4565 28.8837 55.3969C28.7923 55.4366 28.6935 55.4563 28.5939 55.4545C28.511 55.4527 28.4282 55.4459 28.3461 55.4342H28.3452C28.2966 55.4283 28.2465 55.4222 28.1946 55.4178C27.9149 55.3937 27.6833 55.3825 27.4658 55.3825H27.4393C27.2299 55.3874 27.0209 55.4027 26.813 55.4286C26.5984 55.4554 26.3825 55.4709 26.1663 55.475C26.0766 55.4754 25.987 55.4706 25.8978 55.4607C25.8734 55.457 25.8504 55.4466 25.8315 55.4306C25.8127 55.4146 25.7986 55.3937 25.7909 55.3701C25.7857 55.3533 25.7858 55.3352 25.7914 55.3184C25.7969 55.3016 25.8075 55.287 25.8218 55.2765C26.0209 55.1216 26.2488 55.0082 26.4923 54.9429C26.7376 54.8747 26.9876 54.825 27.2403 54.7942L27.3411 54.7807C27.3851 54.775 27.4323 54.7684 27.478 54.762C27.6089 54.7438 27.7571 54.7231 27.908 54.7095C27.9323 54.6609 27.9685 54.6193 28.0131 54.5884C28.0576 54.5575 28.1093 54.5384 28.1632 54.5328C28.1969 54.5282 28.2311 54.5252 28.2642 54.5224L28.2753 54.5214L28.2747 54.5177C28.313 54.5164 28.3504 54.5053 28.3833 54.4854C28.4161 54.4656 28.4434 54.4376 28.4625 54.4043C28.5667 54.238 28.5448 53.9328 28.4833 53.787C28.4088 53.6107 28.2554 53.4825 28.0272 53.406C27.8161 53.3428 27.5964 53.3135 27.3761 53.319C27.2805 53.319 27.1808 53.3227 27.0636 53.3307C26.4947 53.3688 25.9306 53.4591 25.3782 53.6006C24.8254 53.7388 24.2905 53.9406 23.7841 54.2022C23.2932 54.4647 22.8502 54.8086 22.4738 55.2192C22.0989 55.6303 21.7619 56.0745 21.4668 56.5464L21.4381 56.5911C21.3395 56.7446 21.2393 56.9065 21.1424 57.063L21.1418 57.064C20.8915 57.4682 20.6328 57.8861 20.3396 58.2686C20.0573 58.6529 19.7157 58.9897 19.3276 59.2663C18.7611 59.654 18.2185 59.9074 17.715 60.0198C17.6953 60.0557 17.6683 60.0871 17.6359 60.112C17.6034 60.1369 17.5662 60.1548 17.5264 60.1646L17.4872 60.1736C17.3234 60.2106 17.1563 60.2307 16.9884 60.2336C16.9405 60.2338 16.8927 60.2314 16.845 60.2265ZM7.55567 63.4674C7.55028 63.4757 7.5444 63.4837 7.53806 63.4913L7.52837 63.5025L7.57863 63.4822L7.55567 63.4674ZM31.6351 52.5745C31.0693 52.5745 30.4932 52.5898 29.9517 52.6054C29.8939 52.7808 29.7846 52.9346 29.6383 53.0469C29.4974 53.1633 29.3234 53.232 29.1411 53.2429C29.2759 53.4529 29.3546 53.6941 29.3699 53.9433C29.3881 54.1892 29.3472 54.4359 29.2507 54.6627C29.4542 54.7429 29.6425 54.8575 29.8073 55.0015C29.9765 55.1499 30.116 55.3292 30.2186 55.5297C30.2902 55.669 30.3438 55.817 30.3781 55.9699C30.4109 56.1169 30.4251 56.2675 30.4204 56.4181C30.4095 56.718 30.3283 57.0112 30.1833 57.2738C30.3099 57.3915 30.4086 57.5361 30.4721 57.697C30.5385 57.8595 30.5697 58.0343 30.5635 58.2098C30.549 58.5495 30.3695 58.8444 30.196 59.1295C30.1736 59.1662 30.1505 59.2041 30.1284 59.2412C29.9616 59.5209 29.9258 59.7731 29.8844 60.0651C29.8748 60.1324 29.8652 60.202 29.8531 60.2743C29.8134 60.5327 29.6979 60.7735 29.5214 60.966C29.3437 61.1512 29.1295 61.2972 28.8924 61.3947L28.9183 61.497C28.978 61.7473 29.0561 61.9927 29.152 62.2313C29.2458 62.4678 29.3848 62.6836 29.5612 62.8666C29.9901 63.2949 30.6421 63.3229 31.2173 63.3478C31.2667 63.3499 31.3111 63.3519 31.3551 63.3542L31.3846 63.3556C31.8412 63.3785 32.3052 63.405 32.754 63.4306H32.755H32.7584L33.0655 63.4481L33.4857 63.4717C33.6175 63.479 33.7727 63.4864 33.9258 63.4864C34.1633 63.4911 34.4003 63.465 34.6311 63.4086C34.8673 63.3486 35.0876 63.2379 35.2768 63.0841C35.6719 62.7635 36.0398 62.321 36.3704 61.7686C36.6615 61.2731 36.9054 60.7512 37.0989 60.2098C37.2927 59.6753 37.4427 59.1258 37.5474 58.5668C37.6516 58.0085 37.7172 57.4436 37.7438 56.8763C37.7702 56.3074 37.7642 55.7375 37.7259 55.1693C37.6899 54.6228 37.6246 54.0531 37.5318 53.4763C36.3241 53.0837 35.0794 52.816 33.8172 52.6772C33.0922 52.6034 32.3638 52.5692 31.6351 52.5745ZM27.3501 52.4625C27.6078 52.4596 27.8649 52.4884 28.1155 52.5485C28.3559 52.6063 28.5823 52.7118 28.7812 52.859C28.7821 52.8576 28.7828 52.8562 28.7835 52.8549C28.7842 52.8535 28.7856 52.8507 28.787 52.8485C28.8493 52.7591 28.9201 52.676 28.9984 52.6003L29.0009 52.5977C29.0081 52.5909 29.0154 52.5837 29.023 52.5757L29.0657 52.5302L28.9681 52.4964C28.8196 52.4437 28.6528 52.3806 28.5531 52.3429C28.5129 52.3277 28.4839 52.3168 28.4726 52.3128L28.4699 52.3119L28.3339 52.2658H28.3335C28.1166 52.1922 27.8918 52.1161 27.6719 52.038C27.6327 52.0241 27.5941 52.0096 27.5531 51.9941C27.3758 51.9274 27.1925 51.8585 27.0074 51.8585C26.9711 51.8584 26.9349 51.8612 26.899 51.867C26.7137 51.904 26.5387 51.9813 26.3866 52.0936C26.2232 52.2106 26.0669 52.3372 25.9186 52.473L25.9182 52.4733C25.8365 52.5452 25.7593 52.613 25.6828 52.6751L25.8631 52.64C26.3426 52.548 26.8544 52.4626 27.3501 52.4625ZM39.5109 76.1887C39.4673 76.1889 39.4249 76.1742 39.3907 76.1472C39.3721 76.1323 39.3567 76.1137 39.3455 76.0927C39.3342 76.0716 39.3274 76.0485 39.3254 76.0247L39.2967 75.7478C39.2697 75.3969 39.2034 75.0502 39.099 74.7142C38.9707 74.3171 38.8863 73.9072 38.8473 73.4916C38.7735 72.8371 38.7407 72.1658 38.7134 71.5345L38.6942 71.0825C38.6332 69.6706 38.6073 68.2907 38.617 66.9813C38.6274 65.5756 38.6794 64.1965 38.7714 62.8822L38.7854 62.6874C38.8433 61.898 38.8998 61.2937 38.9686 60.7272C39.0567 60.0021 39.1638 59.3596 39.296 58.7628C39.6176 57.3112 40.0938 56.1181 40.7519 55.1152C40.7562 55.1083 40.7621 55.1026 40.7692 55.0986C40.7763 55.0947 40.7843 55.0926 40.7924 55.0927C40.7999 55.0926 40.8073 55.0943 40.814 55.0975C40.8208 55.1008 40.8267 55.1055 40.8314 55.1113C40.8358 55.1171 40.8388 55.1237 40.8402 55.1308C40.8416 55.1379 40.8413 55.1452 40.8394 55.1521C40.5084 56.511 40.1724 57.9712 39.957 59.4419C39.8724 60.0197 39.8075 60.6112 39.7587 61.2501C39.7154 61.8191 39.6858 62.4132 39.6685 63.0658C39.6367 64.2778 39.6525 65.5113 39.668 66.7043V66.7159C39.6707 66.9173 39.6734 67.1255 39.6758 67.3302L39.6774 67.4662C39.6917 68.7249 39.713 70.2143 39.7626 71.717C39.7683 71.8897 39.7753 72.066 39.7823 72.2364C39.8042 72.7734 39.827 73.3287 39.8075 73.8721C39.7949 74.0915 39.7673 74.3098 39.7251 74.5254C39.6977 74.6839 39.6694 74.8478 39.6538 75.0122C39.6342 75.2921 39.6354 75.5731 39.6573 75.8529C39.6602 75.9062 39.6637 75.9666 39.6662 76.0249C39.6681 76.0462 39.6657 76.0676 39.659 76.0879C39.6523 76.1082 39.6415 76.1268 39.6273 76.1427C39.612 76.158 39.5938 76.1699 39.5738 76.1778C39.5537 76.1857 39.5323 76.1894 39.5108 76.1887H39.5109ZM46.5546 76.0702C46.4783 76.0712 46.4026 76.0569 46.332 76.028C46.2613 75.9991 46.1971 75.9563 46.1433 75.9021C46.104 75.8604 46.0738 75.8109 46.0547 75.7568C46.0357 75.7027 46.0283 75.6452 46.0328 75.588C46.1311 74.092 46.2118 72.4848 46.1387 70.8698C46.0681 69.3116 45.9202 67.7259 45.6993 66.1566C45.562 65.1812 45.3717 64.1988 45.1877 63.2486C45.1235 62.9171 45.0571 62.5743 44.9935 62.2343L44.9552 62.0281C44.7641 60.9911 44.5643 59.9376 44.371 58.919L44.3706 58.9171L44.3291 58.6981L44.0145 57.0366C43.5849 54.7694 43.0795 52.1369 42.5192 49.5869L42.4874 49.4414C42.1695 48.0196 41.834 46.8875 41.4311 45.8786C41.203 45.3017 40.9354 44.7413 40.6302 44.2014C40.3261 43.6643 39.9738 43.156 39.5777 42.683C39.3775 42.4462 39.1646 42.2206 38.9398 42.0071C38.7239 41.8018 38.4902 41.6008 38.2451 41.4095C37.7631 41.037 37.2535 40.7018 36.7208 40.4067C36.2423 40.1382 35.7045 39.8703 35.0759 39.588C34.4994 39.3291 33.9052 39.0839 33.381 38.8675C33.3626 38.8606 33.3473 38.8474 33.3377 38.8302C33.3282 38.813 33.3251 38.793 33.329 38.7737C33.3316 38.757 33.3402 38.7417 33.3532 38.7308C33.3662 38.7199 33.3827 38.714 33.3996 38.7144C33.4072 38.7144 33.4147 38.7153 33.4221 38.7171L33.6039 38.7606C34.8715 39.0649 36.2157 39.4127 37.4896 40.0226C38.1059 40.3183 38.6838 40.6886 39.2104 41.1252C39.7361 41.5623 40.2109 42.0574 40.6258 42.6012C41.3709 43.5742 41.9693 44.711 42.4552 46.0756C42.917 47.373 43.2244 48.7326 43.4642 49.8915C43.7473 51.2592 44.0228 52.6523 44.2892 53.9994C44.5814 55.4772 44.8835 57.0052 45.1968 58.5051L45.3079 59.0392C45.6405 60.6427 45.8855 61.8795 46.1022 63.0495C46.373 64.5107 46.5915 65.8305 46.7702 67.0835L46.7979 67.2795C47.0259 68.9091 47.1542 70.2491 47.2019 71.4964C47.2299 72.2321 47.2289 72.945 47.1988 73.6155C47.1684 74.3197 47.1008 75.0218 46.9963 75.7188C46.9895 75.7716 46.9722 75.8225 46.9452 75.8684C46.9182 75.9142 46.8822 75.9541 46.8393 75.9855C46.7556 76.043 46.656 76.0727 46.5545 76.0702H46.5546ZM27.3354 73.7239C27.2714 73.7244 27.2088 73.7046 27.1567 73.6673C27.1046 73.6299 27.0656 73.577 27.0453 73.5161C26.9488 73.1803 26.9026 72.832 26.9084 72.4826C26.9068 72.126 26.9376 71.767 26.9674 71.42V71.419C26.9762 71.317 26.9845 71.2208 26.992 71.1242L27.0382 70.5286C27.0791 69.9945 27.1258 69.3644 27.1619 68.741C27.2097 67.9163 27.2497 67.0769 27.2858 66.2924C27.2974 66.0402 27.3103 65.78 27.3251 65.497L27.3466 65.0995C27.349 65.0558 27.3511 65.0109 27.353 64.9675C27.3669 64.6697 27.3812 64.3618 27.501 64.0945C27.5102 64.0752 27.525 64.059 27.5434 64.048C27.5619 64.037 27.5831 64.0318 27.6045 64.0329C27.6272 64.0322 27.6496 64.0376 27.6695 64.0484C27.6894 64.0592 27.7061 64.0752 27.7179 64.0945C27.8657 64.368 27.8957 64.7171 27.922 65.0251V65.0266C27.9249 65.0597 27.9278 65.0939 27.9308 65.127L27.934 65.1623C27.9816 65.6656 28.0111 66.0529 28.0297 66.4181C28.0702 67.2144 28.0896 68.0172 28.0871 68.8038C28.0843 69.7185 28.0637 70.5185 28.0243 71.2496L28.0124 71.468C27.9966 71.8338 27.9597 72.1984 27.9018 72.5599C27.8471 72.9173 27.7349 73.2635 27.5694 73.5849C27.5471 73.6275 27.5133 73.663 27.472 73.6875C27.4307 73.7121 27.3834 73.7246 27.3353 73.7238L27.3354 73.7239ZM-0.189804 68.0523C-0.193246 68.0523 -0.196667 68.0518 -0.199946 68.0507C-0.241788 68.0406 -0.280951 68.0215 -0.314759 67.9948C-0.348567 67.9681 -0.376226 67.9344 -0.395844 67.896C-0.439732 67.7994 -0.424869 67.6649 -0.351638 67.4963C-0.173601 67.0866 0.119704 66.7118 0.403377 66.3492L0.408288 66.3428C0.436101 66.3073 0.463743 66.272 0.491215 66.2369C0.790569 65.8527 1.11612 65.4897 1.46554 65.1506L1.56799 65.0513C1.6076 65.0125 1.64791 64.9716 1.69065 64.9283C1.83457 64.7745 1.99073 64.6326 2.15759 64.5042C2.35196 64.3636 2.53076 64.2955 2.70408 64.2955C2.71786 64.2955 2.73176 64.296 2.74554 64.2969C2.78764 64.2977 2.82901 64.3081 2.86655 64.3272C2.90409 64.3464 2.93683 64.3737 2.96234 64.4073C2.98784 64.4409 3.00544 64.4798 3.01383 64.5212C3.02222 64.5625 3.02118 64.6052 3.01078 64.6461C2.94654 64.9515 2.69107 65.1412 2.44395 65.3247C2.37339 65.3771 2.30686 65.4265 2.24416 65.4787C1.92897 65.7413 1.6363 66.0178 1.3393 66.3018C1.08446 66.5452 0.835998 66.7979 0.579691 67.0745L0.487771 67.1743C0.472206 67.1914 0.439099 67.2238 0.397253 67.2648L0.396679 67.2654C0.197846 67.4603 -0.215703 67.8658 -0.160014 67.9872L-0.156314 67.9936C-0.152747 67.999 -0.150756 68.0052 -0.150564 68.0117C-0.150373 68.0182 -0.151989 68.0246 -0.15523 68.0301C-0.158538 68.0366 -0.163512 68.0421 -0.169637 68.046C-0.175761 68.0499 -0.182812 68.052 -0.190059 68.0523L-0.189804 68.0523ZM24.0466 60.1454C23.8946 60.1438 23.7494 60.0821 23.6426 59.9736C23.5298 59.8594 23.4489 59.7175 23.408 59.5621C23.3735 59.4045 23.3615 59.2429 23.3723 59.0819C23.3759 58.8931 23.3795 58.6977 23.3101 58.5306C23.271 58.4442 23.2243 58.3616 23.1704 58.2836C23.118 58.2073 23.0721 58.1268 23.0331 58.0428C22.9616 57.8726 22.9202 57.6913 22.9108 57.5068C22.9128 57.3519 22.9409 57.1984 22.9941 57.0529C23.0601 56.8313 23.1281 56.6022 23.0257 56.4136C23.016 56.3937 23.0114 56.3717 23.0124 56.3496C23.0134 56.3275 23.0199 56.306 23.0313 56.2871C23.0394 56.2719 23.0515 56.2592 23.0662 56.2503C23.0809 56.2414 23.0977 56.2366 23.1149 56.2365H23.1173L23.1267 56.2372C23.253 56.2521 23.3701 56.3109 23.4577 56.4034C23.546 56.4972 23.6083 56.6124 23.6385 56.7378C23.6664 56.856 23.6873 56.9758 23.701 57.0965C23.7322 57.3322 23.7617 57.5547 23.9129 57.7782C24.1532 58.133 24.2897 58.4047 24.3231 58.8229C24.3274 58.8767 24.3295 58.9315 24.3321 58.9843V58.985C24.3338 59.1054 24.3463 59.2254 24.3694 59.3435L24.3976 59.4634C24.4333 59.5896 24.4467 59.7211 24.4371 59.8519C24.435 59.9111 24.4147 59.9681 24.3789 60.0152C24.3432 60.0623 24.2937 60.0971 24.2373 60.1148C24.1757 60.1348 24.1114 60.1451 24.0466 60.1454ZM11.9243 53.8553C11.6787 53.8573 11.4333 53.8402 11.1903 53.8041C11.1758 53.8023 11.1624 53.7953 11.1526 53.7844C11.1429 53.7735 11.1374 53.7595 11.1371 53.7448C11.1355 53.7267 11.1398 53.7087 11.1494 53.6933C11.159 53.6779 11.1734 53.6661 11.1903 53.6597C11.6623 53.5164 12.1743 53.4579 12.6691 53.4014C12.7823 53.3886 12.8992 53.3751 13.0136 53.3609C13.543 53.2951 14.2389 53.2056 14.9299 53.0975C15.6194 52.9896 16.2425 52.8834 16.8348 52.7729C17.1191 52.7199 17.4075 52.6637 17.6919 52.6058C17.7525 52.5935 17.8131 52.578 17.878 52.5616C18.0219 52.5187 18.1705 52.4934 18.3204 52.4864C18.4005 52.4851 18.4802 52.4991 18.5551 52.5277C18.5914 52.5414 18.6239 52.5638 18.6496 52.593C18.6753 52.6222 18.6934 52.6573 18.7024 52.6952C18.709 52.7272 18.7073 52.7604 18.6975 52.7916C18.6876 52.8228 18.6699 52.851 18.6461 52.8734C18.4739 53.0465 18.2332 53.0831 18.0005 53.1184C17.9559 53.1253 17.9094 53.1323 17.8646 53.1401L17.8402 53.1446C17.5172 53.2045 17.186 53.2626 16.8558 53.3175C16.2268 53.4219 15.6011 53.5129 14.9962 53.5879C14.2804 53.6767 13.6523 53.743 13.0757 53.7906L12.8274 53.8111C12.5391 53.8339 12.2302 53.8553 11.9243 53.8553ZM27.3839 50.8935C27.3444 50.8937 27.3055 50.8834 27.2712 50.8637C27.237 50.844 27.2085 50.8155 27.1888 50.7812C26.9381 50.3639 26.8105 49.8825 26.6871 49.4168C26.625 49.1823 26.5607 48.94 26.4816 48.709C26.3784 48.4075 26.2664 48.1035 26.1581 47.8096V47.8091C26.025 47.4474 25.8873 47.0739 25.7647 46.7015C25.6167 46.264 25.5051 45.815 25.4312 45.359C25.3566 44.9048 25.343 44.4426 25.3906 43.9848L25.3877 43.98C25.3854 43.9764 25.3832 43.9727 25.3813 43.9689L25.3084 43.809C25.1125 43.3827 24.9206 43.0014 24.5561 42.6539C24.4643 42.5663 24.369 42.4798 24.277 42.3961C23.992 42.1371 23.6973 41.8694 23.4728 41.5397C23.3565 41.3704 23.2673 41.1839 23.2082 40.987C23.1535 40.8014 23.1221 40.6097 23.1149 40.4163C23.097 40.0309 23.1564 39.6295 23.2138 39.2413C23.2495 39 23.2864 38.7507 23.3048 38.5061L23.3136 38.3792C23.3298 38.1342 23.3283 37.8648 23.1955 37.7238C23.0834 37.6046 22.8644 37.5488 22.6713 37.4996C22.5933 37.4797 22.5198 37.4612 22.4596 37.4396C21.9173 37.2509 21.3896 37.0228 20.8805 36.7569C20.3961 36.5062 19.9329 36.2162 19.4956 35.8899L19.275 35.7237C18.9257 35.4595 18.5651 35.1717 18.3329 34.8149C18.3276 34.8061 18.3247 34.796 18.3247 34.7857C18.3247 34.7753 18.3276 34.7652 18.3329 34.7564C18.3374 34.7469 18.3444 34.7389 18.3531 34.7331C18.3618 34.7272 18.3719 34.7239 18.3824 34.7233C18.3885 34.7232 18.3946 34.7242 18.4004 34.7264C18.6923 34.8558 18.9727 35.0101 19.2382 35.1877L19.2391 35.1882C19.3276 35.2438 19.4192 35.3013 19.5097 35.3558C19.5156 35.342 19.5222 35.3285 19.5295 35.3153C19.7516 34.9134 19.9128 34.4806 20.0079 34.0311C20.1015 33.5814 20.1304 33.1205 20.0939 32.6624C20.0883 32.6165 20.0925 32.5698 20.1062 32.5256C20.1199 32.4814 20.1427 32.4405 20.1732 32.4057C20.2085 32.37 20.2507 32.3419 20.2973 32.3232C20.3438 32.3045 20.3937 32.2956 20.4439 32.297C20.5413 32.2962 20.636 32.3285 20.7128 32.3886C20.7541 32.4218 20.7879 32.4634 20.8121 32.5105C20.8362 32.5577 20.8502 32.6095 20.8531 32.6624C20.9324 33.7186 20.7002 34.7748 20.1854 35.6998C20.1829 35.7043 20.1802 35.7084 20.1776 35.7126L20.1735 35.719C20.5457 35.9132 20.8556 36.0627 21.1486 36.1894C21.6036 36.3862 22.0269 36.547 22.4428 36.681C22.5552 36.7173 22.6724 36.7467 22.7964 36.7778C23.1052 36.8552 23.4241 36.9352 23.6635 37.1263C23.8212 37.2534 23.9421 37.4204 24.0139 37.6101C24.0858 37.8039 24.1246 38.0085 24.1287 38.2153C24.1455 38.6416 24.0609 39.1025 23.993 39.4729C23.9846 39.5185 23.976 39.5656 23.9679 39.611L23.9467 39.7303C23.8805 40.1123 23.8296 40.5167 23.9941 40.892C24.1544 41.2579 24.4616 41.534 24.7587 41.801L24.762 41.804C24.7876 41.8268 24.8128 41.8495 24.8377 41.8722L24.9015 41.9297C25.2 42.2023 25.5039 42.5013 25.7049 42.8404C25.8705 42.4973 26.0908 42.2075 26.3243 41.901L26.3251 41.8999C26.3549 41.8607 26.3858 41.8201 26.4164 41.7796C26.572 41.5737 26.5112 41.478 26.4104 41.3193C26.3868 41.2821 26.3601 41.24 26.3339 41.1926C26.2681 41.0767 26.2197 40.9518 26.1902 40.8218C26.1618 40.6916 26.1574 40.5572 26.1775 40.4254C26.1966 40.3026 26.2349 40.1837 26.2909 40.0728C26.3467 39.9634 26.4154 39.8611 26.4956 39.7681C26.6603 39.5825 26.8488 39.4196 27.0562 39.2837C27.3338 39.101 27.6204 38.9323 27.9149 38.7784C28.1235 38.6649 28.3391 38.5476 28.5446 38.4212C29.558 37.804 30.5155 37.0991 31.4063 36.3145C31.4117 36.3096 31.4189 36.3069 31.4262 36.3069C31.4321 36.3069 31.4379 36.3084 31.4429 36.3114C31.448 36.3143 31.4522 36.3186 31.4552 36.3237C31.4574 36.3279 31.4585 36.3327 31.4581 36.3375C31.4578 36.3423 31.4561 36.3469 31.4532 36.3508C30.7752 37.4038 29.9253 38.3351 28.9392 39.1057C28.5923 39.3748 28.2226 39.6098 27.865 39.8372C27.7975 39.8801 27.7367 39.9188 27.6758 39.9577L27.5523 40.0372C27.3538 40.166 27.1598 40.3101 27.0866 40.4897C27.0268 40.6359 27.111 40.7566 27.1924 40.8733C27.2179 40.9098 27.2442 40.9475 27.2657 40.9854C27.3325 41.1007 27.3794 41.2264 27.4043 41.3574C27.4256 41.4759 27.4257 41.5973 27.4047 41.7159C27.352 41.9643 27.2386 42.1956 27.0745 42.389L27.0587 42.4087C26.7168 42.831 26.4643 43.2198 26.3437 43.7445C26.2247 44.2623 26.225 44.8281 26.3447 45.4738C26.4523 46.0545 26.6414 46.6229 26.8295 47.1507L26.8446 47.193C26.8949 47.3336 26.9467 47.4758 26.997 47.6136L26.9976 47.6153C27.1541 48.0448 27.3157 48.4887 27.4519 48.933L27.5014 49.0954C27.6652 49.6388 27.7971 50.1718 27.615 50.7251C27.5992 50.774 27.5682 50.8167 27.5267 50.8469C27.4852 50.8772 27.4352 50.8935 27.3839 50.8935ZM29.4237 43.1476C29.3737 43.1476 29.3227 43.1457 29.272 43.142C28.9716 43.1241 28.6789 43.0399 28.4147 42.8955C28.3059 42.8255 28.2046 42.7445 28.1123 42.6539C27.9193 42.4784 27.7198 42.2971 27.499 42.2971C27.457 42.2971 27.4152 42.3038 27.3753 42.3169C27.3718 42.3181 27.368 42.3187 27.3643 42.3187C27.3552 42.3181 27.3465 42.3148 27.3393 42.3092C27.3321 42.3037 27.3268 42.2961 27.3239 42.2874C27.3211 42.2804 27.3206 42.2727 27.3225 42.2653C27.3244 42.258 27.3286 42.2515 27.3345 42.2468C27.4274 42.1681 27.5452 42.1251 27.6669 42.1253C27.8877 42.1253 28.1141 42.2566 28.333 42.3836C28.4621 42.4654 28.5995 42.5335 28.7428 42.5866C29.0565 42.6868 29.3935 42.6874 29.7075 42.5882C30.0216 42.489 30.2973 42.2948 30.497 42.0324C30.9389 41.4633 31.3459 40.8679 31.7159 40.2493C31.9053 39.942 32.0752 39.6231 32.2248 39.2945C32.3028 39.1069 32.3631 38.9124 32.4049 38.7136C32.4388 38.5615 32.4812 38.4114 32.5318 38.264C32.565 38.1721 32.6283 38.0941 32.7112 38.0426C32.7896 37.9943 32.8798 37.9686 32.9719 37.9686C33.0271 37.9672 33.0821 37.977 33.1335 37.9974C33.1848 38.0179 33.2315 38.0485 33.2708 38.0875C33.3057 38.1265 33.3321 38.1724 33.3484 38.2222C33.3647 38.272 33.3705 38.3247 33.3654 38.3769C33.3456 38.7326 33.2041 39.0616 33.0673 39.3797C33.0542 39.41 33.0412 39.4404 33.0282 39.4707L33.0122 39.5086C32.8586 39.874 32.6745 40.2256 32.4617 40.5599C32.0454 41.2021 31.5748 41.8072 31.055 42.3686C30.8467 42.6023 30.5966 42.7948 30.3176 42.9362C30.04 43.0751 29.734 43.1474 29.4237 43.1476H29.4237ZM33.1332 37.712C33.032 37.709 32.936 37.6666 32.8656 37.5936C32.5712 37.3165 32.2995 37.0162 32.053 36.6955C31.803 36.3779 31.6069 36.0214 31.4725 35.64C31.4693 35.6301 31.4685 35.6196 31.4703 35.6093C31.4721 35.599 31.4763 35.5894 31.4827 35.5811C31.4897 35.5713 31.4988 35.5633 31.5094 35.5576C31.5201 35.552 31.5318 35.5489 31.5438 35.5486C31.556 35.5486 31.5678 35.5521 31.5779 35.5588C31.7785 35.6967 31.9693 35.8483 32.1489 36.0127C32.2347 36.0876 32.3234 36.165 32.4122 36.2379C32.7204 36.4903 33.0326 36.7388 33.3402 36.9765C33.4165 37.0318 33.4729 37.1103 33.5012 37.2002C33.5233 37.2767 33.5211 37.3582 33.4949 37.4334C33.4704 37.5114 33.4225 37.5799 33.3578 37.6298C33.2931 37.6796 33.2147 37.7083 33.1332 37.712ZM30.9826 36.4699C30.8922 36.4692 30.8047 36.4375 30.7348 36.3798C30.329 36.0517 30.0295 35.6103 29.8741 35.1115C29.7958 34.8651 29.752 34.6091 29.744 34.3507C29.7357 34.0898 29.7645 33.8291 29.8297 33.5764C29.8463 33.4981 29.8899 33.4282 29.9527 33.3788C30.0155 33.3294 30.0936 33.3036 30.1734 33.306C30.2358 33.3059 30.2975 33.3195 30.3541 33.3459C30.4106 33.3723 30.4607 33.4108 30.5008 33.4588C30.5346 33.5012 30.5581 33.5509 30.5693 33.6041C30.5805 33.6572 30.5792 33.7122 30.5655 33.7647L30.5621 33.7787C30.4657 34.1494 30.4807 34.5403 30.6052 34.9025C30.7308 35.2634 30.9538 35.5823 31.2495 35.8238L31.2717 35.8419C31.3284 35.8845 31.3704 35.944 31.3915 36.0119C31.4076 36.0706 31.405 36.1329 31.3842 36.1902C31.3523 36.2713 31.2971 36.3412 31.2257 36.391C31.1542 36.4407 31.0696 36.4682 30.9826 36.4699Z" fill="#222222"/>
<path d="M35.6916 16.846C35.1023 14.3206 33.755 12.0369 31.8313 10.3023C25.7503 4.27705 14.5831 7.54745 14.6337 16.6273C14.4108 17.6892 14.3319 18.7765 14.3993 19.8597C14.4291 20.3211 14.6284 20.9651 14.361 21.3804C13.7565 22.1573 13.4056 22.7299 13.6113 23.7634C13.7831 24.6658 14.396 25.3051 15.2228 25.6449C15.7188 25.7876 16.1893 26.0983 16.3731 26.5719C17.477 28.5975 18.2949 30.2824 20.0352 31.6628C20.4843 32.0182 25.0903 34.1497 26.6079 34.1497C31.0509 34.1497 36.6508 32.5368 36.7437 27.5629C36.7598 26.4705 36.5685 25.3653 36.4485 24.2815C36.1564 21.8081 36.2595 19.2452 35.6916 16.846Z" fill="white"/>
<path d="M28.1686 34.6771C27.6481 34.6832 27.1296 34.6108 26.6306 34.4623C26.3845 34.3862 26.1468 34.2852 25.9211 34.1608C25.6893 34.0324 25.473 33.878 25.2762 33.7005C25.1835 33.6196 25.1211 33.5095 25.0993 33.3883C25.0807 33.2742 25.0935 33.1573 25.1363 33.05C25.1857 32.9222 25.2678 32.8096 25.3742 32.7235C25.4751 32.6383 25.6021 32.5903 25.734 32.5875C25.848 32.5886 25.9584 32.6275 26.048 32.698C26.2134 32.8224 26.3901 32.9309 26.5758 33.0222C26.7546 33.1096 26.9406 33.1811 27.1319 33.2359C27.5127 33.3421 27.9066 33.3937 28.3019 33.3894C28.7015 33.3861 29.1002 33.3482 29.4933 33.276C29.8373 33.216 30.2096 33.1318 30.6649 33.0112L30.7112 32.9988C31.3924 32.8229 32.0572 32.5884 32.6981 32.2979C33.0179 32.1511 33.3283 31.9845 33.6275 31.7993C33.9261 31.6141 34.2101 31.4064 34.4772 31.1779C35.0479 30.6889 35.5032 30.0792 35.8104 29.3925C36.1135 28.7033 36.2826 27.9624 36.3087 27.2097C36.3456 26.3636 36.2716 25.5327 36.1787 24.612L36.169 24.5161C36.1312 24.1436 36.0925 23.7659 36.0546 23.4005C35.9922 22.7962 35.9277 22.1714 35.8674 21.556C35.7609 20.4704 35.6978 19.6347 35.6627 18.8464L35.6436 18.3904C35.6386 18.2735 35.6332 18.1526 35.6285 18.0459C35.5932 17.2486 35.5567 16.4241 35.5912 15.6229C35.5915 15.6157 35.5946 15.6089 35.5999 15.604C35.6051 15.5991 35.612 15.5964 35.6192 15.5965C35.6249 15.5964 35.6305 15.5982 35.635 15.6017C35.6395 15.6052 35.6427 15.6101 35.6441 15.6157C35.7551 16.0105 35.8355 16.4174 35.9127 16.8112C35.9505 17.0034 35.9896 17.2021 36.032 17.3977C36.1813 18.0871 36.286 18.6206 36.3715 19.1276C36.532 20.079 36.6859 21.1242 36.8559 22.4171L36.8918 22.692C36.9333 23.0117 36.9802 23.3403 37.0258 23.6578C37.258 25.2831 37.4978 26.9635 37.1953 28.5872C37.0411 29.3956 36.7147 30.1611 36.2384 30.8316C35.7608 31.5007 35.1771 32.0868 34.5104 32.5666C33.8688 33.0307 33.1751 33.4177 32.4436 33.7197C31.7126 34.0232 30.9562 34.261 30.1833 34.4303C29.8378 34.5071 29.5036 34.5667 29.1902 34.6073C28.8515 34.6523 28.5103 34.6756 28.1686 34.6771ZM19.9215 31.7186C19.8779 31.7185 19.8348 31.7096 19.7947 31.6925C19.5976 31.6024 19.4204 31.4737 19.2736 31.314C19.1197 31.1498 18.9754 30.9769 18.8413 30.7961L18.8404 30.7949C18.7865 30.7251 18.7357 30.6592 18.6843 30.5951L18.6638 30.5695C18.3368 30.1644 18.0398 29.7358 17.7751 29.2873L17.6872 29.1395C17.2156 28.3447 16.729 27.4928 16.4164 26.585C16.3966 26.6057 16.375 26.6245 16.3518 26.6412C16.1995 26.7454 16.0182 26.7987 15.8339 26.7934C15.6537 26.7894 15.475 26.7584 15.304 26.7015C15.1383 26.648 14.9764 26.5837 14.8192 26.5089C14.3963 26.3122 14.0206 26.0266 13.7177 25.6714C13.5568 25.4826 13.4161 25.2774 13.2982 25.059C13.1824 24.8446 13.091 24.6178 13.0257 24.3829C12.9608 24.1486 12.9239 23.9073 12.916 23.6642C12.9083 23.4155 12.9313 23.1669 12.9845 22.924C13.0829 22.4914 13.2691 22.0837 13.5315 21.7262C13.791 21.3636 14.1255 21.0614 14.5122 20.8401C14.1503 20.4225 14.0083 19.8535 13.9177 19.3519C13.8002 18.6668 13.7616 17.9705 13.8028 17.2766C13.8383 16.5867 13.9402 15.9019 14.1072 15.2317C14.274 14.5617 14.4963 13.9069 14.7718 13.2741C15.2607 12.1472 15.9355 11.1109 16.7679 10.2087C17.1825 9.75944 17.6344 9.34619 18.1186 8.97338C18.6051 8.59916 19.1232 8.26809 19.6669 7.98392C21.8828 6.83128 24.4082 6.41835 26.8747 6.80535C27.4633 6.8985 28.0426 7.04355 28.6057 7.2388C29.1666 7.43357 29.7101 7.67523 30.2306 7.96122C30.7515 8.24761 31.2484 8.5758 31.7164 8.94256C32.1855 9.31038 32.6247 9.71507 33.0297 10.1528C33.4308 10.5839 33.7986 11.0449 34.13 11.5318C34.4619 12.0184 34.7444 12.5371 34.9733 13.0801C35.0854 13.3489 35.1836 13.6234 35.2674 13.9024C35.3511 14.1816 35.4168 14.4658 35.464 14.7535C35.5181 15.0517 35.5528 15.3532 35.5679 15.656C35.5683 15.7915 35.5576 15.9267 35.536 16.0604C35.5137 16.198 35.503 16.3373 35.5041 16.4767C35.5043 16.4815 35.5036 16.4862 35.502 16.4907C35.5003 16.4951 35.4978 16.4992 35.4945 16.5026C35.4905 16.5065 35.4858 16.5096 35.4807 16.5117C35.4755 16.5138 35.47 16.5148 35.4645 16.5147C35.4561 16.5151 35.4478 16.5126 35.4411 16.5075C35.4344 16.5025 35.4296 16.4952 35.4277 16.487C35.3774 16.3088 35.3052 16.1375 35.2128 15.9772C35.152 15.8663 35.0976 15.7521 35.0498 15.635C34.959 15.4015 34.8549 15.1726 34.7644 14.9765L34.6782 14.7903C34.4366 14.2668 34.1452 13.757 33.8634 13.264L33.8341 13.2128C33.2376 12.1684 32.4769 11.2272 31.5814 10.4254C30.795 9.72278 29.903 9.14887 28.9381 8.72488C28.4569 8.51366 27.9592 8.3421 27.4502 8.2119C26.9403 8.08169 26.4203 7.99552 25.8958 7.95432C25.6286 7.9336 25.357 7.92306 25.0885 7.92306C24.1317 7.92293 23.1794 8.05388 22.2579 8.31227C21.3353 8.57007 20.4533 8.95665 19.6381 9.46066C17.7751 10.6293 16.3636 12.3977 15.6349 14.4758C15.2687 15.5167 15.0596 16.6066 15.0146 17.7094C14.9954 18.27 15.0079 18.8312 15.0522 19.3904L15.0713 19.6565C15.1033 19.972 15.1003 20.2902 15.0622 20.605C15.3009 20.5284 15.5499 20.4884 15.8006 20.4865C15.9021 20.4864 16.0035 20.4937 16.1039 20.5084C16.6348 20.5865 16.9459 20.8077 17.1787 21.2719C17.181 21.2761 17.1821 21.2808 17.182 21.2856C17.1819 21.2903 17.1805 21.295 17.1781 21.2991C17.1756 21.303 17.1723 21.3062 17.1682 21.3084C17.1642 21.3107 17.1597 21.3119 17.1552 21.3119C17.1506 21.3118 17.146 21.3107 17.142 21.3086C17.0006 21.2459 16.8468 21.2163 16.6923 21.2223C16.1201 21.2352 15.5641 21.4154 15.0927 21.7407C14.8255 21.9232 14.5939 22.1531 14.4094 22.4192C14.2234 22.6848 14.0994 22.989 14.0467 23.3092C14.0226 23.4631 14.0191 23.6196 14.0363 23.7744C14.0534 23.9282 14.0888 24.0793 14.1415 24.2246C14.2487 24.5171 14.4155 24.7838 14.6314 25.0079C14.7422 25.1239 14.8632 25.2296 14.993 25.3237C15.1228 25.4181 15.2628 25.4975 15.4104 25.5603C15.5385 25.611 15.6701 25.6524 15.8042 25.6841C16.0284 25.7426 16.24 25.7977 16.4397 25.9541C16.4833 25.9874 16.5181 26.031 16.541 26.081C16.5638 26.131 16.5741 26.1859 16.5708 26.2408C16.5639 26.3501 16.5236 26.4546 16.4554 26.5402C16.7928 26.911 17.1162 27.3057 17.429 27.6877L17.4293 27.688C17.7363 28.0629 18.0538 28.4504 18.3847 28.8155C18.6654 29.1253 18.9907 29.4867 19.2986 29.8521L19.4094 29.9849C19.4918 30.0846 19.5863 30.1844 19.6864 30.2899C19.9463 30.5641 20.215 30.8475 20.3127 31.1729C20.3289 31.2369 20.3301 31.3037 20.3162 31.3683C20.3023 31.4328 20.2737 31.4932 20.2326 31.5448C20.1976 31.5959 20.1513 31.6381 20.0973 31.6683C20.0434 31.6984 19.9832 31.7157 19.9215 31.7186ZM17.0939 24.7808C17.0142 24.7817 16.9361 24.7585 16.8699 24.7141C16.7935 24.6592 16.7362 24.5817 16.7059 24.4925L16.6991 24.4733C16.6285 24.2788 16.5211 24.0998 16.3829 23.946C16.3423 24.0119 16.2848 24.0656 16.2166 24.1018C16.1923 24.1135 16.1657 24.1195 16.1389 24.1193C16.1055 24.1217 16.0724 24.1121 16.0456 24.0922C16.0187 24.0722 15.9999 24.0433 15.9925 24.0106C15.9706 23.8889 15.995 23.7634 16.061 23.659L16.0701 23.6457C15.9102 23.5169 15.7364 23.4064 15.552 23.3163C15.3825 23.2321 15.2024 23.1713 15.0165 23.1357C15.0089 23.134 15.0022 23.1296 14.9975 23.1233C14.9928 23.117 14.9905 23.1093 14.991 23.1014C14.9904 23.0935 14.9927 23.0856 14.9974 23.0792C15.002 23.0728 15.0088 23.0682 15.0165 23.0663C15.2127 23.0265 15.4122 23.0051 15.6123 23.0024C15.8694 22.9998 16.1241 23.0516 16.3598 23.1546C16.5922 23.2579 16.8066 23.3979 16.9947 23.5692C17.1816 23.741 17.352 23.9299 17.5038 24.1334C17.5473 24.1842 17.5749 24.2467 17.5832 24.3132C17.5915 24.3797 17.5801 24.4471 17.5505 24.5071C17.5053 24.5891 17.4393 24.6577 17.3591 24.7058C17.2788 24.7539 17.1873 24.7797 17.0939 24.7808Z" fill="#222222"/>
<path fill-rule="evenodd" clip-rule="evenodd" d="M32.5379 17.7568L32.4462 17.738C32.3384 17.7164 32.23 17.7255 32.1348 17.7644C32.0414 17.8024 31.9601 17.8688 31.9032 17.9644C31.8276 18.0918 31.8175 18.1988 31.8526 18.34C31.8796 18.4491 31.939 18.5312 32.0167 18.5905C32.0986 18.653 32.2023 18.6894 32.3102 18.7021C32.8073 18.7606 33.297 18.8703 33.773 19.0259C33.996 19.0988 34.2065 19.1976 34.4151 19.3001L34.5949 19.3889C34.7608 19.4702 34.9321 19.5485 35.1486 19.6054C35.1656 19.6099 35.1824 19.6141 35.1991 19.6181C35.2592 19.5992 35.2694 19.5763 35.2821 19.5597L35.2872 19.5532C35.3027 19.5338 35.3217 19.504 35.3037 19.3652C34.8313 18.3832 33.5354 17.9658 32.5379 17.7568ZM26.3476 18.0354L26.4673 18.0144C26.8378 17.9501 27.2985 17.8884 27.5606 18.1869C27.6996 18.3452 27.7474 18.6394 27.5606 18.791C27.3159 18.9895 27.052 18.9829 26.7705 18.9759C26.674 18.9735 26.5753 18.971 26.4747 18.9768C26.1502 18.9955 25.8382 19.0493 25.5256 19.1389C24.8397 19.3353 24.2809 19.694 23.6951 20.0878C23.6182 20.1395 23.5398 20.0409 23.5764 19.9689C23.9146 19.3051 24.5699 18.7598 25.2263 18.4275C25.5766 18.25 25.96 18.1029 26.3476 18.0354ZM25.4785 20.9325C25.5317 20.2704 26.5378 20.12 26.6379 20.7752C26.7275 21.3621 26.622 21.9012 26.3583 22.4296C26.1062 22.9344 25.4728 22.6989 25.4249 22.2392C25.3775 21.7852 25.4111 21.5144 25.4453 21.2385C25.4575 21.14 25.4698 21.0408 25.4785 20.9325ZM33.7228 20.4006C33.4801 20.3295 33.2776 20.4552 33.1373 20.6393C33.1211 20.6606 33.1079 20.6816 33.096 20.7024C32.6581 21.1057 32.8231 21.9233 33.1676 22.3327C33.3789 22.5838 33.8465 22.5115 33.9912 22.2264C34.2575 21.7013 34.4809 20.6226 33.7228 20.4006ZM31.7799 25.3369C32.2982 24.6094 31.5642 23.9251 31.0825 23.6317C30.9563 23.5409 31.0564 23.2402 31.3261 23.2867C33.7755 23.7084 32.5064 27.9369 29.3791 25.6165C29.0068 25.3154 29.4577 24.6525 29.859 24.9102C29.8793 24.9259 29.9007 24.9424 29.9229 24.9597C30.3738 25.309 31.1987 25.9482 31.7799 25.3369ZM29.537 29.8048C29.1082 29.6295 28.7256 29.3371 28.4459 28.9635C28.3486 28.8336 28.3234 28.6964 28.3438 28.571C28.3667 28.43 28.45 28.3022 28.5635 28.2164C28.6774 28.1304 28.8199 28.088 28.9576 28.1096C29.0773 28.1284 29.1965 28.1941 29.2908 28.3303L29.3105 28.3575C29.4768 28.583 29.6935 28.768 29.9404 28.8873C30.1784 29.0022 30.4446 29.0559 30.72 29.0247C31.2446 28.9653 31.6062 28.6809 31.9905 28.2948C32.0382 28.246 32.0858 28.1957 32.1337 28.1446C32.1639 28.0984 32.2059 28.0686 32.2526 28.053C32.3043 28.0356 32.3628 28.0366 32.4164 28.0554C32.4682 28.0735 32.5144 28.1078 32.5453 28.1533C32.5748 28.1967 32.5915 28.2503 32.5861 28.3119C32.551 28.712 32.3422 29.0691 32.0457 29.3496C31.7164 29.661 31.2799 29.8765 30.8689 29.952C30.4161 30.0353 29.9548 29.9756 29.537 29.8048Z" fill="#222222"/>
<path fill-rule="evenodd" clip-rule="evenodd" d="M35.0103 28.4057C35.1719 28.6836 35.3083 28.9785 35.4166 29.2831C35.4675 29.4262 35.8494 30.9745 35.6078 31.8617C35.3754 32.7157 34.9548 33.5257 34.4229 34.2366C33.9343 34.8895 33.3183 35.4322 32.5551 35.7323C31.5593 36.1241 30.3719 36.0139 29.3329 35.9128C28.0352 35.7861 26.7598 35.4968 25.5258 35.0782C24.9085 34.8696 24.3027 34.629 23.7058 34.3685C23.1191 34.1132 22.4954 33.8616 21.9456 33.5308C21.4729 33.246 21.0697 32.7979 20.6836 32.4096C20.0752 31.7977 19.4802 31.1596 18.9547 30.4736C18.4641 29.8336 18.0972 29.2409 17.973 28.4313C17.7808 27.176 17.9595 25.8572 18.1301 24.598C18.1439 24.4962 18.1576 24.3947 18.1711 24.2937C18.1762 24.2515 18.2424 24.2291 18.2565 24.2726C18.2552 24.2489 18.2539 24.2253 18.2526 24.2016C18.2482 24.1004 18.3953 24.0871 18.4227 24.1785C18.7578 25.2896 19.305 26.3007 20.0918 27.1551C21.1752 28.3311 22.5597 29.1472 23.9041 29.9956C23.9492 29.9529 24.004 29.9227 24.062 29.9111C24.2564 29.0349 24.8991 28.2202 25.5348 27.6658C27.3956 26.0442 30.377 25.3472 32.6812 26.3359C33.6553 26.7545 34.4758 27.4867 35.0103 28.4057ZM28.3409 27.7734C27.0432 28.0992 25.916 28.9904 25.3995 30.203C25.3605 30.4676 25.3637 30.7354 25.4196 31.0009C26.5211 31.7767 27.8738 32.1844 29.2276 32.0264C29.6493 31.5019 30.1161 30.6077 30.8253 30.5045C31.3502 30.4282 31.7218 30.7748 32.095 31.123C32.2868 31.3019 32.479 31.4812 32.6927 31.6038C32.7278 31.6239 32.766 31.6435 32.8056 31.6625C33.2097 31.629 33.615 31.5343 33.9547 31.3031C34.3027 31.0663 34.4345 30.7458 34.4965 30.3691C34.4788 30.2973 34.4597 30.2258 34.4394 30.1548C34.2967 29.6556 34.0936 29.1686 33.7948 28.743C33.5438 28.3839 33.2099 28.078 32.8004 27.9162C32.3207 27.7267 31.7747 27.6863 31.2657 27.6371C30.2942 27.5423 29.294 27.5347 28.3409 27.7734Z" fill="#222222"/>
</g>
<rect x="0.75" y="0.75" width="48.5" height="48.5" rx="24.25" stroke="#222222" stroke-width="1.5"/>
</g>
<path d="M57.7093 18.5028C57.7093 18.3174 57.6853 18.191 57.6373 18.1236C57.5894 18.0393 57.5095 17.9972 57.3976 17.9972C57.2697 17.9972 57.1818 18.0393 57.1339 18.1236C57.0859 18.191 57.0619 18.3174 57.0619 18.5028V31.4972C57.0619 31.6826 57.0859 31.8174 57.1339 31.9017C57.1818 31.9691 57.2697 32.0028 57.3976 32.0028C57.5095 32.0028 57.5894 31.9691 57.6373 31.9017C57.6853 31.8174 57.7093 31.6826 57.7093 31.4972V26.3652H59.7952V31.4719C59.7952 32.2809 59.5714 32.9045 59.1239 33.3427C58.6763 33.7809 58.1009 34 57.3976 34C56.6943 34 56.1189 33.7809 55.6713 33.3427C55.2238 32.9045 55 32.2809 55 31.4719V18.5281C55 17.736 55.2238 17.1208 55.6713 16.6826C56.1189 16.2275 56.7023 16 57.4216 16C58.1249 16 58.6923 16.2191 59.1239 16.6573C59.5714 17.0955 59.7952 17.7191 59.7952 18.5281V22.8511H57.7093V18.5028Z" fill="#222222"/>
<path d="M65.5189 16.1517L63.9125 28.0337V33.8483H61.8266V28.0337L60.2202 16.1517H62.354L62.7377 22.2444L62.8336 24.7725H62.8815L62.9774 22.2444L63.385 16.1517H65.5189Z" fill="#222222"/>
<path d="M70.8344 18.5028V22.118C70.8344 22.7753 70.7784 23.2725 70.6665 23.6095C70.5547 23.9466 70.2989 24.191 69.8993 24.3427V24.3933C70.2989 24.5449 70.5547 24.7893 70.6665 25.1264C70.7784 25.4635 70.8344 25.9607 70.8344 26.618V31.4972C70.8344 32.323 70.6346 32.9213 70.235 33.2921C69.8354 33.6629 69.236 33.8483 68.4368 33.8483H66.0392V16.1517H68.4608C69.26 16.1517 69.8514 16.3371 70.235 16.7079C70.6346 17.0787 70.8344 17.677 70.8344 18.5028ZM68.7485 18.6292C68.7485 18.4438 68.7245 18.3174 68.6766 18.25C68.6286 18.1826 68.5407 18.1489 68.4128 18.1489H68.1011V23.382H68.4368C68.5487 23.382 68.6286 23.3483 68.6766 23.2809C68.7245 23.1966 68.7485 23.0618 68.7485 22.8764V18.6292ZM68.7485 25.8596C68.7485 25.6742 68.7245 25.5478 68.6766 25.4803C68.6286 25.3961 68.5407 25.3539 68.4128 25.3539H68.1011V31.8511H68.4368C68.5487 31.8511 68.6286 31.8174 68.6766 31.75C68.7245 31.6826 68.7485 31.5562 68.7485 31.3708V25.8596Z" fill="#222222"/>
<path d="M74.5915 16.1517V18.1489H73.6324V23.7865H74.4716V25.7584H73.6324V31.8511H74.7114V33.8483H71.5705V16.1517H74.5915Z" fill="#222222"/>
<path d="M78.1019 26.3652C78.1019 26.1798 78.0779 26.0534 78.03 25.986C77.982 25.9017 77.9021 25.8596 77.7902 25.8596H77.4545V33.8483H75.3926V16.1517H77.8142C78.6134 16.1517 79.2048 16.3371 79.5884 16.7079C79.988 17.0787 80.1878 17.677 80.1878 18.5028V22.6236C80.1878 23.2809 80.1318 23.7781 80.0199 24.1152C79.9081 24.4522 79.6523 24.6966 79.2527 24.8483V24.8989C79.6523 25.0506 79.9081 25.2949 80.0199 25.632C80.1318 25.9691 80.1878 26.4663 80.1878 27.1236V31.5478C80.1878 31.8006 80.1878 32.0281 80.1878 32.2303C80.1878 32.4157 80.1958 32.5927 80.2118 32.7612C80.2277 32.9298 80.2517 33.0983 80.2837 33.2669C80.3316 33.4185 80.3876 33.5955 80.4515 33.7978V33.8483H78.3177C78.2377 33.4944 78.1818 33.1573 78.1498 32.8371C78.1179 32.5169 78.1019 32.0955 78.1019 31.573V26.3652ZM78.1019 18.6292C78.1019 18.4607 78.0779 18.3427 78.03 18.2753C77.982 18.191 77.9021 18.1489 77.7902 18.1489H77.4545V23.8876H77.7902C77.9021 23.8876 77.982 23.8539 78.03 23.7865C78.0779 23.7022 78.1019 23.5674 78.1019 23.382V18.6292Z" fill="#222222"/>
<path d="M88.0416 28.4129V31.4719C88.0416 32.2809 87.8178 32.9045 87.3702 33.3427C86.9227 33.7809 86.3393 34 85.62 34C84.9167 34 84.3413 33.7809 83.8937 33.3427C83.4622 32.9045 83.2464 32.2809 83.2464 31.4719V27.6292H85.3083V31.4972C85.3083 31.6826 85.3323 31.8174 85.3802 31.9017C85.4442 31.9691 85.5321 32.0028 85.644 32.0028C85.7399 32.0028 85.8118 31.9691 85.8598 31.9017C85.9237 31.8174 85.9557 31.6826 85.9557 31.4972V28.4129C85.9557 27.823 85.8278 27.2584 85.5721 26.7191C85.3163 26.1798 85.0286 25.632 84.7089 25.0758C84.3573 24.4522 84.0216 23.8034 83.7019 23.1292C83.3982 22.4382 83.2464 21.6629 83.2464 20.8034V18.5281C83.2464 17.736 83.4702 17.1208 83.9177 16.6826C84.3653 16.2275 84.9487 16 85.668 16C86.3712 16 86.9387 16.2191 87.3702 16.6573C87.8178 17.0955 88.0416 17.7191 88.0416 18.5281V21.5871H85.9557V18.5028C85.9557 18.3174 85.9237 18.191 85.8598 18.1236C85.8118 18.0393 85.7399 17.9972 85.644 17.9972C85.5321 17.9972 85.4442 18.0393 85.3802 18.1236C85.3323 18.191 85.3083 18.3174 85.3083 18.5028V20.8034C85.3083 21.4101 85.4362 21.9831 85.6919 22.5225C85.9477 23.0449 86.2354 23.5843 86.5551 24.1405C86.9227 24.764 87.2584 25.4213 87.562 26.1124C87.8817 26.8034 88.0416 27.5702 88.0416 28.4129Z" fill="#222222"/>
<path d="M91.7998 16.1517V18.1489H90.8407V23.7865H91.6799V25.7584H90.8407V31.8511H91.9197V33.8483H88.7788V16.1517H91.7998Z" fill="#222222"/>
<path d="M95.3102 18.5028C95.3102 18.3174 95.2862 18.191 95.2383 18.1236C95.1903 18.0393 95.1104 17.9972 94.9985 17.9972C94.8706 17.9972 94.7827 18.0393 94.7348 18.1236C94.6868 18.191 94.6628 18.3174 94.6628 18.5028V31.4972C94.6628 31.6826 94.6868 31.8174 94.7348 31.9017C94.7827 31.9691 94.8706 32.0028 94.9985 32.0028C95.1104 32.0028 95.1903 31.9691 95.2383 31.9017C95.2862 31.8174 95.3102 31.6826 95.3102 31.4972V26.3652H97.3961V31.4719C97.3961 32.2809 97.1723 32.9045 96.7248 33.3427C96.2772 33.7809 95.7018 34 94.9985 34C94.2952 34 93.7198 33.7809 93.2722 33.3427C92.8247 32.9045 92.6009 32.2809 92.6009 31.4719V18.5281C92.6009 17.736 92.8247 17.1208 93.2722 16.6826C93.7198 16.2275 94.3032 16 95.0225 16C95.7258 16 96.2932 16.2191 96.7248 16.6573C97.1723 17.0955 97.3961 17.7191 97.3961 18.5281V22.8511H95.3102V18.5028Z" fill="#222222"/>
<path d="M102.974 16.1517V31.4719C102.974 32.2809 102.75 32.9045 102.303 33.3427C101.855 33.7809 101.28 34 100.577 34C99.8733 34 99.2979 33.7809 98.8504 33.3427C98.4028 32.9045 98.1791 32.2809 98.1791 31.4719V16.1517H100.241V31.4972C100.241 31.6826 100.265 31.8174 100.313 31.9017C100.361 31.9691 100.449 32.0028 100.577 32.0028C100.689 32.0028 100.768 31.9691 100.816 31.9017C100.864 31.8174 100.888 31.6826 100.888 31.4972V16.1517H102.974Z" fill="#222222"/>
<path d="M106.466 26.3652C106.466 26.1798 106.442 26.0534 106.395 25.986C106.347 25.9017 106.267 25.8596 106.155 25.8596H105.819V33.8483H103.757V16.1517H106.179C106.978 16.1517 107.569 16.3371 107.953 16.7079C108.353 17.0787 108.552 17.677 108.552 18.5028V22.6236C108.552 23.2809 108.496 23.7781 108.385 24.1152C108.273 24.4522 108.017 24.6966 107.617 24.8483V24.8989C108.017 25.0506 108.273 25.2949 108.385 25.632C108.496 25.9691 108.552 26.4663 108.552 27.1236V31.5478C108.552 31.8006 108.552 32.0281 108.552 32.2303C108.552 32.4157 108.56 32.5927 108.576 32.7612C108.592 32.9298 108.616 33.0983 108.648 33.2669C108.696 33.4185 108.752 33.5955 108.816 33.7978V33.8483H106.682C106.602 33.4944 106.546 33.1573 106.514 32.8371C106.482 32.5169 106.466 32.0955 106.466 31.573V26.3652ZM106.466 18.6292C106.466 18.4607 106.442 18.3427 106.395 18.2753C106.347 18.191 106.267 18.1489 106.155 18.1489H105.819V23.8876H106.155C106.267 23.8876 106.347 23.8539 106.395 23.7865C106.442 23.7022 106.466 23.5674 106.466 23.382V18.6292Z" fill="#222222"/>
<path d="M111.397 16.1517V33.8483H109.335V16.1517H111.397Z" fill="#222222"/>
<path d="M116.537 16.1517V18.1489H115.338V33.8483H113.276V18.1489H112.077V16.1517H116.537Z" fill="#222222"/>
<path d="M122.225 16.1517L120.618 28.0337V33.8483H118.532V28.0337L116.926 16.1517H119.06L119.443 22.2444L119.539 24.7725H119.587L119.683 22.2444L120.091 16.1517H122.225Z" fill="#222222"/>
<path d="M126.147 29.4747V27.5028H129.073V29.4747H126.147ZM128.905 16.1517L130.199 33.8483H127.922L127.49 22.2444L127.394 18.7556H127.346L127.274 22.2444L126.819 33.8483H124.781L126.028 16.1517H128.905Z" fill="#222222"/>
<path d="M133.426 18.5028C133.426 18.3174 133.402 18.191 133.354 18.1236C133.306 18.0393 133.226 17.9972 133.115 17.9972C132.987 17.9972 132.899 18.0393 132.851 18.1236C132.803 18.191 132.779 18.3174 132.779 18.5028V31.4972C132.779 31.6826 132.803 31.8174 132.851 31.9017C132.899 31.9691 132.987 32.0028 133.115 32.0028C133.226 32.0028 133.306 31.9691 133.354 31.9017C133.402 31.8174 133.426 31.6826 133.426 31.4972V26.3652H135.512V31.4719C135.512 32.2809 135.288 32.9045 134.841 33.3427C134.393 33.7809 133.818 34 133.115 34C132.411 34 131.836 33.7809 131.388 33.3427C130.941 32.9045 130.717 32.2809 130.717 31.4719V18.5281C130.717 17.736 130.941 17.1208 131.388 16.6826C131.836 16.2275 132.419 16 133.138 16C133.842 16 134.409 16.2191 134.841 16.6573C135.288 17.0955 135.512 17.7191 135.512 18.5281V22.8511H133.426V18.5028Z" fill="#222222"/>
<path d="M137.374 29.4747V27.5028H140.299V29.4747H137.374ZM140.131 16.1517L141.426 33.8483H139.148L138.717 22.2444L138.621 18.7556H138.573L138.501 22.2444L138.045 33.8483H136.007L137.254 16.1517H140.131Z" fill="#222222"/>
<path d="M146.739 18.5028V31.4972C146.739 32.2893 146.547 32.8792 146.163 33.2669C145.78 33.6545 145.172 33.8483 144.341 33.8483H141.943V16.1517H144.365C145.18 16.1517 145.78 16.3455 146.163 16.7331C146.547 17.1208 146.739 17.7107 146.739 18.5028ZM144.653 18.6292C144.653 18.4438 144.629 18.3174 144.581 18.25C144.533 18.1826 144.453 18.1489 144.341 18.1489H144.005V31.8511H144.341C144.453 31.8511 144.533 31.8174 144.581 31.75C144.629 31.6826 144.653 31.5562 144.653 31.3708V18.6292Z" fill="#222222"/>
<path d="M150.543 16.1517V18.1489H149.584V23.7865H150.423V25.7584H149.584V31.8511H150.662V33.8483H147.522V16.1517H150.543Z" fill="#222222"/>
<path d="M159.184 16.1517V33.8483H157.218L157.314 22.4719V19.1854H157.266L157.074 22.4719L156.259 33.8483H154.269L153.454 22.4719L153.262 19.1854H153.214V22.4719L153.31 33.8483H151.344V16.1517H154.724L155.132 26.3146L155.252 29.4747H155.3L155.396 26.3146L155.803 16.1517H159.184Z" fill="#222222"/>
<path d="M165 16.1517L163.394 28.0337V33.8483H161.308V28.0337L159.701 16.1517H161.835L162.219 22.2444L162.315 24.7725H162.363L162.459 22.2444L162.866 16.1517H165Z" fill="#222222"/>
<defs>
<filter id="filter0_d_2_536" x="0" y="0" width="51" height="51" filterUnits="userSpaceOnUse" color-interpolation-filters="sRGB">
<feFlood flood-opacity="0" result="BackgroundImageFix"/>
<feColorMatrix in="SourceAlpha" type="matrix" values="0 0 0 0 0 0 0 0 0 0 0 0 0 0 0 0 0 0 127 0" result="hardAlpha"/>
<feOffset dx="1" dy="1"/>
<feComposite in2="hardAlpha" operator="out"/>
<feColorMatrix type="matrix" values="0 0 0 0 0.2 0 0 0 0 0.2 0 0 0 0 0.2 0 0 0 1 0"/>
<feBlend mode="normal" in2="BackgroundImageFix" result="effect1_dropShadow_2_536"/>
<feBlend mode="normal" in="SourceGraphic" in2="effect1_dropShadow_2_536" result="shape"/>
</filter>
<clipPath id="clip0_2_536">
<rect width="50" height="50" rx="25" fill="white"/>
</clipPath>
</defs>
</svg>
